<svg width="1440" height="1024" viewBox="0 0 1440 1024" fill="none" xmlns="http://www.w3.org/2000/svg">
<g clip-path="url(#clip0_44_843)">
<rect width="1440" height="1024" fill="white"/>
<g filter="url(#filter0_d_44_843)">
<path d="M0 0H104C124.435 0 141 16.5655 141 37V987C141 1007.43 124.435 1024 104 1024H0V0Z" fill="#2D2D2D"/>
</g>
<path fill-rule="evenodd" clip-rule="evenodd" d="M69.5267 152.917C70.3403 152.25 71.6594 152.25 72.473 152.917L91.223 168.292C92.0366 168.959 92.0366 170.041 91.223 170.708C90.4094 171.375 89.0903 171.375 88.2767 170.708L87.6665 170.208V183.167C87.6665 184.073 87.2275 184.942 86.4461 185.583C85.6647 186.223 84.6049 186.583 83.4998 186.583H58.4998C57.3948 186.583 56.335 186.223 55.5536 185.583C54.7722 184.942 54.3332 184.073 54.3332 183.167V170.208L53.723 170.708C52.9094 171.375 51.5903 171.375 50.7767 170.708C49.9631 170.041 49.9631 168.959 50.7767 168.292L69.5267 152.917ZM58.4998 166.791V183.167H64.7498V176.333C64.7498 175.427 65.1888 174.558 65.9702 173.917C66.7516 173.277 67.8114 172.917 68.9165 172.917H73.0832C74.1882 172.917 75.248 173.277 76.0294 173.917C76.8108 174.558 77.2498 175.427 77.2498 176.333V183.167H83.4998V166.791L70.9998 156.541L58.4998 166.791ZM73.0832 183.167V176.333H68.9165V183.167H73.0832Z" fill="white"/>
<path d="M238.986 95.3182H247.509L251.131 99.9418L255.882 105.396L263.19 114.409H253.645L248.531 108.294L245.506 103.947L238.986 95.3182ZM263.489 89.1818C263.489 93.983 262.565 98.0526 260.719 101.391C258.872 104.729 256.372 107.264 253.219 108.997C250.08 110.73 246.557 111.597 242.651 111.597C238.73 111.597 235.2 110.723 232.061 108.976C228.922 107.229 226.429 104.693 224.582 101.369C222.75 98.0312 221.834 93.9687 221.834 89.1818C221.834 84.3807 222.75 80.3111 224.582 76.973C226.429 73.6349 228.922 71.0994 232.061 69.3665C235.2 67.6335 238.73 66.767 242.651 66.767C246.557 66.767 250.08 67.6335 253.219 69.3665C256.372 71.0994 258.872 73.6349 260.719 76.973C262.565 80.3111 263.489 84.3807 263.489 89.1818ZM252.707 89.1818C252.707 86.3409 252.303 83.9403 251.493 81.9801C250.697 80.0199 249.547 78.5355 248.041 77.527C246.55 76.5185 244.753 76.0142 242.651 76.0142C240.563 76.0142 238.766 76.5185 237.26 77.527C235.754 78.5355 234.597 80.0199 233.787 81.9801C232.991 83.9403 232.594 86.3409 232.594 89.1818C232.594 92.0227 232.991 94.4233 233.787 96.3835C234.597 98.3437 235.754 99.8281 237.26 100.837C238.766 101.845 240.563 102.349 242.651 102.349C244.753 102.349 246.55 101.845 248.041 100.837C249.547 99.8281 250.697 98.3437 251.493 96.3835C252.303 94.4233 252.707 92.0227 252.707 89.1818ZM272.705 111V78.2727H283.124V111H272.705ZM277.925 74.4588C276.462 74.4588 275.205 73.9759 274.154 73.0099C273.103 72.0298 272.577 70.8509 272.577 69.473C272.577 68.1094 273.103 66.9446 274.154 65.9787C275.205 64.9986 276.462 64.5085 277.925 64.5085C279.402 64.5085 280.659 64.9986 281.696 65.9787C282.748 66.9446 283.273 68.1094 283.273 69.473C283.273 70.8509 282.748 72.0298 281.696 73.0099C280.659 73.9759 279.402 74.4588 277.925 74.4588ZM302.152 102.413L302.195 89.9915H303.643L312.848 78.2727H324.652L310.973 95.0625H308.224L302.152 102.413ZM292.756 111V67.3636H303.175V111H292.756ZM313.082 111L304.517 97.4062L311.378 90.0128L325.121 111H313.082ZM331.381 111V67.3636H341.928V84.8778H359.122V67.3636H369.648V111H359.122V93.4645H341.928V111H331.381ZM379.263 111V78.2727H389.683V111H379.263ZM384.484 74.4588C383.021 74.4588 381.763 73.9759 380.712 73.0099C379.661 72.0298 379.136 70.8509 379.136 69.473C379.136 68.1094 379.661 66.9446 380.712 65.9787C381.763 64.9986 383.021 64.5085 384.484 64.5085C385.961 64.5085 387.218 64.9986 388.255 65.9787C389.306 66.9446 389.832 68.1094 389.832 69.473C389.832 70.8509 389.306 72.0298 388.255 73.0099C387.218 73.9759 385.961 74.4588 384.484 74.4588ZM399.314 111V78.2727H409.435V84.2386H409.776C410.373 82.0795 411.346 80.4744 412.695 79.4233C414.044 78.358 415.614 77.8253 417.404 77.8253C417.887 77.8253 418.384 77.8608 418.895 77.9318C419.407 77.9886 419.882 78.081 420.323 78.2088V87.2642C419.826 87.0937 419.172 86.9588 418.363 86.8594C417.567 86.7599 416.857 86.7102 416.232 86.7102C414.996 86.7102 413.881 86.9872 412.887 87.5412C411.907 88.081 411.132 88.8409 410.564 89.821C410.01 90.7869 409.733 91.9233 409.733 93.2301V111H399.314ZM441.167 111.618C437.744 111.618 434.789 110.943 432.304 109.594C429.832 108.23 427.929 106.291 426.593 103.777C425.272 101.249 424.612 98.2443 424.612 94.7642C424.612 91.3835 425.279 88.429 426.615 85.9006C427.95 83.358 429.832 81.3835 432.261 79.9773C434.69 78.5568 437.552 77.8466 440.848 77.8466C443.177 77.8466 445.308 78.2088 447.24 78.9332C449.172 79.6577 450.841 80.7301 452.247 82.1506C453.653 83.571 454.747 85.3253 455.528 87.4134C456.309 89.4872 456.7 91.8665 456.7 94.5511V97.1506H428.255V91.0994H447.005C446.991 89.9915 446.728 89.0043 446.217 88.1378C445.706 87.2713 445.002 86.5966 444.108 86.1136C443.227 85.6165 442.211 85.3679 441.061 85.3679C439.896 85.3679 438.852 85.6307 437.929 86.1562C437.005 86.6676 436.274 87.3707 435.734 88.2656C435.194 89.1463 434.91 90.1477 434.882 91.2699V97.4276C434.882 98.7628 435.145 99.9347 435.67 100.943C436.196 101.937 436.941 102.712 437.907 103.266C438.873 103.82 440.024 104.097 441.359 104.097C442.282 104.097 443.12 103.969 443.873 103.713C444.626 103.457 445.272 103.081 445.812 102.584C446.352 102.087 446.757 101.476 447.027 100.751L456.593 101.028C456.196 103.173 455.322 105.041 453.973 106.632C452.637 108.209 450.883 109.437 448.71 110.318C446.537 111.185 444.022 111.618 441.167 111.618Z" fill="black"/>
<circle cx="1354.5" cy="90.5" r="33.5" fill="#FED0AB"/>
<mask id="mask0_44_843" style="mask-type:alpha" maskUnits="userSpaceOnUse" x="1321" y="57" width="67" height="67">
<circle cx="1354.5" cy="90.5" r="33.5" fill="#BFBDF4"/>
</mask>
<g mask="url(#mask0_44_843)">
<path d="M1353.59 73C1342.23 73 1336.04 80.9051 1336.04 91.3573V123.944H1371.15V91.3573C1371.15 75.8107 1361.67 76.0742 1361.67 76.0742C1361.67 76.0742 1360.96 73 1353.59 73Z" fill="#231F20"/>
<path d="M1378.99 85.9116H1373.19C1373.19 85.9116 1379.46 114.37 1361.43 114.37V108.134H1345.84V114.37C1335.96 114.633 1334 116.478 1334 125.701H1373.19C1382.91 112.525 1381.89 101.107 1378.99 85.9116Z" fill="#C28FEF"/>
<path d="M1367.39 81.2564C1367.78 80.3781 1369.11 80.3781 1370.45 81.9591C1371.23 82.9253 1371.54 83.2766 1372.17 83.3644L1371.94 75.3715C1371.94 74.7567 1372.41 74.1418 1372.95 74.1418C1373.5 74.1418 1373.97 74.6688 1374.05 75.3715V74.4932C1374.05 73.7027 1374.6 73 1375.23 73C1375.93 73 1376.48 73.6148 1376.48 74.4053V75.0202C1376.48 74.3175 1376.95 73.7027 1377.5 73.7027C1378.13 73.7027 1378.6 74.2297 1378.6 74.9324V76.3377C1378.6 75.7229 1378.99 75.108 1379.54 75.108C1380.09 75.108 1380.56 75.635 1380.56 76.2499L1380.71 82.3983V82.5739C1380.71 82.5739 1381.18 85.8238 1380.48 87.844C1379.38 90.9182 1373.27 91.9722 1371.15 86.79C1370.76 85.736 1369.9 85.0333 1369.19 84.0671C1368.49 83.1009 1367 82.2226 1367.39 81.2564ZM1340.51 100.229C1340.51 100.229 1337.84 99.4381 1337.84 95.1342C1337.84 91.7087 1339.8 91.0938 1339.8 91.0938C1346.93 91.0938 1360.1 80.8172 1360.1 80.8172C1360.1 80.8172 1362.84 89.8642 1367.08 91.0938C1367.08 91.0938 1369.11 91.533 1369.11 95.1342C1369.11 99.4381 1366.37 100.229 1366.37 100.229C1366.37 106.728 1358.3 114.633 1353.44 114.633C1348.74 114.633 1340.51 106.728 1340.51 100.229Z" fill="#B47D56"/>
<path d="M1353.59 104.445C1351.09 104.445 1349.83 102.424 1351.09 102.424H1356.1C1357.36 102.424 1356.1 104.445 1353.59 104.445Z" fill="#935E3E"/>
<path d="M1357.36 98.4719C1356.49 98.4719 1356.57 97.2422 1356.57 97.2422C1357.91 89.5128 1365.59 93.641 1365.59 93.641C1366.21 94.9585 1364.18 98.2962 1363.63 98.4719C1361.12 99.1746 1357.36 98.4719 1357.36 98.4719Z" fill="#F5F5F5"/>
<path d="M1360.81 98.3841C1362.32 98.3841 1363.55 97.0077 1363.55 95.3099C1363.55 93.6121 1362.32 92.2357 1360.81 92.2357C1359.29 92.2357 1358.06 93.6121 1358.06 95.3099C1358.06 97.0077 1359.29 98.3841 1360.81 98.3841Z" fill="#664E27"/>
<path d="M1360.81 96.3639C1361.33 96.3639 1361.75 95.892 1361.75 95.3099C1361.75 94.7278 1361.33 94.2559 1360.81 94.2559C1360.29 94.2559 1359.87 94.7278 1359.87 95.3099C1359.87 95.892 1360.29 96.3639 1360.81 96.3639Z" fill="#2B2925"/>
<path d="M1356.57 97.2422C1357.91 88.0197 1364.73 94.168 1367.39 92.8505C1364.73 95.7491 1359.32 89.5128 1356.57 97.2422Z" fill="#3B3226"/>
<path d="M1349.83 98.4719C1350.69 98.4719 1350.62 97.2422 1350.62 97.2422C1349.28 89.5128 1341.6 93.641 1341.6 93.641C1340.98 94.9585 1343.01 98.2962 1343.56 98.4719C1345.99 99.1746 1349.83 98.4719 1349.83 98.4719Z" fill="#F5F5F5"/>
<path d="M1346.31 98.3841C1347.82 98.3841 1349.05 97.0077 1349.05 95.3099C1349.05 93.6121 1347.82 92.2357 1346.31 92.2357C1344.79 92.2357 1343.56 93.6121 1343.56 95.3099C1343.56 97.0077 1344.79 98.3841 1346.31 98.3841Z" fill="#664E27"/>
<path d="M1350.54 97.2422C1349.21 88.0197 1342.39 94.168 1339.72 92.8505C1342.39 95.7491 1347.87 89.5128 1350.54 97.2422Z" fill="#3B3226"/>
<path d="M1353.59 107.87L1347.56 106.816C1351.17 112.613 1356.02 112.613 1359.63 106.816L1353.59 107.87Z" fill="#935E3E"/>
<path d="M1355.95 106.553C1354.14 105.762 1353.59 106.992 1353.59 106.992C1353.59 106.992 1352.97 105.762 1351.24 106.553C1349.83 107.168 1347.56 106.816 1347.56 106.816C1349.99 107.431 1350.3 108.485 1353.59 108.485C1356.89 108.485 1357.2 107.343 1359.63 106.816C1359.63 106.816 1357.36 107.168 1355.95 106.553Z" fill="#734C31"/>
<path d="M1346.31 96.3639C1346.82 96.3639 1347.25 95.892 1347.25 95.3099C1347.25 94.7278 1346.82 94.2559 1346.31 94.2559C1345.79 94.2559 1345.36 94.7278 1345.36 95.3099C1345.36 95.892 1345.79 96.3639 1346.31 96.3639Z" fill="#2B2925"/>
</g>
<path d="M231.912 225.818H236.616V244.227C236.608 245.915 236.25 247.368 235.543 248.587C234.835 249.797 233.847 250.73 232.577 251.386C231.315 252.034 229.845 252.358 228.166 252.358C226.632 252.358 225.251 252.085 224.024 251.54C222.805 250.986 221.838 250.168 221.122 249.085C220.406 248.003 220.048 246.656 220.048 245.045H224.766C224.774 245.753 224.928 246.362 225.226 246.874C225.533 247.385 225.955 247.777 226.491 248.05C227.028 248.322 227.646 248.459 228.345 248.459C229.104 248.459 229.747 248.301 230.276 247.986C230.804 247.662 231.205 247.185 231.477 246.554C231.759 245.923 231.903 245.148 231.912 244.227V225.818ZM250.123 252.384C248.205 252.384 246.543 251.962 245.137 251.118C243.731 250.274 242.64 249.094 241.864 247.577C241.097 246.06 240.714 244.287 240.714 242.259C240.714 240.23 241.097 238.453 241.864 236.928C242.64 235.402 243.731 234.217 245.137 233.374C246.543 232.53 248.205 232.108 250.123 232.108C252.04 232.108 253.702 232.53 255.109 233.374C256.515 234.217 257.602 235.402 258.369 236.928C259.144 238.453 259.532 240.23 259.532 242.259C259.532 244.287 259.144 246.06 258.369 247.577C257.602 249.094 256.515 250.274 255.109 251.118C253.702 251.962 252.04 252.384 250.123 252.384ZM250.148 248.676C251.188 248.676 252.058 248.391 252.756 247.82C253.455 247.24 253.975 246.464 254.316 245.493C254.665 244.521 254.84 243.439 254.84 242.246C254.84 241.044 254.665 239.957 254.316 238.986C253.975 238.006 253.455 237.226 252.756 236.646C252.058 236.067 251.188 235.777 250.148 235.777C249.083 235.777 248.197 236.067 247.489 236.646C246.79 237.226 246.266 238.006 245.917 238.986C245.576 239.957 245.406 241.044 245.406 242.246C245.406 243.439 245.576 244.521 245.917 245.493C246.266 246.464 246.79 247.24 247.489 247.82C248.197 248.391 249.083 248.676 250.148 248.676ZM263.664 252V225.818H268.292V235.611H268.484C268.723 235.134 269.059 234.626 269.494 234.089C269.929 233.544 270.517 233.08 271.258 232.696C272 232.304 272.946 232.108 274.096 232.108C275.613 232.108 276.981 232.496 278.2 233.271C279.427 234.038 280.399 235.176 281.115 236.685C281.839 238.185 282.201 240.026 282.201 242.207C282.201 244.364 281.848 246.196 281.14 247.705C280.433 249.213 279.47 250.364 278.251 251.156C277.032 251.949 275.652 252.345 274.109 252.345C272.984 252.345 272.051 252.158 271.309 251.783C270.568 251.408 269.971 250.956 269.52 250.428C269.076 249.891 268.731 249.384 268.484 248.906H268.216V252H263.664ZM268.203 242.182C268.203 243.452 268.382 244.564 268.74 245.518C269.106 246.473 269.63 247.219 270.312 247.756C271.002 248.284 271.838 248.548 272.818 248.548C273.841 248.548 274.697 248.276 275.387 247.73C276.078 247.176 276.598 246.422 276.947 245.467C277.305 244.504 277.484 243.409 277.484 242.182C277.484 240.963 277.309 239.881 276.96 238.935C276.61 237.989 276.091 237.247 275.4 236.71C274.71 236.173 273.849 235.905 272.818 235.905C271.829 235.905 270.99 236.165 270.299 236.685C269.609 237.205 269.085 237.933 268.727 238.871C268.377 239.808 268.203 240.912 268.203 242.182ZM301.656 237.554L297.437 238.014C297.317 237.588 297.109 237.188 296.81 236.812C296.521 236.438 296.129 236.135 295.634 235.905C295.14 235.675 294.535 235.56 293.819 235.56C292.856 235.56 292.046 235.768 291.39 236.186C290.742 236.604 290.423 237.145 290.431 237.81C290.423 238.381 290.631 238.845 291.058 239.203C291.492 239.561 292.208 239.855 293.205 240.085L296.555 240.801C298.413 241.202 299.793 241.837 300.697 242.706C301.609 243.575 302.069 244.713 302.077 246.119C302.069 247.355 301.707 248.446 300.991 249.392C300.283 250.33 299.299 251.062 298.038 251.591C296.776 252.119 295.327 252.384 293.691 252.384C291.288 252.384 289.353 251.881 287.887 250.875C286.421 249.861 285.548 248.45 285.266 246.643L289.779 246.209C289.984 247.095 290.418 247.764 291.083 248.216C291.748 248.668 292.613 248.893 293.678 248.893C294.778 248.893 295.66 248.668 296.325 248.216C296.998 247.764 297.335 247.206 297.335 246.541C297.335 245.979 297.117 245.514 296.683 245.148C296.256 244.781 295.592 244.5 294.688 244.304L291.339 243.601C289.455 243.209 288.062 242.548 287.158 241.619C286.255 240.682 285.808 239.497 285.816 238.065C285.808 236.855 286.136 235.807 286.8 234.92C287.474 234.026 288.407 233.335 289.6 232.849C290.802 232.355 292.187 232.108 293.755 232.108C296.056 232.108 297.867 232.598 299.188 233.578C300.518 234.558 301.34 235.884 301.656 237.554ZM336.543 225.818V252H332.325L319.988 234.166H319.771V252H315.028V225.818H319.272L331.596 243.665H331.826V225.818H336.543ZM350.2 252.384C348.231 252.384 346.531 251.974 345.099 251.156C343.676 250.33 342.581 249.162 341.814 247.653C341.047 246.136 340.663 244.351 340.663 242.297C340.663 240.277 341.047 238.504 341.814 236.979C342.589 235.445 343.672 234.251 345.061 233.399C346.45 232.538 348.082 232.108 349.957 232.108C351.167 232.108 352.309 232.304 353.383 232.696C354.466 233.08 355.42 233.676 356.247 234.486C357.082 235.295 357.738 236.327 358.216 237.58C358.693 238.824 358.931 240.307 358.931 242.028V243.447H342.836V240.328H354.495C354.487 239.442 354.295 238.653 353.92 237.963C353.545 237.264 353.021 236.714 352.348 236.314C351.683 235.913 350.907 235.713 350.021 235.713C349.075 235.713 348.244 235.943 347.528 236.403C346.812 236.855 346.254 237.452 345.853 238.193C345.461 238.926 345.261 239.732 345.252 240.609V243.332C345.252 244.474 345.461 245.455 345.879 246.273C346.297 247.082 346.88 247.705 347.63 248.139C348.38 248.565 349.258 248.778 350.264 248.778C350.937 248.778 351.547 248.685 352.092 248.497C352.637 248.301 353.11 248.016 353.511 247.641C353.912 247.266 354.214 246.801 354.419 246.247L358.74 246.733C358.467 247.875 357.947 248.872 357.18 249.724C356.422 250.568 355.45 251.224 354.265 251.693C353.081 252.153 351.725 252.384 350.2 252.384ZM368.497 252.396C367.253 252.396 366.132 252.175 365.135 251.732C364.146 251.28 363.362 250.615 362.783 249.737C362.212 248.859 361.926 247.777 361.926 246.49C361.926 245.382 362.131 244.466 362.54 243.741C362.949 243.017 363.507 242.438 364.214 242.003C364.922 241.568 365.719 241.24 366.605 241.018C367.5 240.788 368.425 240.622 369.379 240.52C370.53 240.401 371.463 240.294 372.179 240.2C372.895 240.098 373.415 239.945 373.739 239.74C374.071 239.527 374.237 239.199 374.237 238.756V238.679C374.237 237.716 373.952 236.97 373.381 236.442C372.81 235.913 371.987 235.649 370.913 235.649C369.78 235.649 368.881 235.896 368.216 236.391C367.56 236.885 367.116 237.469 366.886 238.142L362.565 237.528C362.906 236.335 363.469 235.338 364.253 234.537C365.037 233.727 365.996 233.122 367.129 232.722C368.263 232.312 369.516 232.108 370.888 232.108C371.834 232.108 372.776 232.219 373.713 232.44C374.651 232.662 375.507 233.028 376.283 233.54C377.058 234.043 377.68 234.729 378.149 235.598C378.626 236.467 378.865 237.554 378.865 238.858V252H374.416V249.303H374.263C373.982 249.848 373.585 250.359 373.074 250.837C372.571 251.305 371.936 251.685 371.169 251.974C370.411 252.256 369.52 252.396 368.497 252.396ZM369.699 248.996C370.628 248.996 371.433 248.812 372.115 248.446C372.797 248.071 373.321 247.577 373.688 246.963C374.062 246.349 374.25 245.68 374.25 244.956V242.642C374.105 242.761 373.858 242.872 373.509 242.974C373.168 243.077 372.784 243.166 372.358 243.243C371.932 243.32 371.51 243.388 371.092 243.447C370.675 243.507 370.313 243.558 370.006 243.601C369.315 243.695 368.697 243.848 368.152 244.061C367.607 244.274 367.176 244.572 366.861 244.956C366.545 245.331 366.388 245.817 366.388 246.413C366.388 247.266 366.699 247.909 367.321 248.344C367.943 248.778 368.736 248.996 369.699 248.996ZM383.518 252V232.364H388.006V235.636H388.21C388.568 234.503 389.182 233.629 390.051 233.016C390.929 232.393 391.93 232.082 393.055 232.082C393.311 232.082 393.597 232.095 393.912 232.121C394.236 232.138 394.504 232.168 394.717 232.21V236.467C394.521 236.399 394.21 236.339 393.784 236.288C393.366 236.229 392.962 236.199 392.57 236.199C391.726 236.199 390.967 236.382 390.294 236.749C389.629 237.107 389.105 237.605 388.722 238.244C388.338 238.884 388.146 239.621 388.146 240.456V252H383.518ZM405.136 225.818H410.493L416.898 237.401H417.153L423.558 225.818H428.915L419.391 242.233V252H414.661V242.233L405.136 225.818ZM436.978 252.384C435.061 252.384 433.399 251.962 431.993 251.118C430.586 250.274 429.495 249.094 428.72 247.577C427.953 246.06 427.569 244.287 427.569 242.259C427.569 240.23 427.953 238.453 428.72 236.928C429.495 235.402 430.586 234.217 431.993 233.374C433.399 232.53 435.061 232.108 436.978 232.108C438.896 232.108 440.558 232.53 441.964 233.374C443.37 234.217 444.457 235.402 445.224 236.928C446 238.453 446.387 240.23 446.387 242.259C446.387 244.287 446 246.06 445.224 247.577C444.457 249.094 443.37 250.274 441.964 251.118C440.558 251.962 438.896 252.384 436.978 252.384ZM437.004 248.676C438.044 248.676 438.913 248.391 439.612 247.82C440.311 247.24 440.831 246.464 441.172 245.493C441.521 244.521 441.696 243.439 441.696 242.246C441.696 241.044 441.521 239.957 441.172 238.986C440.831 238.006 440.311 237.226 439.612 236.646C438.913 236.067 438.044 235.777 437.004 235.777C435.939 235.777 435.052 236.067 434.345 236.646C433.646 237.226 433.122 238.006 432.772 238.986C432.431 239.957 432.261 241.044 432.261 242.246C432.261 243.439 432.431 244.521 432.772 245.493C433.122 246.464 433.646 247.24 434.345 247.82C435.052 248.391 435.939 248.676 437.004 248.676ZM462.831 243.741V232.364H467.459V252H462.972V248.51H462.767C462.324 249.609 461.595 250.509 460.581 251.207C459.575 251.906 458.335 252.256 456.861 252.256C455.574 252.256 454.436 251.97 453.447 251.399C452.467 250.82 451.7 249.98 451.146 248.881C450.592 247.773 450.315 246.435 450.315 244.866V232.364H454.943V244.151C454.943 245.395 455.284 246.384 455.966 247.116C456.648 247.849 457.543 248.216 458.651 248.216C459.332 248.216 459.993 248.05 460.632 247.717C461.271 247.385 461.795 246.891 462.205 246.234C462.622 245.57 462.831 244.739 462.831 243.741Z" fill="black"/>
<g filter="url(#filter1_d_44_843)">
<rect x="482" y="302" width="636" height="640" rx="20" fill="#F5F5F5"/>
</g>
<path d="M701.255 690.273V715H696.776V694.631H696.631L690.847 698.326V694.221L696.993 690.273H701.255ZM716.673 715.471C714.685 715.471 712.979 714.968 711.554 713.962C710.137 712.947 709.047 711.487 708.282 709.579C707.525 707.663 707.147 705.357 707.147 702.661C707.155 699.964 707.537 697.67 708.294 695.778C709.059 693.879 710.149 692.43 711.566 691.432C712.991 690.434 714.693 689.935 716.673 689.935C718.653 689.935 720.356 690.434 721.781 691.432C723.205 692.43 724.296 693.879 725.053 695.778C725.817 697.678 726.2 699.972 726.2 702.661C726.2 705.365 725.817 707.675 725.053 709.591C724.296 711.499 723.205 712.955 721.781 713.962C720.364 714.968 718.661 715.471 716.673 715.471ZM716.673 711.692C718.219 711.692 719.438 710.931 720.332 709.41C721.233 707.88 721.684 705.631 721.684 702.661C721.684 700.696 721.479 699.046 721.068 697.71C720.658 696.374 720.078 695.368 719.33 694.692C718.581 694.008 717.696 693.665 716.673 693.665C715.136 693.665 713.92 694.43 713.027 695.96C712.134 697.481 711.683 699.714 711.675 702.661C711.667 704.633 711.864 706.291 712.266 707.635C712.677 708.979 713.256 709.993 714.005 710.678C714.754 711.354 715.643 711.692 716.673 711.692ZM738.693 715V696.455H742.871V699.606H743.088C743.474 698.543 744.114 697.714 745.008 697.119C745.901 696.515 746.968 696.213 748.207 696.213C749.463 696.213 750.521 696.519 751.383 697.131C752.252 697.734 752.864 698.559 753.218 699.606H753.411C753.822 698.576 754.514 697.754 755.488 697.143C756.47 696.523 757.633 696.213 758.977 696.213C760.684 696.213 762.076 696.752 763.155 697.831C764.233 698.91 764.773 700.483 764.773 702.552V715H760.39V703.228C760.39 702.077 760.084 701.236 759.472 700.705C758.86 700.165 758.112 699.896 757.226 699.896C756.172 699.896 755.347 700.226 754.751 700.886C754.164 701.538 753.87 702.387 753.87 703.433V715H749.584V703.047C749.584 702.089 749.294 701.324 748.714 700.753C748.143 700.181 747.394 699.896 746.469 699.896C745.841 699.896 745.269 700.057 744.754 700.379C744.239 700.692 743.828 701.139 743.523 701.719C743.217 702.29 743.064 702.958 743.064 703.723V715H738.693ZM769.207 715V696.455H773.577V715H769.207ZM771.404 693.822C770.712 693.822 770.116 693.593 769.617 693.134C769.118 692.667 768.869 692.108 768.869 691.456C768.869 690.796 769.118 690.237 769.617 689.778C770.116 689.311 770.712 689.077 771.404 689.077C772.104 689.077 772.7 689.311 773.191 689.778C773.69 690.237 773.94 690.796 773.94 691.456C773.94 692.108 773.69 692.667 773.191 693.134C772.7 693.593 772.104 693.822 771.404 693.822ZM782.443 704.134V715H778.072V696.455H782.249V699.606H782.467C782.893 698.567 783.574 697.742 784.507 697.131C785.449 696.519 786.612 696.213 787.997 696.213C789.276 696.213 790.391 696.487 791.341 697.034C792.299 697.581 793.039 698.374 793.563 699.413C794.094 700.451 794.356 701.711 794.347 703.192V715H789.977V703.868C789.977 702.628 789.655 701.658 789.011 700.958C788.375 700.258 787.494 699.908 786.367 699.908C785.602 699.908 784.922 700.077 784.326 700.415C783.739 700.745 783.276 701.224 782.938 701.852C782.608 702.479 782.443 703.24 782.443 704.134ZM813.448 701.357L809.464 701.791C809.351 701.389 809.154 701.01 808.872 700.656C808.599 700.302 808.228 700.016 807.762 699.799C807.295 699.582 806.723 699.473 806.047 699.473C805.137 699.473 804.373 699.67 803.753 700.065C803.141 700.459 802.839 700.97 802.847 701.598C802.839 702.137 803.037 702.576 803.439 702.914C803.85 703.252 804.526 703.53 805.468 703.747L808.631 704.423C810.386 704.802 811.69 705.401 812.543 706.222C813.404 707.043 813.839 708.118 813.847 709.446C813.839 710.613 813.497 711.643 812.82 712.537C812.152 713.422 811.223 714.115 810.031 714.614C808.84 715.113 807.472 715.362 805.926 715.362C803.656 715.362 801.829 714.887 800.445 713.938C799.06 712.98 798.235 711.647 797.97 709.941L802.232 709.531C802.425 710.368 802.835 711 803.463 711.426C804.091 711.853 804.908 712.066 805.914 712.066C806.953 712.066 807.786 711.853 808.414 711.426C809.049 711 809.367 710.472 809.367 709.844C809.367 709.313 809.162 708.875 808.752 708.528C808.349 708.182 807.721 707.917 806.868 707.732L803.705 707.067C801.926 706.697 800.61 706.073 799.757 705.196C798.903 704.311 798.481 703.192 798.489 701.839C798.481 700.696 798.791 699.706 799.419 698.869C800.054 698.024 800.936 697.372 802.063 696.913C803.198 696.446 804.506 696.213 805.987 696.213C808.16 696.213 809.87 696.676 811.118 697.602C812.374 698.527 813.151 699.779 813.448 701.357ZM831.221 715.374C830.046 715.374 828.987 715.165 828.046 714.746C827.112 714.32 826.371 713.692 825.824 712.863C825.285 712.034 825.015 711.012 825.015 709.796C825.015 708.75 825.208 707.884 825.595 707.2C825.981 706.516 826.508 705.969 827.176 705.558C827.844 705.148 828.597 704.838 829.434 704.629C830.279 704.411 831.153 704.254 832.054 704.158C833.141 704.045 834.022 703.944 834.698 703.856C835.374 703.759 835.865 703.614 836.171 703.421C836.485 703.22 836.642 702.91 836.642 702.491V702.419C836.642 701.509 836.373 700.805 835.833 700.306C835.294 699.807 834.517 699.558 833.503 699.558C832.432 699.558 831.583 699.791 830.955 700.258C830.336 700.725 829.917 701.276 829.7 701.912L825.619 701.332C825.941 700.205 826.472 699.264 827.213 698.507C827.953 697.742 828.859 697.171 829.929 696.793C831 696.406 832.183 696.213 833.479 696.213C834.372 696.213 835.262 696.318 836.147 696.527C837.033 696.736 837.842 697.082 838.574 697.565C839.307 698.04 839.894 698.688 840.337 699.509C840.788 700.33 841.013 701.357 841.013 702.588V715H836.811V712.452H836.666C836.401 712.968 836.026 713.451 835.544 713.901C835.069 714.344 834.469 714.702 833.744 714.976C833.028 715.241 832.187 715.374 831.221 715.374ZM832.356 712.163C833.233 712.163 833.994 711.99 834.638 711.643C835.282 711.289 835.777 710.822 836.123 710.243C836.477 709.663 836.654 709.031 836.654 708.347V706.162C836.517 706.275 836.284 706.379 835.954 706.476C835.632 706.572 835.27 706.657 834.867 706.729C834.465 706.802 834.066 706.866 833.672 706.923C833.278 706.979 832.936 707.027 832.646 707.067C831.994 707.156 831.41 707.301 830.895 707.502C830.38 707.703 829.973 707.985 829.676 708.347C829.378 708.701 829.229 709.16 829.229 709.724C829.229 710.529 829.523 711.136 830.11 711.547C830.698 711.957 831.446 712.163 832.356 712.163ZM849.235 715L843.995 696.455H848.45L851.71 709.494H851.879L855.212 696.455H859.619L862.951 709.422H863.132L866.344 696.455H870.811L865.559 715H861.007L857.53 702.467H857.276L853.799 715H849.235ZM879.2 715.374C878.024 715.374 876.966 715.165 876.024 714.746C875.09 714.32 874.35 713.692 873.803 712.863C873.263 712.034 872.994 711.012 872.994 709.796C872.994 708.75 873.187 707.884 873.573 707.2C873.96 706.516 874.487 705.969 875.155 705.558C875.823 705.148 876.576 704.838 877.413 704.629C878.258 704.411 879.131 704.254 880.033 704.158C881.119 704.045 882.001 703.944 882.677 703.856C883.353 703.759 883.844 703.614 884.15 703.421C884.464 703.22 884.621 702.91 884.621 702.491V702.419C884.621 701.509 884.351 700.805 883.812 700.306C883.272 699.807 882.496 699.558 881.482 699.558C880.411 699.558 879.562 699.791 878.934 700.258C878.314 700.725 877.896 701.276 877.678 701.912L873.597 701.332C873.919 700.205 874.451 699.264 875.191 698.507C875.932 697.742 876.837 697.171 877.908 696.793C878.978 696.406 880.161 696.213 881.457 696.213C882.351 696.213 883.24 696.318 884.126 696.527C885.011 696.736 885.82 697.082 886.553 697.565C887.285 698.04 887.873 698.688 888.315 699.509C888.766 700.33 888.991 701.357 888.991 702.588V715H884.79V712.452H884.645C884.379 712.968 884.005 713.451 883.522 713.901C883.047 714.344 882.447 714.702 881.723 714.976C881.007 715.241 880.165 715.374 879.2 715.374ZM880.335 712.163C881.212 712.163 881.973 711.99 882.616 711.643C883.26 711.289 883.755 710.822 884.102 710.243C884.456 709.663 884.633 709.031 884.633 708.347V706.162C884.496 706.275 884.263 706.379 883.933 706.476C883.611 706.572 883.248 706.657 882.846 706.729C882.443 706.802 882.045 706.866 881.651 706.923C881.256 706.979 880.914 707.027 880.624 707.067C879.972 707.156 879.389 707.301 878.874 707.502C878.358 707.703 877.952 707.985 877.654 708.347C877.356 708.701 877.207 709.16 877.207 709.724C877.207 710.529 877.501 711.136 878.089 711.547C878.676 711.957 879.425 712.163 880.335 712.163ZM895.439 721.955C894.843 721.955 894.292 721.906 893.785 721.81C893.286 721.721 892.887 721.616 892.589 721.496L893.604 718.091C894.24 718.276 894.807 718.365 895.306 718.357C895.805 718.348 896.244 718.192 896.622 717.886C897.009 717.588 897.335 717.089 897.6 716.388L897.974 715.386L891.249 696.455H895.886L900.16 710.46H900.353L904.639 696.455H909.288L901.862 717.246C901.516 718.228 901.057 719.069 900.486 719.769C899.914 720.478 899.214 721.017 898.385 721.387C897.564 721.765 896.582 721.955 895.439 721.955Z" fill="black"/>
<rect x="538.5" y="782.5" width="223" height="86" rx="8.5" stroke="black" stroke-opacity="0.26"/>
<path d="M594.875 840H586.347V812.364H595.253C597.934 812.364 600.228 812.917 602.135 814.023C604.042 815.121 605.504 816.7 606.521 818.76C607.537 820.811 608.045 823.267 608.045 826.128C608.045 829.007 607.533 831.485 606.507 833.563C605.482 835.632 603.988 837.225 602.027 838.34C600.066 839.447 597.682 840 594.875 840ZM589.693 837.031H594.659C596.944 837.031 598.838 836.59 600.34 835.709C601.843 834.827 602.963 833.572 603.7 831.944C604.438 830.316 604.807 828.377 604.807 826.128C604.807 823.897 604.442 821.976 603.714 820.366C602.985 818.746 601.897 817.505 600.448 816.641C599 815.769 597.196 815.332 595.037 815.332H589.693V837.031ZM621.918 840.432C619.92 840.432 618.198 839.991 616.749 839.109C615.31 838.219 614.199 836.977 613.416 835.385C612.643 833.784 612.256 831.921 612.256 829.798C612.256 827.675 612.643 825.804 613.416 824.185C614.199 822.556 615.287 821.288 616.682 820.379C618.085 819.462 619.723 819.003 621.594 819.003C622.673 819.003 623.739 819.183 624.792 819.543C625.844 819.902 626.803 820.487 627.666 821.297C628.53 822.098 629.218 823.159 629.731 824.482C630.244 825.804 630.5 827.432 630.5 829.366V830.716H614.523V827.963H627.261C627.261 826.794 627.027 825.75 626.56 824.832C626.101 823.915 625.444 823.191 624.589 822.66C623.744 822.129 622.745 821.864 621.594 821.864C620.325 821.864 619.228 822.179 618.301 822.808C617.384 823.429 616.677 824.239 616.183 825.237C615.688 826.236 615.44 827.306 615.44 828.449V830.284C615.44 831.849 615.71 833.176 616.25 834.265C616.799 835.344 617.559 836.168 618.531 836.734C619.502 837.292 620.631 837.571 621.918 837.571C622.754 837.571 623.51 837.454 624.185 837.22C624.868 836.977 625.458 836.617 625.952 836.141C626.447 835.655 626.83 835.052 627.099 834.332L630.176 835.196C629.852 836.24 629.308 837.157 628.543 837.949C627.779 838.732 626.834 839.343 625.71 839.784C624.585 840.216 623.321 840.432 621.918 840.432ZM643.765 840.432C641.822 840.432 640.148 839.973 638.745 839.055C637.342 838.138 636.262 836.874 635.506 835.263C634.751 833.653 634.373 831.813 634.373 829.744C634.373 827.639 634.76 825.781 635.533 824.171C636.316 822.552 637.405 821.288 638.799 820.379C640.202 819.462 641.84 819.003 643.711 819.003C645.168 819.003 646.482 819.273 647.651 819.812C648.821 820.352 649.779 821.108 650.526 822.08C651.272 823.051 651.736 824.185 651.915 825.48H648.731C648.488 824.536 647.948 823.699 647.112 822.97C646.284 822.232 645.168 821.864 643.765 821.864C642.523 821.864 641.435 822.187 640.499 822.835C639.573 823.474 638.848 824.378 638.327 825.548C637.814 826.708 637.558 828.071 637.558 829.636C637.558 831.238 637.809 832.632 638.313 833.82C638.826 835.007 639.546 835.929 640.472 836.586C641.408 837.243 642.505 837.571 643.765 837.571C644.593 837.571 645.344 837.427 646.018 837.139C646.693 836.851 647.264 836.438 647.732 835.898C648.2 835.358 648.533 834.71 648.731 833.955H651.915C651.736 835.178 651.29 836.28 650.58 837.261C649.878 838.232 648.947 839.006 647.786 839.582C646.635 840.148 645.294 840.432 643.765 840.432ZM659.756 812.364V840H656.571V812.364H659.756ZM665.589 840V819.273H668.773V840H665.589ZM667.208 815.818C666.587 815.818 666.052 815.607 665.602 815.184C665.161 814.761 664.941 814.253 664.941 813.659C664.941 813.065 665.161 812.557 665.602 812.134C666.052 811.711 666.587 811.5 667.208 811.5C667.829 811.5 668.359 811.711 668.8 812.134C669.25 812.557 669.475 813.065 669.475 813.659C669.475 814.253 669.25 814.761 668.8 815.184C668.359 815.607 667.829 815.818 667.208 815.818ZM677.791 827.531V840H674.606V819.273H677.683V822.511H677.953C678.439 821.459 679.176 820.613 680.166 819.974C681.155 819.327 682.433 819.003 683.998 819.003C685.402 819.003 686.63 819.291 687.682 819.866C688.735 820.433 689.553 821.297 690.138 822.457C690.723 823.609 691.015 825.066 691.015 826.83V840H687.831V827.045C687.831 825.417 687.408 824.149 686.562 823.24C685.717 822.322 684.556 821.864 683.081 821.864C682.064 821.864 681.155 822.084 680.355 822.525C679.563 822.966 678.938 823.609 678.479 824.455C678.02 825.3 677.791 826.326 677.791 827.531ZM705.525 840.432C703.528 840.432 701.805 839.991 700.357 839.109C698.917 838.219 697.806 836.977 697.024 835.385C696.25 833.784 695.863 831.921 695.863 829.798C695.863 827.675 696.25 825.804 697.024 824.185C697.806 822.556 698.895 821.288 700.289 820.379C701.693 819.462 703.33 819.003 705.201 819.003C706.281 819.003 707.347 819.183 708.399 819.543C709.452 819.902 710.41 820.487 711.274 821.297C712.137 822.098 712.825 823.159 713.338 824.482C713.851 825.804 714.107 827.432 714.107 829.366V830.716H698.13V827.963H710.869C710.869 826.794 710.635 825.75 710.167 824.832C709.708 823.915 709.052 823.191 708.197 822.66C707.351 822.129 706.353 821.864 705.201 821.864C703.933 821.864 702.835 822.179 701.909 822.808C700.991 823.429 700.285 824.239 699.79 825.237C699.295 826.236 699.048 827.306 699.048 828.449V830.284C699.048 831.849 699.318 833.176 699.857 834.265C700.406 835.344 701.166 836.168 702.138 836.734C703.11 837.292 704.239 837.571 705.525 837.571C706.362 837.571 707.117 837.454 707.792 837.22C708.476 836.977 709.065 836.617 709.56 836.141C710.055 835.655 710.437 835.052 710.707 834.332L713.784 835.196C713.46 836.24 712.915 837.157 712.151 837.949C711.386 838.732 710.441 839.343 709.317 839.784C708.192 840.216 706.928 840.432 705.525 840.432Z" fill="black"/>
<rect x="839" y="782" width="224" height="87" rx="9" fill="#FED0AB"/>
<path d="M890.275 839H884.931L894.661 811.364H900.841L910.584 839H905.24L897.859 817.031H897.643L890.275 839ZM890.45 828.164H905.024V832.185H890.45V828.164ZM922.418 839.405C920.349 839.405 918.572 838.951 917.088 838.042C915.613 837.133 914.475 835.878 913.674 834.277C912.882 832.667 912.487 830.813 912.487 828.717C912.487 826.612 912.891 824.754 913.701 823.144C914.511 821.525 915.653 820.265 917.129 819.366C918.613 818.457 920.367 818.003 922.391 818.003C924.074 818.003 925.563 818.313 926.858 818.934C928.162 819.546 929.201 820.414 929.975 821.538C930.749 822.654 931.19 823.958 931.298 825.452H926.629C926.44 824.453 925.99 823.621 925.279 822.955C924.577 822.281 923.637 821.943 922.459 821.943C921.46 821.943 920.583 822.213 919.827 822.753C919.072 823.284 918.482 824.048 918.06 825.047C917.646 826.045 917.439 827.242 917.439 828.636C917.439 830.049 917.646 831.263 918.06 832.28C918.473 833.287 919.054 834.066 919.8 834.614C920.556 835.154 921.442 835.424 922.459 835.424C923.179 835.424 923.822 835.289 924.388 835.019C924.964 834.74 925.446 834.34 925.832 833.818C926.219 833.296 926.485 832.662 926.629 831.915H931.298C931.181 833.382 930.749 834.682 930.002 835.815C929.255 836.94 928.239 837.821 926.952 838.46C925.666 839.09 924.155 839.405 922.418 839.405ZM944.35 839.405C942.281 839.405 940.504 838.951 939.02 838.042C937.544 837.133 936.406 835.878 935.606 834.277C934.814 832.667 934.418 830.813 934.418 828.717C934.418 826.612 934.823 824.754 935.633 823.144C936.442 821.525 937.585 820.265 939.06 819.366C940.545 818.457 942.299 818.003 944.323 818.003C946.005 818.003 947.494 818.313 948.79 818.934C950.094 819.546 951.133 820.414 951.907 821.538C952.68 822.654 953.121 823.958 953.229 825.452H948.56C948.371 824.453 947.921 823.621 947.211 822.955C946.509 822.281 945.569 821.943 944.39 821.943C943.392 821.943 942.515 822.213 941.759 822.753C941.003 823.284 940.414 824.048 939.991 825.047C939.577 826.045 939.371 827.242 939.371 828.636C939.371 830.049 939.577 831.263 939.991 832.28C940.405 833.287 940.985 834.066 941.732 834.614C942.488 835.154 943.374 835.424 944.39 835.424C945.11 835.424 945.753 835.289 946.32 835.019C946.896 834.74 947.377 834.34 947.764 833.818C948.151 833.296 948.416 832.662 948.56 831.915H953.229C953.112 833.382 952.68 834.682 951.934 835.815C951.187 836.94 950.171 837.821 948.884 838.46C947.598 839.09 946.086 839.405 944.35 839.405ZM966.417 839.405C964.338 839.405 962.544 838.973 961.032 838.109C959.53 837.237 958.374 836.004 957.564 834.412C956.755 832.811 956.35 830.926 956.35 828.758C956.35 826.626 956.755 824.754 957.564 823.144C958.383 821.525 959.525 820.265 960.992 819.366C962.458 818.457 964.181 818.003 966.16 818.003C967.438 818.003 968.643 818.21 969.777 818.624C970.919 819.028 971.927 819.658 972.799 820.513C973.681 821.367 974.374 822.456 974.877 823.778C975.381 825.092 975.633 826.657 975.633 828.474V829.972H958.644V826.68H970.951C970.942 825.744 970.739 824.912 970.343 824.183C969.948 823.446 969.394 822.865 968.684 822.442C967.982 822.02 967.163 821.808 966.228 821.808C965.229 821.808 964.352 822.051 963.596 822.537C962.841 823.014 962.251 823.643 961.828 824.426C961.415 825.2 961.203 826.05 961.194 826.977V829.851C961.194 831.056 961.415 832.091 961.855 832.955C962.296 833.809 962.913 834.466 963.704 834.925C964.496 835.375 965.422 835.599 966.484 835.599C967.195 835.599 967.838 835.5 968.414 835.303C968.989 835.096 969.489 834.794 969.912 834.398C970.334 834.003 970.654 833.512 970.87 832.928L975.431 833.44C975.143 834.646 974.594 835.698 973.784 836.598C972.984 837.489 971.958 838.181 970.708 838.676C969.457 839.162 968.027 839.405 966.417 839.405ZM979.766 846.773V818.273H984.57V821.7H984.853C985.105 821.196 985.46 820.661 985.919 820.094C986.378 819.519 986.999 819.028 987.781 818.624C988.564 818.21 989.563 818.003 990.777 818.003C992.378 818.003 993.822 818.412 995.109 819.231C996.404 820.04 997.43 821.241 998.186 822.834C998.95 824.417 999.333 826.36 999.333 828.663C999.333 830.939 998.959 832.874 998.213 834.466C997.466 836.058 996.449 837.273 995.163 838.109C993.876 838.946 992.419 839.364 990.791 839.364C989.603 839.364 988.618 839.166 987.835 838.771C987.053 838.375 986.423 837.898 985.946 837.34C985.478 836.773 985.114 836.238 984.853 835.734H984.651V846.773H979.766ZM984.556 828.636C984.556 829.977 984.745 831.151 985.123 832.158C985.51 833.166 986.063 833.953 986.783 834.52C987.512 835.078 988.393 835.357 989.428 835.357C990.507 835.357 991.411 835.069 992.14 834.493C992.869 833.908 993.418 833.112 993.786 832.104C994.164 831.088 994.353 829.932 994.353 828.636C994.353 827.35 994.169 826.207 993.8 825.209C993.431 824.21 992.882 823.428 992.154 822.861C991.425 822.294 990.516 822.011 989.428 822.011C988.384 822.011 987.498 822.285 986.769 822.834C986.041 823.383 985.487 824.152 985.11 825.141C984.741 826.131 984.556 827.296 984.556 828.636ZM1013.87 818.273V822.051H1001.95V818.273H1013.87ZM1004.89 813.307H1009.78V832.766C1009.78 833.422 1009.88 833.926 1010.07 834.277C1010.28 834.619 1010.55 834.853 1010.88 834.979C1011.22 835.105 1011.59 835.168 1011.99 835.168C1012.3 835.168 1012.57 835.145 1012.83 835.1C1013.09 835.055 1013.29 835.015 1013.42 834.979L1014.24 838.798C1013.98 838.888 1013.61 838.987 1013.12 839.094C1012.65 839.202 1012.06 839.265 1011.37 839.283C1010.15 839.319 1009.04 839.135 1008.06 838.73C1007.08 838.316 1006.3 837.678 1005.73 836.814C1005.16 835.95 1004.88 834.871 1004.89 833.575V813.307Z" fill="black"/>
<circle cx="787.5" cy="301.5" r="84.5" fill="#FED0AB"/>
<mask id="mask1_44_843" style="mask-type:alpha" maskUnits="userSpaceOnUse" x="703" y="217" width="169" height="169">
<circle cx="787.5" cy="301.5" r="84.5" fill="#BFBDF4"/>
</mask>
<g mask="url(#mask1_44_843)">
<path d="M785.216 257.358C756.549 257.358 740.93 277.298 740.93 303.663V385.858H829.501V303.663C829.501 264.448 805.579 265.113 805.579 265.113C805.579 265.113 803.8 257.358 785.216 257.358Z" fill="#231F20"/>
<path d="M849.273 289.926H834.643C834.643 289.926 850.46 361.709 804.988 361.709V345.979H765.645V361.709C740.735 362.374 735.792 367.026 735.792 390.289H834.643C859.159 357.057 856.588 328.255 849.273 289.926Z" fill="#C28FEF"/>
<path d="M820.014 278.184C821.003 275.969 824.364 275.969 827.725 279.957C829.702 282.394 830.493 283.28 832.074 283.501L831.481 263.34C831.481 261.789 832.667 260.238 834.051 260.238C835.435 260.238 836.621 261.568 836.819 263.34V261.125C836.819 259.131 838.203 257.358 839.785 257.358C841.564 257.358 842.948 258.909 842.948 260.903V262.454C842.948 260.681 844.134 259.131 845.518 259.131C847.1 259.131 848.286 260.46 848.286 262.232V265.777C848.286 264.226 849.274 262.675 850.658 262.675C852.042 262.675 853.228 264.005 853.228 265.556L853.624 281.064V281.507C853.624 281.507 854.81 289.705 853.031 294.8C850.263 302.555 834.842 305.213 829.504 292.142C828.516 289.483 826.341 287.711 824.562 285.274C822.782 282.837 819.026 280.621 820.014 278.184ZM752.202 326.039C752.202 326.039 745.48 324.045 745.48 313.189C745.48 304.549 750.423 302.998 750.423 302.998C768.414 302.998 801.628 277.076 801.628 277.076C801.628 277.076 808.548 299.896 819.224 302.998C819.224 302.998 824.364 304.106 824.364 313.189C824.364 324.045 817.444 326.039 817.444 326.039C817.444 342.434 797.081 362.374 784.823 362.374C772.961 362.374 752.202 342.434 752.202 326.039Z" fill="#B47D56"/>
<path d="M785.218 336.674C778.891 336.674 775.728 331.578 778.891 331.578H791.544C794.708 331.578 791.544 336.674 785.218 336.674Z" fill="#935E3E"/>
<path d="M794.707 321.608C792.533 321.608 792.73 318.507 792.73 318.507C796.091 299.01 815.466 309.423 815.466 309.423C817.048 312.746 811.907 321.165 810.524 321.608C804.197 323.381 794.707 321.608 794.707 321.608Z" fill="#F5F5F5"/>
<path d="M803.406 321.387C807.228 321.387 810.326 317.915 810.326 313.632C810.326 309.35 807.228 305.878 803.406 305.878C799.585 305.878 796.487 309.35 796.487 313.632C796.487 317.915 799.585 321.387 803.406 321.387Z" fill="#664E27"/>
<path d="M803.407 316.291C804.717 316.291 805.78 315.101 805.78 313.632C805.78 312.164 804.717 310.974 803.407 310.974C802.097 310.974 801.035 312.164 801.035 313.632C801.035 315.101 802.097 316.291 803.407 316.291Z" fill="#2B2925"/>
<path d="M792.73 318.507C796.091 295.244 813.292 310.752 820.013 307.429C813.292 314.74 799.65 299.01 792.73 318.507Z" fill="#3B3226"/>
<path d="M775.728 321.608C777.903 321.608 777.705 318.507 777.705 318.507C774.344 299.01 754.969 309.423 754.969 309.423C753.388 312.746 758.528 321.165 759.912 321.608C766.041 323.381 775.728 321.608 775.728 321.608Z" fill="#F5F5F5"/>
<path d="M766.832 321.387C770.653 321.387 773.751 317.915 773.751 313.632C773.751 309.35 770.653 305.878 766.832 305.878C763.01 305.878 759.912 309.35 759.912 313.632C759.912 317.915 763.01 321.387 766.832 321.387Z" fill="#664E27"/>
<path d="M777.508 318.507C774.147 295.244 756.947 310.752 750.225 307.429C756.947 314.74 770.786 299.01 777.508 318.507Z" fill="#3B3226"/>
<path d="M785.218 345.314L769.995 342.656C779.089 357.278 791.347 357.278 800.441 342.656L785.218 345.314Z" fill="#935E3E"/>
<path d="M791.149 341.991C786.602 339.997 785.218 343.099 785.218 343.099C785.218 343.099 783.636 339.997 779.287 341.991C775.728 343.542 769.995 342.656 769.995 342.656C776.123 344.207 776.914 346.865 785.218 346.865C793.521 346.865 794.312 343.985 800.441 342.656C800.441 342.656 794.707 343.542 791.149 341.991Z" fill="#734C31"/>
<path d="M766.829 316.291C768.139 316.291 769.201 315.101 769.201 313.632C769.201 312.164 768.139 310.974 766.829 310.974C765.519 310.974 764.457 312.164 764.457 313.632C764.457 315.101 765.519 316.291 766.829 316.291Z" fill="#2B2925"/>
</g>
<path d="M552.082 457.182V479H548.566L538.286 464.138H538.104V479H534.152V457.182H537.689L547.959 472.054H548.151V457.182H552.082ZM560.927 479.33C559.89 479.33 558.956 479.146 558.125 478.776C557.301 478.4 556.648 477.846 556.165 477.114C555.689 476.383 555.451 475.481 555.451 474.408C555.451 473.485 555.621 472.722 555.962 472.118C556.303 471.514 556.768 471.031 557.358 470.669C557.947 470.307 558.611 470.033 559.35 469.849C560.096 469.657 560.866 469.518 561.662 469.433C562.621 469.334 563.398 469.245 563.995 469.167C564.591 469.082 565.025 468.954 565.295 468.783C565.572 468.606 565.71 468.332 565.71 467.963V467.899C565.71 467.097 565.472 466.475 564.996 466.035C564.52 465.594 563.835 465.374 562.94 465.374C561.996 465.374 561.246 465.58 560.692 465.992C560.145 466.404 559.776 466.891 559.584 467.452L555.983 466.94C556.268 465.946 556.736 465.115 557.39 464.447C558.043 463.773 558.842 463.268 559.787 462.935C560.731 462.594 561.775 462.423 562.919 462.423C563.707 462.423 564.492 462.516 565.273 462.7C566.055 462.885 566.768 463.19 567.415 463.616C568.061 464.036 568.579 464.607 568.97 465.332C569.368 466.056 569.567 466.962 569.567 468.048V479H565.859V476.752H565.731C565.497 477.207 565.167 477.633 564.741 478.031C564.322 478.421 563.792 478.737 563.153 478.979C562.521 479.213 561.779 479.33 560.927 479.33ZM561.928 476.496C562.702 476.496 563.373 476.344 563.942 476.038C564.51 475.726 564.947 475.314 565.252 474.803C565.564 474.291 565.721 473.734 565.721 473.13V471.202C565.6 471.301 565.394 471.393 565.103 471.479C564.819 471.564 564.499 471.638 564.144 471.702C563.789 471.766 563.437 471.823 563.089 471.873C562.741 471.923 562.439 471.965 562.184 472.001C561.608 472.079 561.094 472.207 560.639 472.384C560.184 472.562 559.826 472.81 559.563 473.13C559.3 473.442 559.169 473.847 559.169 474.344C559.169 475.055 559.428 475.591 559.947 475.953C560.465 476.315 561.126 476.496 561.928 476.496ZM573.444 479V462.636H577.131V465.417H577.322C577.663 464.479 578.228 463.748 579.016 463.222C579.805 462.69 580.746 462.423 581.839 462.423C582.947 462.423 583.881 462.693 584.641 463.233C585.408 463.766 585.948 464.494 586.26 465.417H586.431C586.793 464.508 587.404 463.783 588.263 463.244C589.13 462.697 590.156 462.423 591.342 462.423C592.848 462.423 594.077 462.899 595.028 463.851C595.98 464.803 596.456 466.191 596.456 468.016V479H592.589V468.613C592.589 467.597 592.319 466.855 591.779 466.386C591.239 465.911 590.579 465.673 589.797 465.673C588.867 465.673 588.139 465.964 587.613 466.546C587.095 467.121 586.836 467.871 586.836 468.794V479H583.054V468.453C583.054 467.608 582.798 466.933 582.287 466.429C581.782 465.925 581.122 465.673 580.305 465.673C579.751 465.673 579.247 465.815 578.792 466.099C578.338 466.376 577.976 466.77 577.706 467.281C577.436 467.786 577.301 468.375 577.301 469.05V479H573.444ZM607.613 479.32C605.972 479.32 604.555 478.979 603.362 478.297C602.176 477.608 601.263 476.635 600.624 475.378C599.985 474.114 599.665 472.626 599.665 470.914C599.665 469.231 599.985 467.754 600.624 466.482C601.27 465.204 602.172 464.21 603.33 463.499C604.488 462.782 605.848 462.423 607.41 462.423C608.419 462.423 609.37 462.587 610.265 462.913C611.167 463.233 611.963 463.73 612.652 464.405C613.348 465.08 613.895 465.939 614.292 466.983C614.69 468.02 614.889 469.256 614.889 470.69V471.873H601.476V469.273H611.192C611.185 468.535 611.025 467.878 610.713 467.303C610.4 466.72 609.963 466.262 609.402 465.928C608.848 465.594 608.202 465.428 607.463 465.428C606.675 465.428 605.983 465.619 605.386 466.003C604.789 466.379 604.324 466.876 603.99 467.494C603.664 468.105 603.497 468.776 603.49 469.508V471.777C603.49 472.729 603.664 473.545 604.012 474.227C604.36 474.902 604.846 475.42 605.471 475.783C606.096 476.138 606.828 476.315 607.666 476.315C608.227 476.315 608.735 476.237 609.189 476.081C609.644 475.918 610.038 475.68 610.372 475.367C610.706 475.055 610.958 474.668 611.128 474.206L614.729 474.611C614.502 475.562 614.069 476.393 613.429 477.104C612.797 477.807 611.988 478.354 611 478.744C610.013 479.128 608.884 479.32 607.613 479.32ZM620.527 479.234C619.881 479.234 619.327 479.007 618.865 478.553C618.404 478.098 618.176 477.544 618.183 476.891C618.176 476.251 618.404 475.705 618.865 475.25C619.327 474.795 619.881 474.568 620.527 474.568C621.152 474.568 621.695 474.795 622.157 475.25C622.626 475.705 622.864 476.251 622.871 476.891C622.864 477.324 622.75 477.718 622.53 478.073C622.317 478.428 622.033 478.712 621.678 478.925C621.33 479.131 620.946 479.234 620.527 479.234ZM620.527 467.558C619.881 467.558 619.327 467.331 618.865 466.876C618.404 466.415 618.176 465.861 618.183 465.214C618.176 464.575 618.404 464.028 618.865 463.574C619.327 463.112 619.881 462.881 620.527 462.881C621.152 462.881 621.695 463.112 622.157 463.574C622.626 464.028 622.864 464.575 622.871 465.214C622.864 465.641 622.75 466.031 622.53 466.386C622.317 466.741 622.033 467.026 621.678 467.239C621.33 467.452 620.946 467.558 620.527 467.558ZM644.676 479H642.588L650.525 457.182H652.655L660.592 479H658.504L651.664 459.771H651.515L644.676 479ZM646.178 470.637H657.002V472.427H646.178V470.637ZM665.833 468.773V479H663.937V462.636H665.78V465.204H665.951C666.334 464.366 666.931 463.695 667.74 463.19C668.557 462.679 669.566 462.423 670.766 462.423C671.867 462.423 672.833 462.654 673.664 463.116C674.502 463.57 675.152 464.241 675.613 465.129C676.082 466.017 676.316 467.107 676.316 468.4V479H674.42V468.517C674.42 467.175 674.044 466.113 673.291 465.332C672.545 464.55 671.544 464.16 670.287 464.16C669.427 464.16 668.664 464.344 667.996 464.714C667.328 465.083 666.799 465.616 666.409 466.312C666.025 467.001 665.833 467.821 665.833 468.773ZM683.206 468.773V479H681.31V462.636H683.153V465.204H683.324C683.707 464.366 684.304 463.695 685.113 463.19C685.93 462.679 686.939 462.423 688.139 462.423C689.24 462.423 690.206 462.654 691.037 463.116C691.875 463.57 692.525 464.241 692.986 465.129C693.455 466.017 693.689 467.107 693.689 468.4V479H691.793V468.517C691.793 467.175 691.417 466.113 690.664 465.332C689.918 464.55 688.917 464.16 687.66 464.16C686.8 464.16 686.037 464.344 685.369 464.714C684.702 465.083 684.172 465.616 683.782 466.312C683.398 467.001 683.206 467.821 683.206 468.773ZM709.081 472.746V462.636H710.977V479H709.081V476.283H708.932C708.548 477.121 707.941 477.821 707.11 478.382C706.279 478.936 705.263 479.213 704.063 479.213C703.019 479.213 702.092 478.986 701.283 478.531C700.473 478.07 699.837 477.395 699.376 476.507C698.914 475.619 698.683 474.529 698.683 473.237V462.636H700.58V473.119C700.58 474.398 700.956 475.428 701.709 476.209C702.462 476.983 703.428 477.37 704.607 477.37C705.345 477.37 706.055 477.192 706.737 476.837C707.419 476.482 707.98 475.964 708.42 475.282C708.861 474.593 709.081 473.748 709.081 472.746ZM534.152 551V529.182H542.334C544.01 529.182 545.416 529.494 546.553 530.119C547.696 530.744 548.559 531.604 549.141 532.697C549.731 533.784 550.026 535.02 550.026 536.405C550.026 537.804 549.731 539.047 549.141 540.134C548.552 541.22 547.682 542.076 546.531 542.701C545.381 543.319 543.964 543.628 542.281 543.628H536.858V540.379H541.748C542.728 540.379 543.531 540.208 544.156 539.867C544.781 539.526 545.242 539.058 545.54 538.461C545.846 537.864 545.999 537.179 545.999 536.405C545.999 535.631 545.846 534.949 545.54 534.359C545.242 533.77 544.777 533.312 544.145 532.985C543.52 532.651 542.714 532.484 541.727 532.484H538.104V551H534.152ZM557.145 541.412V551H553.288V529.182H557.059V537.417H557.251C557.635 536.494 558.228 535.766 559.03 535.233C559.84 534.693 560.87 534.423 562.12 534.423C563.256 534.423 564.247 534.661 565.092 535.137C565.937 535.613 566.591 536.309 567.052 537.225C567.521 538.141 567.756 539.26 567.756 540.581V551H563.899V541.178C563.899 540.077 563.615 539.221 563.047 538.61C562.486 537.992 561.697 537.683 560.682 537.683C560 537.683 559.389 537.832 558.849 538.131C558.317 538.422 557.898 538.844 557.592 539.398C557.294 539.952 557.145 540.624 557.145 541.412ZM578.824 551.32C577.226 551.32 575.841 550.968 574.67 550.265C573.498 549.562 572.589 548.578 571.942 547.314C571.303 546.05 570.983 544.572 570.983 542.882C570.983 541.192 571.303 539.711 571.942 538.44C572.589 537.168 573.498 536.181 574.67 535.478C575.841 534.775 577.226 534.423 578.824 534.423C580.422 534.423 581.807 534.775 582.979 535.478C584.151 536.181 585.057 537.168 585.696 538.44C586.342 539.711 586.665 541.192 586.665 542.882C586.665 544.572 586.342 546.05 585.696 547.314C585.057 548.578 584.151 549.562 582.979 550.265C581.807 550.968 580.422 551.32 578.824 551.32ZM578.846 548.23C579.712 548.23 580.437 547.992 581.019 547.516C581.601 547.033 582.035 546.387 582.319 545.577C582.61 544.768 582.756 543.866 582.756 542.871C582.756 541.87 582.61 540.964 582.319 540.155C582.035 539.338 581.601 538.688 581.019 538.205C580.437 537.722 579.712 537.481 578.846 537.481C577.958 537.481 577.219 537.722 576.63 538.205C576.047 538.688 575.611 539.338 575.319 540.155C575.035 540.964 574.893 541.87 574.893 542.871C574.893 543.866 575.035 544.768 575.319 545.577C575.611 546.387 576.047 547.033 576.63 547.516C577.219 547.992 577.958 548.23 578.846 548.23ZM593.795 541.412V551H589.939V534.636H593.625V537.417H593.816C594.193 536.501 594.793 535.773 595.617 535.233C596.448 534.693 597.474 534.423 598.696 534.423C599.825 534.423 600.809 534.665 601.647 535.148C602.492 535.631 603.145 536.33 603.607 537.246C604.076 538.163 604.306 539.274 604.299 540.581V551H600.443V541.178C600.443 540.084 600.159 539.228 599.591 538.61C599.029 537.992 598.252 537.683 597.257 537.683C596.583 537.683 595.983 537.832 595.457 538.131C594.939 538.422 594.53 538.844 594.232 539.398C593.941 539.952 593.795 540.624 593.795 541.412ZM615.464 551.32C613.824 551.32 612.407 550.979 611.213 550.297C610.027 549.608 609.115 548.635 608.475 547.378C607.836 546.114 607.517 544.626 607.517 542.914C607.517 541.231 607.836 539.754 608.475 538.482C609.122 537.204 610.024 536.21 611.181 535.499C612.339 534.782 613.699 534.423 615.262 534.423C616.27 534.423 617.222 534.587 618.117 534.913C619.019 535.233 619.814 535.73 620.503 536.405C621.199 537.08 621.746 537.939 622.144 538.983C622.542 540.02 622.74 541.256 622.74 542.69V543.873H609.328V541.273H619.044C619.037 540.535 618.877 539.878 618.564 539.303C618.252 538.72 617.815 538.262 617.254 537.928C616.7 537.594 616.054 537.428 615.315 537.428C614.527 537.428 613.834 537.619 613.238 538.003C612.641 538.379 612.176 538.876 611.842 539.494C611.515 540.105 611.348 540.776 611.341 541.508V543.777C611.341 544.729 611.515 545.545 611.863 546.227C612.211 546.902 612.698 547.42 613.323 547.783C613.948 548.138 614.679 548.315 615.517 548.315C616.078 548.315 616.586 548.237 617.041 548.081C617.495 547.918 617.89 547.68 618.223 547.367C618.557 547.055 618.809 546.668 618.98 546.206L622.581 546.611C622.353 547.562 621.92 548.393 621.281 549.104C620.649 549.807 619.839 550.354 618.852 550.744C617.865 551.128 616.735 551.32 615.464 551.32ZM651.545 529.182V551H648.029L637.748 536.138H637.567V551H633.615V529.182H637.152L647.422 544.054H647.613V529.182H651.545ZM666.11 544.118V534.636H669.967V551H666.228V548.092H666.057C665.688 549.008 665.081 549.757 664.235 550.339C663.397 550.922 662.364 551.213 661.135 551.213C660.063 551.213 659.115 550.975 658.291 550.499C657.474 550.016 656.835 549.317 656.373 548.401C655.912 547.477 655.681 546.362 655.681 545.055V534.636H659.537V544.459C659.537 545.496 659.821 546.32 660.39 546.93C660.958 547.541 661.703 547.847 662.627 547.847C663.195 547.847 663.745 547.708 664.278 547.431C664.811 547.154 665.248 546.742 665.588 546.195C665.936 545.641 666.11 544.949 666.11 544.118ZM673.933 551V534.636H677.619V537.417H677.811C678.151 536.479 678.716 535.748 679.504 535.222C680.293 534.69 681.234 534.423 682.328 534.423C683.436 534.423 684.369 534.693 685.129 535.233C685.896 535.766 686.436 536.494 686.749 537.417H686.919C687.281 536.508 687.892 535.783 688.752 535.244C689.618 534.697 690.644 534.423 691.83 534.423C693.336 534.423 694.565 534.899 695.517 535.851C696.468 536.803 696.944 538.191 696.944 540.016V551H693.077V540.613C693.077 539.597 692.807 538.855 692.267 538.386C691.727 537.911 691.067 537.673 690.286 537.673C689.355 537.673 688.627 537.964 688.102 538.546C687.583 539.121 687.324 539.871 687.324 540.794V551H683.542V540.453C683.542 539.608 683.286 538.933 682.775 538.429C682.271 537.925 681.61 537.673 680.794 537.673C680.24 537.673 679.735 537.815 679.281 538.099C678.826 538.376 678.464 538.77 678.194 539.281C677.924 539.786 677.789 540.375 677.789 541.05V551H673.933ZM701.027 551V529.182H704.884V537.342H705.043C705.242 536.945 705.523 536.522 705.885 536.075C706.247 535.62 706.737 535.233 707.355 534.913C707.973 534.587 708.761 534.423 709.72 534.423C710.984 534.423 712.124 534.746 713.14 535.393C714.163 536.032 714.972 536.98 715.569 538.237C716.173 539.487 716.474 541.021 716.474 542.839C716.474 544.636 716.18 546.163 715.59 547.42C715.001 548.678 714.198 549.636 713.183 550.297C712.167 550.957 711.016 551.288 709.731 551.288C708.793 551.288 708.016 551.131 707.398 550.819C706.78 550.506 706.283 550.13 705.906 549.69C705.537 549.242 705.249 548.82 705.043 548.422H704.82V551H701.027ZM704.809 542.818C704.809 543.876 704.958 544.803 705.256 545.599C705.562 546.394 705.999 547.016 706.567 547.463C707.142 547.903 707.838 548.124 708.655 548.124C709.507 548.124 710.221 547.896 710.796 547.442C711.371 546.98 711.805 546.352 712.096 545.556C712.394 544.754 712.543 543.841 712.543 542.818C712.543 541.803 712.398 540.901 712.107 540.112C711.815 539.324 711.382 538.706 710.807 538.259C710.232 537.811 709.514 537.587 708.655 537.587C707.831 537.587 707.131 537.804 706.556 538.237C705.981 538.67 705.544 539.278 705.246 540.059C704.955 540.84 704.809 541.76 704.809 542.818ZM726.997 551.32C725.357 551.32 723.94 550.979 722.747 550.297C721.561 549.608 720.648 548.635 720.009 547.378C719.369 546.114 719.05 544.626 719.05 542.914C719.05 541.231 719.369 539.754 720.009 538.482C720.655 537.204 721.557 536.21 722.715 535.499C723.872 534.782 725.232 534.423 726.795 534.423C727.803 534.423 728.755 534.587 729.65 534.913C730.552 535.233 731.347 535.73 732.036 536.405C732.732 537.08 733.279 537.939 733.677 538.983C734.075 540.02 734.274 541.256 734.274 542.69V543.873H720.861V541.273H730.577C730.57 540.535 730.41 539.878 730.097 539.303C729.785 538.72 729.348 538.262 728.787 537.928C728.233 537.594 727.587 537.428 726.848 537.428C726.06 537.428 725.367 537.619 724.771 538.003C724.174 538.379 723.709 538.876 723.375 539.494C723.048 540.105 722.882 540.776 722.874 541.508V543.777C722.874 544.729 723.048 545.545 723.396 546.227C723.744 546.902 724.231 547.42 724.856 547.783C725.481 548.138 726.213 548.315 727.051 548.315C727.612 548.315 728.119 548.237 728.574 548.081C729.029 547.918 729.423 547.68 729.757 547.367C730.09 547.055 730.343 546.668 730.513 546.206L734.114 546.611C733.887 547.562 733.453 548.393 732.814 549.104C732.182 549.807 731.372 550.354 730.385 550.744C729.398 551.128 728.269 551.32 726.997 551.32ZM737.536 551V534.636H741.276V537.364H741.446C741.744 536.419 742.256 535.691 742.98 535.18C743.712 534.661 744.546 534.402 745.484 534.402C745.697 534.402 745.935 534.413 746.197 534.434C746.467 534.448 746.691 534.473 746.869 534.509V538.056C746.705 537.999 746.446 537.95 746.091 537.907C745.743 537.857 745.406 537.832 745.079 537.832C744.376 537.832 743.744 537.985 743.183 538.29C742.629 538.589 742.192 539.004 741.872 539.537C741.553 540.07 741.393 540.684 741.393 541.38V551H737.536ZM751.806 551.234C751.16 551.234 750.606 551.007 750.145 550.553C749.683 550.098 749.456 549.544 749.463 548.891C749.456 548.251 749.683 547.705 750.145 547.25C750.606 546.795 751.16 546.568 751.806 546.568C752.431 546.568 752.975 546.795 753.436 547.25C753.905 547.705 754.143 548.251 754.15 548.891C754.143 549.324 754.029 549.718 753.809 550.073C753.596 550.428 753.312 550.712 752.957 550.925C752.609 551.131 752.225 551.234 751.806 551.234ZM751.806 539.558C751.16 539.558 750.606 539.331 750.145 538.876C749.683 538.415 749.456 537.861 749.463 537.214C749.456 536.575 749.683 536.028 750.145 535.574C750.606 535.112 751.16 534.881 751.806 534.881C752.431 534.881 752.975 535.112 753.436 535.574C753.905 536.028 754.143 536.575 754.15 537.214C754.143 537.641 754.029 538.031 753.809 538.386C753.596 538.741 753.312 539.026 752.957 539.239C752.609 539.452 752.225 539.558 751.806 539.558ZM772.754 529.182V551H770.762V531.27H770.634L765.52 534.668V532.602L770.676 529.182H772.754ZM779.38 551V549.54L786.507 541.529C787.438 540.478 788.187 539.58 788.755 538.834C789.323 538.088 789.735 537.399 789.991 536.767C790.254 536.135 790.385 535.478 790.385 534.796C790.385 533.965 790.19 533.241 789.799 532.623C789.416 531.998 788.887 531.511 788.212 531.163C787.537 530.815 786.777 530.641 785.932 530.641C785.037 530.641 784.252 530.833 783.578 531.217C782.91 531.6 782.392 532.126 782.022 532.793C781.653 533.461 781.468 534.228 781.468 535.094H779.561C779.561 533.887 779.838 532.818 780.392 531.888C780.953 530.95 781.717 530.215 782.683 529.683C783.656 529.15 784.757 528.884 785.985 528.884C787.2 528.884 788.279 529.146 789.224 529.672C790.169 530.19 790.911 530.897 791.45 531.792C791.99 532.687 792.26 533.688 792.26 534.796C792.26 535.599 792.118 536.376 791.834 537.129C791.557 537.882 791.078 538.72 790.396 539.643C789.714 540.567 788.769 541.696 787.562 543.031L782.15 549.072V549.21H792.942V551H779.38ZM804.775 551.298C803.433 551.298 802.233 551.057 801.174 550.574C800.116 550.084 799.278 549.406 798.66 548.539C798.042 547.673 797.716 546.675 797.68 545.545H799.694C799.729 546.341 799.974 547.037 800.429 547.634C800.883 548.223 801.487 548.685 802.24 549.018C802.993 549.345 803.831 549.509 804.754 549.509C805.762 549.509 806.65 549.32 807.417 548.944C808.191 548.567 808.795 548.053 809.228 547.399C809.669 546.739 809.889 545.993 809.889 545.162C809.889 544.281 809.665 543.504 809.218 542.829C808.77 542.154 808.127 541.629 807.289 541.252C806.458 540.876 805.464 540.688 804.306 540.688H803.028V538.898H804.306C805.251 538.898 806.086 538.727 806.81 538.386C807.542 538.038 808.117 537.552 808.536 536.927C808.955 536.302 809.164 535.567 809.164 534.722C809.164 533.919 808.983 533.212 808.621 532.602C808.259 531.991 807.748 531.511 807.087 531.163C806.434 530.815 805.67 530.641 804.797 530.641C803.951 530.641 803.177 530.805 802.474 531.131C801.771 531.458 801.203 531.92 800.77 532.516C800.343 533.113 800.116 533.82 800.088 534.636H798.159C798.188 533.5 798.5 532.502 799.097 531.643C799.701 530.776 800.5 530.102 801.494 529.619C802.495 529.129 803.603 528.884 804.818 528.884C806.103 528.884 807.215 529.146 808.152 529.672C809.09 530.197 809.814 530.897 810.326 531.771C810.844 532.637 811.103 533.592 811.103 534.636C811.103 535.879 810.766 536.945 810.091 537.832C809.417 538.713 808.507 539.324 807.364 539.665V539.803C808.756 540.08 809.85 540.698 810.645 541.657C811.448 542.609 811.849 543.777 811.849 545.162C811.849 546.327 811.544 547.374 810.933 548.305C810.322 549.228 809.484 549.96 808.419 550.499C807.36 551.032 806.146 551.298 804.775 551.298ZM816.036 546.312V544.693L825.762 529.182H826.956V531.898H826.071L818.262 544.384V544.523H831.015V546.312H816.036ZM826.221 551V545.801V545.055V529.182H828.117V551H826.221ZM536.954 623H532.735L540.416 601.182H545.295L552.987 623H548.768L542.941 605.656H542.771L536.954 623ZM537.092 614.445H548.598V617.62H537.092V614.445ZM561.265 623.288C559.979 623.288 558.829 622.957 557.813 622.297C556.798 621.636 555.995 620.678 555.406 619.42C554.816 618.163 554.521 616.636 554.521 614.839C554.521 613.021 554.82 611.487 555.416 610.237C556.02 608.98 556.833 608.032 557.856 607.393C558.879 606.746 560.018 606.423 561.276 606.423C562.234 606.423 563.023 606.587 563.641 606.913C564.259 607.233 564.749 607.62 565.111 608.075C565.473 608.522 565.754 608.945 565.952 609.342H566.112V601.182H569.979V623H566.187V620.422H565.952C565.754 620.82 565.466 621.242 565.089 621.69C564.713 622.13 564.216 622.506 563.598 622.819C562.98 623.131 562.202 623.288 561.265 623.288ZM562.341 620.124C563.158 620.124 563.854 619.903 564.429 619.463C565.004 619.016 565.441 618.394 565.739 617.599C566.038 616.803 566.187 615.876 566.187 614.818C566.187 613.76 566.038 612.84 565.739 612.059C565.448 611.278 565.015 610.67 564.44 610.237C563.871 609.804 563.172 609.587 562.341 609.587C561.482 609.587 560.764 609.811 560.189 610.259C559.614 610.706 559.18 611.324 558.889 612.112C558.598 612.901 558.452 613.803 558.452 614.818C558.452 615.841 558.598 616.754 558.889 617.556C559.188 618.352 559.624 618.98 560.2 619.442C560.782 619.896 561.496 620.124 562.341 620.124ZM580.161 623.288C578.876 623.288 577.725 622.957 576.71 622.297C575.694 621.636 574.892 620.678 574.302 619.42C573.713 618.163 573.418 616.636 573.418 614.839C573.418 613.021 573.716 611.487 574.313 610.237C574.916 608.98 575.73 608.032 576.752 607.393C577.775 606.746 578.915 606.423 580.172 606.423C581.131 606.423 581.919 606.587 582.537 606.913C583.155 607.233 583.645 607.62 584.007 608.075C584.369 608.522 584.65 608.945 584.849 609.342H585.009V601.182H588.876V623H585.083V620.422H584.849C584.65 620.82 584.362 621.242 583.986 621.69C583.61 622.13 583.112 622.506 582.494 622.819C581.877 623.131 581.099 623.288 580.161 623.288ZM581.237 620.124C582.054 620.124 582.75 619.903 583.325 619.463C583.901 619.016 584.338 618.394 584.636 617.599C584.934 616.803 585.083 615.876 585.083 614.818C585.083 613.76 584.934 612.84 584.636 612.059C584.345 611.278 583.911 610.67 583.336 610.237C582.768 609.804 582.068 609.587 581.237 609.587C580.378 609.587 579.661 609.811 579.085 610.259C578.51 610.706 578.077 611.324 577.786 612.112C577.494 612.901 577.349 613.803 577.349 614.818C577.349 615.841 577.494 616.754 577.786 617.556C578.084 618.352 578.521 618.98 579.096 619.442C579.678 619.896 580.392 620.124 581.237 620.124ZM592.985 623V606.636H596.725V609.364H596.895C597.194 608.419 597.705 607.691 598.429 607.18C599.161 606.661 599.995 606.402 600.933 606.402C601.146 606.402 601.384 606.413 601.647 606.434C601.917 606.448 602.14 606.473 602.318 606.509V610.056C602.154 609.999 601.895 609.95 601.54 609.907C601.192 609.857 600.855 609.832 600.528 609.832C599.825 609.832 599.193 609.985 598.632 610.29C598.078 610.589 597.641 611.004 597.321 611.537C597.002 612.07 596.842 612.684 596.842 613.38V623H592.985ZM611.45 623.32C609.81 623.32 608.393 622.979 607.2 622.297C606.014 621.608 605.101 620.635 604.462 619.378C603.823 618.114 603.503 616.626 603.503 614.914C603.503 613.231 603.823 611.754 604.462 610.482C605.108 609.204 606.01 608.21 607.168 607.499C608.325 606.782 609.686 606.423 611.248 606.423C612.257 606.423 613.208 606.587 614.103 606.913C615.005 607.233 615.801 607.73 616.49 608.405C617.186 609.08 617.732 609.939 618.13 610.983C618.528 612.02 618.727 613.256 618.727 614.69V615.873H605.314V613.273H615.03C615.023 612.535 614.863 611.878 614.551 611.303C614.238 610.72 613.801 610.262 613.24 609.928C612.686 609.594 612.04 609.428 611.301 609.428C610.513 609.428 609.82 609.619 609.224 610.003C608.627 610.379 608.162 610.876 607.828 611.494C607.502 612.105 607.335 612.776 607.328 613.508V615.777C607.328 616.729 607.502 617.545 607.85 618.227C608.198 618.902 608.684 619.42 609.309 619.783C609.934 620.138 610.666 620.315 611.504 620.315C612.065 620.315 612.573 620.237 613.027 620.081C613.482 619.918 613.876 619.68 614.21 619.367C614.544 619.055 614.796 618.668 614.966 618.206L618.567 618.611C618.34 619.562 617.906 620.393 617.267 621.104C616.635 621.807 615.825 622.354 614.838 622.744C613.851 623.128 612.722 623.32 611.45 623.32ZM634.923 610.962L631.407 611.345C631.308 610.99 631.134 610.656 630.885 610.344C630.643 610.031 630.317 609.779 629.905 609.587C629.493 609.396 628.989 609.3 628.392 609.3C627.589 609.3 626.915 609.474 626.368 609.822C625.828 610.17 625.562 610.621 625.569 611.175C625.562 611.651 625.736 612.038 626.091 612.336C626.453 612.634 627.05 612.879 627.881 613.071L630.672 613.668C632.22 614.001 633.371 614.531 634.124 615.255C634.884 615.979 635.267 616.928 635.274 618.099C635.267 619.129 634.965 620.038 634.369 620.827C633.779 621.608 632.959 622.219 631.908 622.659C630.857 623.099 629.649 623.32 628.286 623.32C626.283 623.32 624.67 622.901 623.449 622.062C622.227 621.217 621.499 620.042 621.265 618.536L625.026 618.174C625.196 618.913 625.558 619.47 626.112 619.847C626.666 620.223 627.387 620.411 628.275 620.411C629.191 620.411 629.926 620.223 630.48 619.847C631.041 619.47 631.322 619.005 631.322 618.451C631.322 617.982 631.141 617.595 630.778 617.29C630.423 616.984 629.869 616.75 629.116 616.587L626.325 616.001C624.756 615.674 623.594 615.124 622.842 614.349C622.089 613.568 621.716 612.581 621.723 611.388C621.716 610.379 621.989 609.506 622.543 608.767C623.104 608.021 623.882 607.446 624.876 607.041C625.878 606.629 627.032 606.423 628.339 606.423C630.256 606.423 631.766 606.832 632.866 607.648C633.974 608.465 634.66 609.57 634.923 610.962ZM651.387 610.962L647.872 611.345C647.772 610.99 647.598 610.656 647.35 610.344C647.108 610.031 646.782 609.779 646.37 609.587C645.958 609.396 645.453 609.3 644.857 609.3C644.054 609.3 643.38 609.474 642.833 609.822C642.293 610.17 642.027 610.621 642.034 611.175C642.027 611.651 642.201 612.038 642.556 612.336C642.918 612.634 643.515 612.879 644.346 613.071L647.137 613.668C648.685 614.001 649.836 614.531 650.588 615.255C651.348 615.979 651.732 616.928 651.739 618.099C651.732 619.129 651.43 620.038 650.833 620.827C650.244 621.608 649.424 622.219 648.373 622.659C647.321 623.099 646.114 623.32 644.75 623.32C642.748 623.32 641.135 622.901 639.914 622.062C638.692 621.217 637.964 620.042 637.73 618.536L641.49 618.174C641.661 618.913 642.023 619.47 642.577 619.847C643.131 620.223 643.852 620.411 644.74 620.411C645.656 620.411 646.391 620.223 646.945 619.847C647.506 619.47 647.787 619.005 647.787 618.451C647.787 617.982 647.605 617.595 647.243 617.29C646.888 616.984 646.334 616.75 645.581 616.587L642.79 616.001C641.221 615.674 640.059 615.124 639.306 614.349C638.554 613.568 638.181 612.581 638.188 611.388C638.181 610.379 638.454 609.506 639.008 608.767C639.569 608.021 640.347 607.446 641.341 607.041C642.343 606.629 643.497 606.423 644.804 606.423C646.721 606.423 648.23 606.832 649.331 607.648C650.439 608.465 651.125 609.57 651.387 610.962ZM657.295 623.234C656.648 623.234 656.094 623.007 655.633 622.553C655.171 622.098 654.944 621.544 654.951 620.891C654.944 620.251 655.171 619.705 655.633 619.25C656.094 618.795 656.648 618.568 657.295 618.568C657.92 618.568 658.463 618.795 658.925 619.25C659.393 619.705 659.631 620.251 659.638 620.891C659.631 621.324 659.518 621.718 659.298 622.073C659.085 622.428 658.8 622.712 658.445 622.925C658.097 623.131 657.714 623.234 657.295 623.234ZM657.295 611.558C656.648 611.558 656.094 611.331 655.633 610.876C655.171 610.415 654.944 609.861 654.951 609.214C654.944 608.575 655.171 608.028 655.633 607.574C656.094 607.112 656.648 606.881 657.295 606.881C657.92 606.881 658.463 607.112 658.925 607.574C659.393 608.028 659.631 608.575 659.638 609.214C659.631 609.641 659.518 610.031 659.298 610.386C659.085 610.741 658.8 611.026 658.445 611.239C658.097 611.452 657.714 611.558 657.295 611.558ZM678.242 601.182V623H676.25V603.27H676.122L671.008 606.668V604.602L676.165 601.182H678.242ZM684.868 623V621.54L691.996 613.529C692.926 612.478 693.675 611.58 694.243 610.834C694.812 610.088 695.224 609.399 695.479 608.767C695.742 608.135 695.873 607.478 695.873 606.796C695.873 605.965 695.678 605.241 695.287 604.623C694.904 603.998 694.375 603.511 693.7 603.163C693.025 602.815 692.265 602.641 691.42 602.641C690.525 602.641 689.741 602.833 689.066 603.217C688.398 603.6 687.88 604.126 687.51 604.793C687.141 605.461 686.956 606.228 686.956 607.094H685.05C685.05 605.887 685.327 604.818 685.881 603.888C686.442 602.95 687.205 602.215 688.171 601.683C689.144 601.15 690.245 600.884 691.474 600.884C692.688 600.884 693.768 601.146 694.712 601.672C695.657 602.19 696.399 602.897 696.939 603.792C697.479 604.687 697.748 605.688 697.748 606.796C697.748 607.599 697.606 608.376 697.322 609.129C697.045 609.882 696.566 610.72 695.884 611.643C695.202 612.567 694.258 613.696 693.05 615.031L687.638 621.072V621.21H698.43V623H684.868ZM710.263 623.298C708.921 623.298 707.721 623.057 706.663 622.574C705.604 622.084 704.766 621.406 704.148 620.539C703.531 619.673 703.204 618.675 703.168 617.545H705.182C705.217 618.341 705.462 619.037 705.917 619.634C706.371 620.223 706.975 620.685 707.728 621.018C708.481 621.345 709.319 621.509 710.242 621.509C711.251 621.509 712.138 621.32 712.906 620.944C713.68 620.567 714.283 620.053 714.717 619.399C715.157 618.739 715.377 617.993 715.377 617.162C715.377 616.281 715.153 615.504 714.706 614.829C714.259 614.154 713.616 613.629 712.778 613.252C711.947 612.876 710.952 612.688 709.795 612.688H708.516V610.898H709.795C710.739 610.898 711.574 610.727 712.298 610.386C713.03 610.038 713.605 609.552 714.024 608.927C714.443 608.302 714.653 607.567 714.653 606.722C714.653 605.919 714.472 605.212 714.109 604.602C713.747 603.991 713.236 603.511 712.575 603.163C711.922 602.815 711.158 602.641 710.285 602.641C709.44 602.641 708.665 602.805 707.962 603.131C707.259 603.458 706.691 603.92 706.258 604.516C705.832 605.113 705.604 605.82 705.576 606.636H703.648C703.676 605.5 703.989 604.502 704.585 603.643C705.189 602.776 705.988 602.102 706.982 601.619C707.984 601.129 709.092 600.884 710.306 600.884C711.592 600.884 712.703 601.146 713.641 601.672C714.578 602.197 715.303 602.897 715.814 603.771C716.332 604.637 716.592 605.592 716.592 606.636C716.592 607.879 716.254 608.945 715.58 609.832C714.905 610.713 713.996 611.324 712.852 611.665V611.803C714.244 612.08 715.338 612.698 716.134 613.657C716.936 614.609 717.337 615.777 717.337 617.162C717.337 618.327 717.032 619.374 716.421 620.305C715.81 621.228 714.972 621.96 713.907 622.499C712.849 623.032 711.634 623.298 710.263 623.298ZM721.524 618.312V616.693L731.251 601.182H732.444V603.898H731.56L723.751 616.384V616.523H736.503V618.312H721.524ZM731.709 623V617.801V617.055V601.182H733.605V623H731.709ZM753.908 623.373C752.921 623.373 752.019 623.181 751.202 622.798C750.385 622.407 749.735 621.846 749.252 621.114C748.769 620.376 748.528 619.481 748.528 618.43C748.528 617.62 748.681 616.938 748.986 616.384C749.291 615.83 749.725 615.376 750.286 615.021C750.847 614.665 751.511 614.385 752.278 614.179C753.045 613.973 753.89 613.813 754.813 613.7C755.73 613.586 756.504 613.487 757.136 613.401C757.775 613.316 758.262 613.181 758.595 612.996C758.929 612.812 759.096 612.513 759.096 612.102V611.718C759.096 610.603 758.762 609.726 758.095 609.087C757.434 608.44 756.482 608.117 755.24 608.117C754.061 608.117 753.098 608.376 752.352 608.895C751.614 609.413 751.095 610.024 750.797 610.727L748.997 610.077C749.366 609.183 749.877 608.469 750.531 607.936C751.184 607.396 751.916 607.009 752.725 606.775C753.535 606.533 754.355 606.413 755.186 606.413C755.811 606.413 756.461 606.494 757.136 606.658C757.818 606.821 758.45 607.105 759.032 607.51C759.615 607.908 760.087 608.465 760.449 609.183C760.811 609.893 760.992 610.795 760.992 611.888V623H759.096V620.411H758.979C758.752 620.894 758.414 621.363 757.967 621.817C757.519 622.272 756.958 622.645 756.284 622.936C755.609 623.227 754.817 623.373 753.908 623.373ZM754.164 621.636C755.172 621.636 756.046 621.413 756.784 620.965C757.523 620.518 758.091 619.925 758.489 619.186C758.894 618.44 759.096 617.62 759.096 616.725V614.36C758.954 614.495 758.716 614.616 758.382 614.722C758.056 614.829 757.676 614.925 757.242 615.01C756.816 615.088 756.39 615.156 755.964 615.212C755.538 615.269 755.154 615.319 754.813 615.362C753.89 615.475 753.102 615.653 752.448 615.894C751.795 616.136 751.294 616.469 750.946 616.896C750.598 617.315 750.424 617.854 750.424 618.515C750.424 619.509 750.779 620.28 751.49 620.827C752.2 621.366 753.091 621.636 754.164 621.636ZM766.431 623V601.182H768.338V609.758H768.508C768.721 609.268 769.027 608.763 769.425 608.245C769.829 607.727 770.358 607.293 771.012 606.945C771.672 606.59 772.503 606.413 773.505 606.413C774.847 606.413 776.026 606.768 777.042 607.478C778.057 608.181 778.849 609.168 779.417 610.44C779.986 611.704 780.27 613.178 780.27 614.861C780.27 616.551 779.986 618.032 779.417 619.303C778.856 620.575 778.068 621.565 777.052 622.276C776.044 622.986 774.872 623.341 773.537 623.341C772.542 623.341 771.711 623.163 771.044 622.808C770.383 622.453 769.851 622.016 769.446 621.498C769.041 620.972 768.729 620.461 768.508 619.964H768.274V623H766.431ZM768.306 614.829C768.306 616.15 768.501 617.322 768.892 618.344C769.29 619.36 769.858 620.159 770.596 620.741C771.342 621.317 772.244 621.604 773.302 621.604C774.389 621.604 775.309 621.306 776.062 620.71C776.814 620.106 777.386 619.293 777.777 618.27C778.167 617.247 778.363 616.1 778.363 614.829C778.363 613.572 778.167 612.439 777.777 611.43C777.393 610.422 776.825 609.623 776.072 609.033C775.319 608.437 774.396 608.138 773.302 608.138C772.237 608.138 771.331 608.426 770.586 609.001C769.847 609.57 769.282 610.358 768.892 611.366C768.501 612.368 768.306 613.522 768.306 614.829ZM790.827 623.341C789.364 623.341 788.089 622.975 787.003 622.244C785.923 621.512 785.085 620.511 784.488 619.239C783.892 617.968 783.594 616.519 783.594 614.893C783.594 613.252 783.895 611.793 784.499 610.514C785.11 609.236 785.955 608.234 787.035 607.51C788.114 606.778 789.368 606.413 790.795 606.413C791.889 606.413 792.88 606.626 793.768 607.052C794.655 607.471 795.387 608.064 795.962 608.831C796.545 609.591 796.91 610.479 797.059 611.494H795.142C794.943 610.571 794.464 609.783 793.704 609.129C792.951 608.469 791.992 608.138 790.827 608.138C789.783 608.138 788.86 608.423 788.057 608.991C787.255 609.552 786.626 610.337 786.172 611.345C785.724 612.347 785.501 613.508 785.501 614.829C785.501 616.157 785.721 617.332 786.161 618.355C786.601 619.371 787.219 620.166 788.015 620.741C788.817 621.317 789.755 621.604 790.827 621.604C791.552 621.604 792.212 621.469 792.809 621.2C793.412 620.923 793.917 620.532 794.322 620.028C794.733 619.523 795.01 618.923 795.153 618.227H797.07C796.928 619.214 796.577 620.095 796.015 620.869C795.461 621.636 794.741 622.24 793.853 622.68C792.972 623.121 791.964 623.341 790.827 623.341ZM811.468 601.182V623H809.572V601.182H811.468ZM821.056 623.373C820.069 623.373 819.167 623.181 818.35 622.798C817.534 622.407 816.884 621.846 816.401 621.114C815.918 620.376 815.676 619.481 815.676 618.43C815.676 617.62 815.829 616.938 816.134 616.384C816.44 615.83 816.873 615.376 817.434 615.021C817.995 614.665 818.659 614.385 819.426 614.179C820.193 613.973 821.039 613.813 821.962 613.7C822.878 613.586 823.652 613.487 824.284 613.401C824.923 613.316 825.41 613.181 825.744 612.996C826.078 612.812 826.244 612.513 826.244 612.102V611.718C826.244 610.603 825.911 609.726 825.243 609.087C824.583 608.44 823.631 608.117 822.388 608.117C821.209 608.117 820.247 608.376 819.501 608.895C818.762 609.413 818.244 610.024 817.945 610.727L816.145 610.077C816.514 609.183 817.026 608.469 817.679 607.936C818.333 607.396 819.064 607.009 819.874 606.775C820.683 606.533 821.504 606.413 822.335 606.413C822.96 606.413 823.61 606.494 824.284 606.658C824.966 606.821 825.598 607.105 826.181 607.51C826.763 607.908 827.235 608.465 827.597 609.183C827.96 609.893 828.141 610.795 828.141 611.888V623H826.244V620.411H826.127C825.9 620.894 825.563 621.363 825.115 621.817C824.668 622.272 824.107 622.645 823.432 622.936C822.757 623.227 821.965 623.373 821.056 623.373ZM821.312 621.636C822.32 621.636 823.194 621.413 823.933 620.965C824.671 620.518 825.24 619.925 825.637 619.186C826.042 618.44 826.244 617.62 826.244 616.725V614.36C826.102 614.495 825.865 614.616 825.531 614.722C825.204 614.829 824.824 614.925 824.391 615.01C823.965 615.088 823.539 615.156 823.112 615.212C822.686 615.269 822.303 615.319 821.962 615.362C821.039 615.475 820.25 615.653 819.597 615.894C818.943 616.136 818.443 616.469 818.095 616.896C817.747 617.315 817.573 617.854 817.573 618.515C817.573 619.509 817.928 620.28 818.638 620.827C819.348 621.366 820.24 621.636 821.312 621.636ZM835.081 612.773V623H833.185V606.636H835.028V609.204H835.199C835.582 608.366 836.179 607.695 836.988 607.19C837.805 606.679 838.814 606.423 840.014 606.423C841.115 606.423 842.081 606.654 842.912 607.116C843.75 607.57 844.4 608.241 844.861 609.129C845.33 610.017 845.564 611.107 845.564 612.4V623H843.668V612.517C843.668 611.175 843.292 610.113 842.539 609.332C841.793 608.55 840.792 608.16 839.535 608.16C838.675 608.16 837.912 608.344 837.244 608.714C836.577 609.083 836.047 609.616 835.657 610.312C835.273 611.001 835.081 611.821 835.081 612.773ZM857.174 623.341C855.647 623.341 854.326 622.986 853.211 622.276C852.096 621.558 851.233 620.567 850.622 619.303C850.018 618.032 849.717 616.569 849.717 614.914C849.717 613.266 850.018 611.803 850.622 610.525C851.233 609.239 852.075 608.234 853.147 607.51C854.227 606.778 855.473 606.413 856.886 606.413C857.774 606.413 858.63 606.576 859.454 606.903C860.278 607.222 861.016 607.716 861.67 608.384C862.33 609.044 862.852 609.879 863.236 610.887C863.619 611.888 863.811 613.075 863.811 614.445V615.383H851.027V613.71H861.872C861.872 612.659 861.659 611.714 861.233 610.876C860.814 610.031 860.228 609.364 859.475 608.874C858.729 608.384 857.866 608.138 856.886 608.138C855.849 608.138 854.937 608.415 854.148 608.969C853.36 609.523 852.742 610.255 852.295 611.164C851.854 612.073 851.631 613.067 851.624 614.147V615.148C851.624 616.448 851.847 617.585 852.295 618.558C852.749 619.523 853.392 620.273 854.223 620.805C855.054 621.338 856.038 621.604 857.174 621.604C857.948 621.604 858.626 621.484 859.209 621.242C859.798 621.001 860.292 620.678 860.69 620.273C861.094 619.861 861.4 619.41 861.606 618.92L863.406 619.506C863.158 620.195 862.749 620.83 862.181 621.413C861.62 621.995 860.917 622.464 860.072 622.819C859.234 623.167 858.268 623.341 857.174 623.341Z" fill="black"/>
<path d="M676.108 705.304C676.108 712.928 669.928 719.108 662.304 719.108C654.68 719.108 648.5 712.928 648.5 705.304C648.5 697.68 654.68 691.5 662.304 691.5C669.928 691.5 676.108 697.68 676.108 705.304Z" fill="#ABFF77" stroke="black"/>
<path d="M661.351 692.907H663.258V708.165H661.351V692.907Z" fill="white"/>
<path d="M659.443 704.35H670.887V706.258H659.443V704.35Z" fill="white"/>
<path d="M662.304 707.211C663.357 707.211 664.211 706.357 664.211 705.304C664.211 704.251 663.357 703.397 662.304 703.397C661.251 703.397 660.397 704.251 660.397 705.304C660.397 706.357 661.251 707.211 662.304 707.211Z" fill="white"/>
<path d="M662.304 706.734C663.094 706.734 663.734 706.094 663.734 705.304C663.734 704.514 663.094 703.874 662.304 703.874C661.514 703.874 660.874 704.514 660.874 705.304C660.874 706.094 661.514 706.734 662.304 706.734Z" fill="#ABFF77"/>
</g>
<defs>
<filter id="filter0_d_44_843" x="-2" y="-6" width="153" height="1036" filterUnits="userSpaceOnUse" color-interpolation-filters="sRGB">
<feFlood flood-opacity="0" result="BackgroundImageFix"/>
<feColorMatrix in="SourceAlpha" type="matrix" values="0 0 0 0 0 0 0 0 0 0 0 0 0 0 0 0 0 0 127 0" result="hardAlpha"/>
<feOffset dx="4"/>
<feGaussianBlur stdDeviation="3"/>
<feComposite in2="hardAlpha" operator="out"/>
<feColorMatrix type="matrix" values="0 0 0 0 0 0 0 0 0 0 0 0 0 0 0 0 0 0 0.13 0"/>
<feBlend mode="normal" in2="BackgroundImageFix" result="effect1_dropShadow_44_843"/>
<feBlend mode="normal" in="SourceGraphic" in2="effect1_dropShadow_44_843" result="shape"/>
</filter>
<filter id="filter1_d_44_843" x="476" y="296" width="656" height="660" filterUnits="userSpaceOnUse" color-interpolation-filters="sRGB">
<feFlood flood-opacity="0" result="BackgroundImageFix"/>
<feColorMatrix in="SourceAlpha" type="matrix" values="0 0 0 0 0 0 0 0 0 0 0 0 0 0 0 0 0 0 127 0" result="hardAlpha"/>
<feOffset dx="4" dy="4"/>
<feGaussianBlur stdDeviation="5"/>
<feComposite in2="hardAlpha" operator="out"/>
<feColorMatrix type="matrix" values="0 0 0 0 0 0 0 0 0 0 0 0 0 0 0 0 0 0 0.17 0"/>
<feBlend mode="normal" in2="BackgroundImageFix" result="effect1_dropShadow_44_843"/>
<feBlend mode="normal" in="SourceGraphic" in2="effect1_dropShadow_44_843" result="shape"/>
</filter>
<clipPath id="clip0_44_843">
<rect width="1440" height="1024" fill="white"/>
</clipPath>
</defs>
</svg>
