<svg width="1440" height="1024" viewBox="0 0 1440 1024" fill="none" xmlns="http://www.w3.org/2000/svg">
<g clip-path="url(#clip0_44_389)">
<rect width="1440" height="1024" fill="white"/>
<g filter="url(#filter0_d_44_389)">
<path d="M0 0H104C124.435 0 141 16.5655 141 37V987C141 1007.43 124.435 1024 104 1024H0V0Z" fill="#2D2D2D"/>
</g>
<path fill-rule="evenodd" clip-rule="evenodd" d="M69.5272 152.917C70.3408 152.25 71.6599 152.25 72.4735 152.917L91.2235 168.292C92.0371 168.959 92.0371 170.041 91.2235 170.708C90.4099 171.375 89.0908 171.375 88.2772 170.708L87.667 170.208V183.167C87.667 184.073 87.228 184.942 86.4466 185.583C85.6652 186.223 84.6054 186.583 83.5003 186.583H58.5003C57.3953 186.583 56.3355 186.223 55.554 185.583C54.7726 184.942 54.3337 184.073 54.3337 183.167V170.208L53.7235 170.708C52.9099 171.375 51.5908 171.375 50.7772 170.708C49.9636 170.041 49.9636 168.959 50.7772 168.292L69.5272 152.917ZM58.5003 166.791V183.167H64.7503V176.333C64.7503 175.427 65.1893 174.558 65.9707 173.917C66.7521 173.277 67.8119 172.917 68.917 172.917H73.0837C74.1887 172.917 75.2485 173.277 76.0299 173.917C76.8113 174.558 77.2503 175.427 77.2503 176.333V183.167H83.5003V166.791L71.0003 156.541L58.5003 166.791ZM73.0837 183.167V176.333H68.917V183.167H73.0837Z" fill="white"/>
<path d="M238.986 95.3182H247.509L251.131 99.9418L255.882 105.396L263.19 114.409H253.645L248.531 108.294L245.506 103.947L238.986 95.3182ZM263.489 89.1818C263.489 93.983 262.565 98.0526 260.719 101.391C258.872 104.729 256.372 107.264 253.219 108.997C250.08 110.73 246.557 111.597 242.651 111.597C238.73 111.597 235.2 110.723 232.061 108.976C228.922 107.229 226.429 104.693 224.582 101.369C222.75 98.0312 221.834 93.9687 221.834 89.1818C221.834 84.3807 222.75 80.3111 224.582 76.973C226.429 73.6349 228.922 71.0994 232.061 69.3665C235.2 67.6335 238.73 66.767 242.651 66.767C246.557 66.767 250.08 67.6335 253.219 69.3665C256.372 71.0994 258.872 73.6349 260.719 76.973C262.565 80.3111 263.489 84.3807 263.489 89.1818ZM252.707 89.1818C252.707 86.3409 252.303 83.9403 251.493 81.9801C250.697 80.0199 249.547 78.5355 248.041 77.527C246.55 76.5185 244.753 76.0142 242.651 76.0142C240.563 76.0142 238.766 76.5185 237.26 77.527C235.754 78.5355 234.597 80.0199 233.787 81.9801C232.991 83.9403 232.594 86.3409 232.594 89.1818C232.594 92.0227 232.991 94.4233 233.787 96.3835C234.597 98.3437 235.754 99.8281 237.26 100.837C238.766 101.845 240.563 102.349 242.651 102.349C244.753 102.349 246.55 101.845 248.041 100.837C249.547 99.8281 250.697 98.3437 251.493 96.3835C252.303 94.4233 252.707 92.0227 252.707 89.1818ZM272.705 111V78.2727H283.124V111H272.705ZM277.925 74.4588C276.462 74.4588 275.205 73.9759 274.154 73.0099C273.103 72.0298 272.577 70.8509 272.577 69.473C272.577 68.1094 273.103 66.9446 274.154 65.9787C275.205 64.9986 276.462 64.5085 277.925 64.5085C279.402 64.5085 280.659 64.9986 281.696 65.9787C282.748 66.9446 283.273 68.1094 283.273 69.473C283.273 70.8509 282.748 72.0298 281.696 73.0099C280.659 73.9759 279.402 74.4588 277.925 74.4588ZM302.152 102.413L302.195 89.9915H303.643L312.848 78.2727H324.652L310.973 95.0625H308.224L302.152 102.413ZM292.756 111V67.3636H303.175V111H292.756ZM313.082 111L304.517 97.4062L311.378 90.0128L325.121 111H313.082ZM331.381 111V67.3636H341.928V84.8778H359.122V67.3636H369.648V111H359.122V93.4645H341.928V111H331.381ZM379.263 111V78.2727H389.683V111H379.263ZM384.484 74.4588C383.021 74.4588 381.763 73.9759 380.712 73.0099C379.661 72.0298 379.136 70.8509 379.136 69.473C379.136 68.1094 379.661 66.9446 380.712 65.9787C381.763 64.9986 383.021 64.5085 384.484 64.5085C385.961 64.5085 387.218 64.9986 388.255 65.9787C389.306 66.9446 389.832 68.1094 389.832 69.473C389.832 70.8509 389.306 72.0298 388.255 73.0099C387.218 73.9759 385.961 74.4588 384.484 74.4588ZM399.314 111V78.2727H409.435V84.2386H409.776C410.373 82.0795 411.346 80.4744 412.695 79.4233C414.044 78.358 415.614 77.8253 417.404 77.8253C417.887 77.8253 418.384 77.8608 418.895 77.9318C419.407 77.9886 419.882 78.081 420.323 78.2088V87.2642C419.826 87.0937 419.172 86.9588 418.363 86.8594C417.567 86.7599 416.857 86.7102 416.232 86.7102C414.996 86.7102 413.881 86.9872 412.887 87.5412C411.907 88.081 411.132 88.8409 410.564 89.821C410.01 90.7869 409.733 91.9233 409.733 93.2301V111H399.314ZM441.167 111.618C437.744 111.618 434.789 110.943 432.304 109.594C429.832 108.23 427.929 106.291 426.593 103.777C425.272 101.249 424.612 98.2443 424.612 94.7642C424.612 91.3835 425.279 88.429 426.615 85.9006C427.95 83.358 429.832 81.3835 432.261 79.9773C434.69 78.5568 437.552 77.8466 440.848 77.8466C443.177 77.8466 445.308 78.2088 447.24 78.9332C449.172 79.6577 450.841 80.7301 452.247 82.1506C453.653 83.571 454.747 85.3253 455.528 87.4134C456.309 89.4872 456.7 91.8665 456.7 94.5511V97.1506H428.255V91.0994H447.005C446.991 89.9915 446.728 89.0043 446.217 88.1378C445.706 87.2713 445.002 86.5966 444.108 86.1136C443.227 85.6165 442.211 85.3679 441.061 85.3679C439.896 85.3679 438.852 85.6307 437.929 86.1562C437.005 86.6676 436.274 87.3707 435.734 88.2656C435.194 89.1463 434.91 90.1477 434.882 91.2699V97.4276C434.882 98.7628 435.145 99.9347 435.67 100.943C436.196 101.937 436.941 102.712 437.907 103.266C438.873 103.82 440.024 104.097 441.359 104.097C442.282 104.097 443.12 103.969 443.873 103.713C444.626 103.457 445.272 103.081 445.812 102.584C446.352 102.087 446.757 101.476 447.027 100.751L456.593 101.028C456.196 103.173 455.322 105.041 453.973 106.632C452.637 108.209 450.883 109.437 448.71 110.318C446.537 111.185 444.022 111.618 441.167 111.618Z" fill="black"/>
<circle cx="1354.5" cy="90.5" r="33.5" fill="#FED0AB"/>
<mask id="mask0_44_389" style="mask-type:alpha" maskUnits="userSpaceOnUse" x="1321" y="57" width="67" height="67">
<circle cx="1354.5" cy="90.5" r="33.5" fill="#BFBDF4"/>
</mask>
<g mask="url(#mask0_44_389)">
<path d="M1353.59 73C1342.23 73 1336.04 80.9051 1336.04 91.3573V123.944H1371.15V91.3573C1371.15 75.8107 1361.67 76.0742 1361.67 76.0742C1361.67 76.0742 1360.96 73 1353.59 73Z" fill="#231F20"/>
<path d="M1378.99 85.9116H1373.19C1373.19 85.9116 1379.46 114.37 1361.43 114.37V108.134H1345.84V114.37C1335.96 114.633 1334 116.478 1334 125.701H1373.19C1382.91 112.525 1381.89 101.107 1378.99 85.9116Z" fill="#C28FEF"/>
<path d="M1367.39 81.2564C1367.78 80.3781 1369.11 80.3781 1370.45 81.9591C1371.23 82.9253 1371.54 83.2766 1372.17 83.3644L1371.94 75.3715C1371.94 74.7567 1372.41 74.1418 1372.95 74.1418C1373.5 74.1418 1373.97 74.6688 1374.05 75.3715V74.4932C1374.05 73.7027 1374.6 73 1375.23 73C1375.93 73 1376.48 73.6148 1376.48 74.4053V75.0202C1376.48 74.3175 1376.95 73.7027 1377.5 73.7027C1378.13 73.7027 1378.6 74.2297 1378.6 74.9324V76.3377C1378.6 75.7229 1378.99 75.108 1379.54 75.108C1380.09 75.108 1380.56 75.635 1380.56 76.2499L1380.71 82.3983V82.5739C1380.71 82.5739 1381.18 85.8238 1380.48 87.844C1379.38 90.9182 1373.27 91.9722 1371.15 86.79C1370.76 85.736 1369.9 85.0333 1369.19 84.0671C1368.49 83.1009 1367 82.2226 1367.39 81.2564ZM1340.51 100.229C1340.51 100.229 1337.84 99.4381 1337.84 95.1342C1337.84 91.7087 1339.8 91.0938 1339.8 91.0938C1346.93 91.0938 1360.1 80.8172 1360.1 80.8172C1360.1 80.8172 1362.84 89.8642 1367.08 91.0938C1367.08 91.0938 1369.11 91.533 1369.11 95.1342C1369.11 99.4381 1366.37 100.229 1366.37 100.229C1366.37 106.728 1358.3 114.633 1353.44 114.633C1348.74 114.633 1340.51 106.728 1340.51 100.229Z" fill="#B47D56"/>
<path d="M1353.59 104.445C1351.09 104.445 1349.83 102.424 1351.09 102.424H1356.1C1357.36 102.424 1356.1 104.445 1353.59 104.445Z" fill="#935E3E"/>
<path d="M1357.36 98.4719C1356.49 98.4719 1356.57 97.2422 1356.57 97.2422C1357.91 89.5128 1365.59 93.641 1365.59 93.641C1366.21 94.9586 1364.18 98.2963 1363.63 98.4719C1361.12 99.1746 1357.36 98.4719 1357.36 98.4719Z" fill="#F5F5F5"/>
<path d="M1360.81 98.3841C1362.32 98.3841 1363.55 97.0077 1363.55 95.3099C1363.55 93.6121 1362.32 92.2357 1360.81 92.2357C1359.29 92.2357 1358.06 93.6121 1358.06 95.3099C1358.06 97.0077 1359.29 98.3841 1360.81 98.3841Z" fill="#664E27"/>
<path d="M1360.81 96.3638C1361.33 96.3638 1361.75 95.892 1361.75 95.3098C1361.75 94.7277 1361.33 94.2558 1360.81 94.2558C1360.29 94.2558 1359.87 94.7277 1359.87 95.3098C1359.87 95.892 1360.29 96.3638 1360.81 96.3638Z" fill="#2B2925"/>
<path d="M1356.57 97.2422C1357.91 88.0197 1364.72 94.168 1367.39 92.8505C1364.72 95.7491 1359.32 89.5128 1356.57 97.2422Z" fill="#3B3226"/>
<path d="M1349.83 98.4719C1350.69 98.4719 1350.62 97.2422 1350.62 97.2422C1349.28 89.5128 1341.6 93.641 1341.6 93.641C1340.98 94.9586 1343.01 98.2963 1343.56 98.4719C1345.99 99.1746 1349.83 98.4719 1349.83 98.4719Z" fill="#F5F5F5"/>
<path d="M1346.31 98.3841C1347.82 98.3841 1349.05 97.0077 1349.05 95.3099C1349.05 93.6121 1347.82 92.2357 1346.31 92.2357C1344.79 92.2357 1343.56 93.6121 1343.56 95.3099C1343.56 97.0077 1344.79 98.3841 1346.31 98.3841Z" fill="#664E27"/>
<path d="M1350.54 97.2422C1349.21 88.0197 1342.39 94.168 1339.72 92.8505C1342.39 95.7491 1347.87 89.5128 1350.54 97.2422Z" fill="#3B3226"/>
<path d="M1353.59 107.87L1347.56 106.816C1351.17 112.613 1356.02 112.613 1359.63 106.816L1353.59 107.87Z" fill="#935E3E"/>
<path d="M1355.95 106.553C1354.14 105.762 1353.59 106.992 1353.59 106.992C1353.59 106.992 1352.97 105.762 1351.24 106.553C1349.83 107.168 1347.56 106.816 1347.56 106.816C1349.99 107.431 1350.3 108.485 1353.59 108.485C1356.89 108.485 1357.2 107.343 1359.63 106.816C1359.63 106.816 1357.36 107.168 1355.95 106.553Z" fill="#734C31"/>
<path d="M1346.3 96.3638C1346.82 96.3638 1347.25 95.892 1347.25 95.3098C1347.25 94.7277 1346.82 94.2558 1346.3 94.2558C1345.79 94.2558 1345.36 94.7277 1345.36 95.3098C1345.36 95.892 1345.79 96.3638 1346.3 96.3638Z" fill="#2B2925"/>
</g>
<path d="M86.0647 281.91C85.1373 280.988 84.0354 280.256 82.822 279.757C81.6087 279.257 80.3078 279 78.994 279C77.6803 279 76.3794 279.257 75.166 279.757C73.9527 280.256 72.8508 280.988 71.9234 281.91L70.5 283.34L69.0766 281.91C68.1493 280.988 67.0473 280.256 65.834 279.757C64.6206 279.257 63.3197 279 62.006 279C60.6922 279 59.3913 279.257 58.178 279.757C56.9646 280.256 55.8627 280.988 54.9353 281.91C51.0164 285.795 50.7761 292.356 55.7117 297.34L70.5 312L85.2883 297.34C90.2239 292.356 89.9836 285.795 86.0647 281.91Z" stroke="white" stroke-width="4" stroke-linecap="round" stroke-linejoin="round"/>
<rect x="43" y="456" width="55" height="5" rx="2.5" fill="#FED0AB"/>
<path d="M91.9999 421.306C92.0082 424.459 91.2715 427.569 89.8499 430.383C88.1644 433.756 85.5732 436.592 82.3666 438.576C79.16 440.559 75.4646 441.61 71.6944 441.611C68.5414 441.619 65.431 440.883 62.6166 439.461L49 444L53.5389 430.383C52.1173 427.569 51.3807 424.459 51.3889 421.306C51.3903 417.535 52.4415 413.84 54.4245 410.633C56.4075 407.427 59.2441 404.836 62.6166 403.15C65.431 401.729 68.5414 400.992 71.6944 401H72.8889C77.8681 401.275 82.5711 403.376 86.0973 406.903C89.6236 410.429 91.7252 415.132 91.9999 420.111V421.306Z" stroke="white" stroke-width="4" stroke-linecap="round" stroke-linejoin="round"/>
<path d="M279.993 180.652H275.212C275.075 179.868 274.824 179.173 274.457 178.568C274.091 177.955 273.635 177.435 273.089 177.009C272.544 176.582 271.922 176.263 271.223 176.05C270.533 175.828 269.787 175.717 268.986 175.717C267.563 175.717 266.301 176.075 265.202 176.791C264.102 177.499 263.241 178.538 262.619 179.911C261.997 181.274 261.686 182.94 261.686 184.909C261.686 186.912 261.997 188.599 262.619 189.972C263.25 191.335 264.111 192.366 265.202 193.065C266.301 193.756 267.558 194.101 268.973 194.101C269.757 194.101 270.49 193.999 271.172 193.794C271.862 193.581 272.48 193.27 273.026 192.861C273.58 192.452 274.044 191.949 274.419 191.352C274.803 190.756 275.067 190.074 275.212 189.307L279.993 189.332C279.814 190.577 279.426 191.744 278.83 192.835C278.241 193.926 277.47 194.889 276.516 195.724C275.561 196.551 274.445 197.199 273.166 197.668C271.888 198.128 270.469 198.358 268.909 198.358C266.608 198.358 264.554 197.825 262.747 196.76C260.94 195.695 259.517 194.156 258.477 192.145C257.438 190.134 256.918 187.722 256.918 184.909C256.918 182.088 257.442 179.676 258.49 177.673C259.538 175.662 260.966 174.124 262.773 173.058C264.58 171.993 266.625 171.46 268.909 171.46C270.366 171.46 271.722 171.665 272.974 172.074C274.227 172.483 275.344 173.084 276.324 173.876C277.304 174.661 278.109 175.624 278.74 176.766C279.379 177.899 279.797 179.195 279.993 180.652ZM288.76 186.494V198H284.132V171.818H288.657V181.7H288.887C289.348 180.592 290.059 179.719 291.022 179.08C291.994 178.432 293.23 178.108 294.73 178.108C296.093 178.108 297.282 178.393 298.297 178.964C299.311 179.536 300.095 180.371 300.649 181.47C301.211 182.57 301.493 183.912 301.493 185.497V198H296.865V186.213C296.865 184.892 296.524 183.865 295.842 183.132C295.169 182.391 294.223 182.02 293.004 182.02C292.186 182.02 291.453 182.199 290.805 182.557C290.166 182.906 289.663 183.413 289.297 184.078C288.939 184.743 288.76 185.548 288.76 186.494ZM311.86 198.396C310.616 198.396 309.495 198.175 308.498 197.732C307.51 197.28 306.725 196.615 306.146 195.737C305.575 194.859 305.289 193.777 305.289 192.49C305.289 191.382 305.494 190.466 305.903 189.741C306.312 189.017 306.87 188.438 307.578 188.003C308.285 187.568 309.082 187.24 309.968 187.018C310.863 186.788 311.788 186.622 312.743 186.52C313.893 186.401 314.826 186.294 315.542 186.2C316.258 186.098 316.778 185.945 317.102 185.74C317.434 185.527 317.6 185.199 317.6 184.756V184.679C317.6 183.716 317.315 182.97 316.744 182.442C316.173 181.913 315.35 181.649 314.277 181.649C313.143 181.649 312.244 181.896 311.579 182.391C310.923 182.885 310.48 183.469 310.25 184.142L305.929 183.528C306.27 182.335 306.832 181.338 307.616 180.537C308.4 179.727 309.359 179.122 310.493 178.722C311.626 178.312 312.879 178.108 314.251 178.108C315.197 178.108 316.139 178.219 317.076 178.44C318.014 178.662 318.87 179.028 319.646 179.54C320.422 180.043 321.044 180.729 321.512 181.598C321.99 182.467 322.228 183.554 322.228 184.858V198H317.779V195.303H317.626C317.345 195.848 316.949 196.359 316.437 196.837C315.934 197.305 315.299 197.685 314.532 197.974C313.774 198.256 312.883 198.396 311.86 198.396ZM313.062 194.996C313.991 194.996 314.797 194.812 315.478 194.446C316.16 194.071 316.684 193.577 317.051 192.963C317.426 192.349 317.613 191.68 317.613 190.956V188.642C317.468 188.761 317.221 188.872 316.872 188.974C316.531 189.077 316.147 189.166 315.721 189.243C315.295 189.32 314.873 189.388 314.456 189.447C314.038 189.507 313.676 189.558 313.369 189.601C312.679 189.695 312.061 189.848 311.515 190.061C310.97 190.274 310.539 190.572 310.224 190.956C309.909 191.331 309.751 191.817 309.751 192.413C309.751 193.266 310.062 193.909 310.684 194.344C311.306 194.778 312.099 194.996 313.062 194.996ZM336.687 178.364V181.943H325.399V178.364H336.687ZM328.186 173.659H332.814V192.094C332.814 192.716 332.907 193.193 333.095 193.526C333.291 193.849 333.547 194.071 333.862 194.19C334.177 194.31 334.527 194.369 334.91 194.369C335.2 194.369 335.464 194.348 335.703 194.305C335.95 194.263 336.137 194.224 336.265 194.19L337.045 197.808C336.798 197.893 336.444 197.987 335.984 198.089C335.532 198.192 334.978 198.251 334.322 198.268C333.163 198.303 332.119 198.128 331.19 197.744C330.261 197.352 329.524 196.747 328.978 195.929C328.441 195.111 328.177 194.088 328.186 192.861V173.659Z" fill="#231F20"/>
<rect x="254" y="228" width="932" height="688" rx="20" fill="#F5F5F5"/>
<rect x="254.5" y="228.5" width="931" height="687" rx="19.5" stroke="black" stroke-opacity="0.16"/>
<path d="M289.398 345.091L294.273 352.957H294.42L299.295 345.091H301.991L296.045 354.545L301.991 364H299.295L294.42 356.281H294.273L289.398 364H286.702L292.795 354.545L286.702 345.091H289.398ZM306.079 369.318C305.71 369.318 305.381 369.287 305.091 369.226C304.802 369.17 304.602 369.115 304.491 369.06L305.045 367.139C305.575 367.275 306.042 367.324 306.449 367.287C306.855 367.25 307.215 367.068 307.529 366.742C307.849 366.422 308.141 365.902 308.406 365.182L308.812 364.074L303.568 349.818H305.932L309.846 361.119H309.994L313.909 349.818H316.273L310.253 366.068C309.982 366.801 309.646 367.407 309.246 367.887C308.846 368.373 308.381 368.733 307.852 368.967C307.329 369.201 306.738 369.318 306.079 369.318ZM318.742 364V362.338L326.794 351.997V351.849H319.001V349.818H329.6V351.554L321.771 361.821V361.969H329.859V364H318.742Z" fill="black"/>
<circle cx="309" cy="313" r="26" fill="white"/>
<path d="M295.935 311.56H321.078V317.362H295.935V311.56Z" fill="#594640"/>
<path d="M296.902 315.912V311.56H320.112V315.912C320.112 315.912 322.046 315.912 322.046 318.329C322.046 320.747 320.112 320.747 320.112 320.747C320.112 324.615 311.408 328 308.507 328C305.606 328 296.902 324.615 296.902 320.747C296.902 320.747 294.968 320.747 294.968 318.329C294.968 315.912 296.902 315.912 296.902 315.912Z" fill="#D6A57C"/>
<path d="M302.704 315.331C300.286 315.331 299.319 316.202 299.319 317.072C299.319 317.942 299.319 319.2 302.511 319.2C305.605 319.2 306.089 318.813 306.089 317.507C306.089 316.637 305.122 315.331 302.704 315.331Z" fill="#F5F5F5"/>
<path d="M302.945 318.958C304.147 318.958 305.121 317.984 305.121 316.782C305.121 315.58 304.147 314.606 302.945 314.606C301.744 314.606 300.77 315.58 300.77 316.782C300.77 317.984 301.744 318.958 302.945 318.958Z" fill="#664E27"/>
<path d="M303.67 316.782C303.67 317.168 303.331 317.507 302.945 317.507C302.558 317.507 302.22 317.168 302.22 316.782C302.22 316.395 302.558 316.057 302.945 316.057C303.331 316.057 303.67 316.395 303.67 316.782Z" fill="#231F20"/>
<path d="M299.319 317.024C299.319 313.639 306.089 313.639 306.089 317.507C305.122 314.606 300.286 314.606 299.319 317.024Z" fill="#664E27"/>
<path d="M314.309 315.331C316.726 315.331 317.693 316.202 317.693 317.072C317.693 317.942 317.693 319.2 314.502 319.2C311.407 319.2 310.924 318.813 310.924 317.507C310.924 316.637 311.891 315.331 314.309 315.331Z" fill="#F5F5F5"/>
<path d="M314.067 318.958C315.268 318.958 316.242 317.984 316.242 316.782C316.242 315.58 315.268 314.606 314.067 314.606C312.865 314.606 311.891 315.58 311.891 316.782C311.891 317.984 312.865 318.958 314.067 318.958Z" fill="#664E27"/>
<path d="M313.341 316.782C313.341 317.168 313.679 317.507 314.066 317.507C314.452 317.507 314.791 317.168 314.791 316.782C314.791 316.395 314.452 316.057 314.066 316.057C313.679 316.057 313.341 316.395 313.341 316.782Z" fill="#231F20"/>
<path d="M317.693 317.024C317.693 313.639 310.924 313.639 310.924 317.507C311.891 314.606 316.726 314.606 317.693 317.024ZM312.858 322.633C312.858 324.277 310.682 325.099 308.506 325.099C306.33 325.099 304.154 324.277 304.154 322.633C304.154 322.633 304.154 322.198 304.589 322.198H312.423C312.858 322.198 312.858 322.633 312.858 322.633Z" fill="#664E27"/>
<path d="M321.561 313.01H295.45C295.45 306.048 298.738 300.68 308.506 300.68C318.273 300.68 321.561 306.048 321.561 313.01Z" fill="#FF9430"/>
<path d="M304.879 313.01H302.945V301.454L304.879 300.874V313.01ZM314.067 313.01H312.132V300.874L314.067 301.454V313.01Z" fill="#DB802B"/>
<path d="M323.012 314.074H294C294 311.608 300.479 309.577 308.506 309.577C316.533 309.577 323.012 311.608 323.012 314.074Z" fill="#DB802B"/>
<path d="M313.099 311.415H303.912V301.212C303.912 298.263 313.148 298.263 313.148 301.212V311.415H313.099Z" fill="#FF9430"/>
<g filter="url(#filter1_d_44_389)">
<rect x="293" y="789" width="853" height="88" rx="22" fill="white"/>
<rect x="293.5" y="789.5" width="852" height="87" rx="21.5" stroke="black" stroke-opacity="0.2"/>
</g>
<path d="M340.366 824.642V823.091H354.077V824.642H348.085V842H346.359V824.642H340.366ZM357.143 847.318C356.817 847.318 356.512 847.287 356.229 847.226C355.946 847.164 355.721 847.097 355.555 847.023L355.998 845.573C356.558 845.746 357.057 845.807 357.494 845.758C357.931 845.715 358.318 845.518 358.657 845.167C358.996 844.822 359.297 844.293 359.562 843.579L360.079 842.138L354.862 827.818H356.644L360.854 839.83H360.984L365.194 827.818H366.976L360.974 844.244C360.722 844.927 360.411 845.496 360.042 845.952C359.673 846.413 359.245 846.755 358.759 846.977C358.278 847.204 357.74 847.318 357.143 847.318ZM370.191 847.318V827.818H371.789V830.523H371.982C372.179 830.099 372.45 829.665 372.795 829.222C373.14 828.772 373.595 828.394 374.161 828.086C374.734 827.778 375.454 827.624 376.322 827.624C377.491 827.624 378.513 827.932 379.387 828.548C380.267 829.157 380.951 830.013 381.437 831.114C381.929 832.21 382.176 833.487 382.176 834.946C382.176 836.411 381.929 837.694 381.437 838.796C380.951 839.898 380.267 840.757 379.387 841.372C378.513 841.988 377.498 842.295 376.34 842.295C375.485 842.295 374.768 842.142 374.189 841.834C373.617 841.526 373.152 841.147 372.795 840.698C372.444 840.243 372.173 839.799 371.982 839.369H371.835V847.318H370.191ZM371.816 834.918C371.816 836.063 371.985 837.079 372.324 837.965C372.669 838.845 373.161 839.538 373.801 840.043C374.448 840.541 375.229 840.79 376.146 840.79C377.088 840.79 377.882 840.532 378.529 840.015C379.181 839.492 379.677 838.787 380.015 837.901C380.36 837.014 380.532 836.02 380.532 834.918C380.532 833.829 380.363 832.847 380.024 831.973C379.692 831.099 379.2 830.406 378.547 829.896C377.895 829.379 377.094 829.12 376.146 829.12C375.223 829.12 374.438 829.369 373.792 829.868C373.146 830.36 372.653 831.044 372.315 831.918C371.982 832.786 371.816 833.786 371.816 834.918ZM391.515 842.295C390.191 842.295 389.046 841.988 388.08 841.372C387.114 840.75 386.366 839.892 385.836 838.796C385.313 837.694 385.052 836.426 385.052 834.992C385.052 833.564 385.313 832.296 385.836 831.188C386.366 830.074 387.095 829.203 388.025 828.575C388.96 827.941 390.041 827.624 391.265 827.624C392.035 827.624 392.777 827.766 393.491 828.049C394.205 828.326 394.845 828.754 395.411 829.332C395.983 829.905 396.436 830.628 396.768 831.502C397.101 832.37 397.267 833.398 397.267 834.586V835.398H386.187V833.949H395.586C395.586 833.038 395.402 832.219 395.032 831.493C394.669 830.76 394.162 830.182 393.509 829.757C392.863 829.332 392.115 829.12 391.265 829.12C390.367 829.12 389.576 829.36 388.893 829.84C388.209 830.32 387.674 830.954 387.286 831.742C386.904 832.53 386.711 833.392 386.704 834.327V835.195C386.704 836.322 386.898 837.307 387.286 838.15C387.68 838.987 388.237 839.636 388.957 840.098C389.677 840.56 390.53 840.79 391.515 840.79C392.186 840.79 392.773 840.686 393.278 840.477C393.789 840.267 394.217 839.987 394.562 839.636C394.912 839.279 395.177 838.888 395.356 838.464L396.916 838.972C396.701 839.569 396.347 840.12 395.854 840.624C395.368 841.129 394.759 841.535 394.026 841.843C393.3 842.145 392.463 842.295 391.515 842.295ZM409.346 847.318C409.02 847.318 408.715 847.287 408.432 847.226C408.149 847.164 407.924 847.097 407.758 847.023L408.201 845.573C408.761 845.746 409.26 845.807 409.697 845.758C410.134 845.715 410.522 845.518 410.86 845.167C411.199 844.822 411.5 844.293 411.765 843.579L412.282 842.138L407.065 827.818H408.847L413.058 839.83H413.187L417.397 827.818H419.179L413.178 844.244C412.925 844.927 412.614 845.496 412.245 845.952C411.876 846.413 411.448 846.755 410.962 846.977C410.482 847.204 409.943 847.318 409.346 847.318ZM427.399 842.295C426.174 842.295 425.09 841.985 424.149 841.363C423.213 840.741 422.481 839.883 421.951 838.787C421.422 837.685 421.157 836.414 421.157 834.974C421.157 833.521 421.422 832.244 421.951 831.142C422.481 830.034 423.213 829.172 424.149 828.557C425.09 827.935 426.174 827.624 427.399 827.624C428.624 827.624 429.704 827.935 430.639 828.557C431.575 829.179 432.307 830.04 432.837 831.142C433.372 832.244 433.64 833.521 433.64 834.974C433.64 836.414 433.375 837.685 432.846 838.787C432.317 839.883 431.581 840.741 430.639 841.363C429.704 841.985 428.624 842.295 427.399 842.295ZM427.399 840.79C428.383 840.79 429.218 840.526 429.901 839.996C430.584 839.467 431.101 838.762 431.452 837.882C431.809 837.002 431.987 836.032 431.987 834.974C431.987 833.915 431.809 832.942 431.452 832.056C431.101 831.17 430.584 830.459 429.901 829.923C429.218 829.388 428.383 829.12 427.399 829.12C426.42 829.12 425.586 829.388 424.896 829.923C424.213 830.459 423.693 831.17 423.336 832.056C422.985 832.942 422.81 833.915 422.81 834.974C422.81 836.032 422.985 837.002 423.336 837.882C423.693 838.762 424.213 839.467 424.896 839.996C425.58 840.526 426.414 840.79 427.399 840.79ZM446.259 836.58V827.818H447.903V842H446.259V839.646H446.13C445.798 840.372 445.271 840.978 444.551 841.464C443.831 841.945 442.951 842.185 441.911 842.185C441.006 842.185 440.202 841.988 439.501 841.594C438.799 841.194 438.248 840.609 437.848 839.839C437.448 839.07 437.248 838.125 437.248 837.005V827.818H438.891V836.903C438.891 838.011 439.218 838.904 439.87 839.581C440.522 840.252 441.36 840.587 442.381 840.587C443.022 840.587 443.637 840.433 444.228 840.126C444.819 839.818 445.305 839.369 445.687 838.778C446.068 838.181 446.259 837.448 446.259 836.58ZM452.254 842V827.818H453.851V829.997H453.971C454.254 829.283 454.747 828.708 455.448 828.271C456.156 827.827 456.956 827.606 457.849 827.606C457.984 827.606 458.135 827.609 458.301 827.615C458.468 827.621 458.606 827.627 458.717 827.634V829.305C458.643 829.292 458.514 829.274 458.329 829.249C458.144 829.225 457.944 829.212 457.729 829.212C456.99 829.212 456.332 829.369 455.753 829.683C455.181 829.991 454.728 830.419 454.396 830.967C454.063 831.514 453.897 832.139 453.897 832.841V842H452.254ZM468.834 842V827.818H470.431V829.997H470.579C470.862 829.265 471.333 828.689 471.991 828.271C472.656 827.846 473.453 827.634 474.383 827.634C475.362 827.634 476.165 827.864 476.793 828.326C477.427 828.781 477.901 829.409 478.214 830.21H478.335C478.655 829.422 479.175 828.797 479.895 828.335C480.621 827.867 481.501 827.634 482.536 827.634C483.853 827.634 484.893 828.049 485.656 828.88C486.42 829.705 486.801 830.911 486.801 832.499V842H485.158V832.499C485.158 831.379 484.871 830.539 484.299 829.979C483.727 829.419 482.973 829.138 482.037 829.138C480.954 829.138 480.12 829.471 479.535 830.136C478.95 830.8 478.658 831.644 478.658 832.665V842H476.977V832.352C476.977 831.391 476.71 830.616 476.174 830.025C475.638 829.434 474.884 829.138 473.912 829.138C473.259 829.138 472.672 829.299 472.148 829.619C471.631 829.939 471.222 830.385 470.92 830.957C470.625 831.524 470.477 832.176 470.477 832.915V842H468.834ZM496.886 842.295C495.562 842.295 494.418 841.988 493.451 841.372C492.485 840.75 491.737 839.892 491.208 838.796C490.684 837.694 490.423 836.426 490.423 834.992C490.423 833.564 490.684 832.296 491.208 831.188C491.737 830.074 492.466 829.203 493.396 828.575C494.331 827.941 495.412 827.624 496.637 827.624C497.406 827.624 498.148 827.766 498.862 828.049C499.576 828.326 500.216 828.754 500.782 829.332C501.355 829.905 501.807 830.628 502.139 831.502C502.472 832.37 502.638 833.398 502.638 834.586V835.398H491.558V833.949H500.958C500.958 833.038 500.773 832.219 500.404 831.493C500.04 830.76 499.533 830.182 498.88 829.757C498.234 829.332 497.486 829.12 496.637 829.12C495.738 829.12 494.947 829.36 494.264 829.84C493.58 830.32 493.045 830.954 492.657 831.742C492.276 832.53 492.082 833.392 492.075 834.327V835.195C492.075 836.322 492.269 837.307 492.657 838.15C493.051 838.987 493.608 839.636 494.328 840.098C495.048 840.56 495.901 840.79 496.886 840.79C497.557 840.79 498.145 840.686 498.649 840.477C499.16 840.267 499.588 839.987 499.933 839.636C500.284 839.279 500.548 838.888 500.727 838.464L502.287 838.972C502.072 839.569 501.718 840.12 501.225 840.624C500.739 841.129 500.13 841.535 499.397 841.843C498.671 842.145 497.834 842.295 496.886 842.295ZM515.788 830.93L514.283 831.354C514.135 830.93 513.926 830.545 513.655 830.2C513.384 829.856 513.03 829.582 512.593 829.379C512.163 829.175 511.627 829.074 510.987 829.074C510.027 829.074 509.239 829.302 508.623 829.757C508.008 830.213 507.7 830.8 507.7 831.521C507.7 832.13 507.909 832.625 508.328 833.007C508.752 833.383 509.405 833.681 510.285 833.903L512.427 834.429C513.615 834.718 514.505 835.177 515.096 835.805C515.693 836.433 515.991 837.22 515.991 838.168C515.991 838.969 515.77 839.679 515.326 840.301C514.883 840.923 514.265 841.412 513.471 841.769C512.683 842.12 511.769 842.295 510.728 842.295C509.343 842.295 508.202 841.985 507.303 841.363C506.404 840.735 505.829 839.83 505.576 838.648L507.155 838.261C507.358 839.104 507.755 839.741 508.346 840.172C508.943 840.603 509.728 840.818 510.701 840.818C511.79 840.818 512.661 840.575 513.314 840.089C513.966 839.596 514.292 838.981 514.292 838.242C514.292 837.67 514.101 837.19 513.72 836.802C513.338 836.408 512.76 836.119 511.984 835.934L509.667 835.38C508.435 835.085 507.525 834.617 506.934 833.977C506.343 833.336 506.047 832.542 506.047 831.594C506.047 830.813 506.26 830.126 506.684 829.536C507.109 828.938 507.694 828.471 508.439 828.132C509.183 827.794 510.033 827.624 510.987 827.624C512.286 827.624 513.323 827.92 514.098 828.511C514.88 829.095 515.443 829.902 515.788 830.93ZM529.118 830.93L527.613 831.354C527.465 830.93 527.256 830.545 526.985 830.2C526.714 829.856 526.36 829.582 525.923 829.379C525.493 829.175 524.957 829.074 524.317 829.074C523.357 829.074 522.569 829.302 521.953 829.757C521.338 830.213 521.03 830.8 521.03 831.521C521.03 832.13 521.239 832.625 521.658 833.007C522.083 833.383 522.735 833.681 523.615 833.903L525.757 834.429C526.945 834.718 527.835 835.177 528.426 835.805C529.023 836.433 529.321 837.22 529.321 838.168C529.321 838.969 529.1 839.679 528.656 840.301C528.213 840.923 527.595 841.412 526.801 841.769C526.013 842.12 525.099 842.295 524.058 842.295C522.673 842.295 521.532 841.985 520.633 841.363C519.734 840.735 519.159 839.83 518.906 838.648L520.485 838.261C520.688 839.104 521.085 839.741 521.676 840.172C522.273 840.603 523.058 840.818 524.031 840.818C525.12 840.818 525.991 840.575 526.644 840.089C527.296 839.596 527.622 838.981 527.622 838.242C527.622 837.67 527.432 837.19 527.05 836.802C526.668 836.408 526.09 836.119 525.314 835.934L522.997 835.38C521.766 835.085 520.855 834.617 520.264 833.977C519.673 833.336 519.377 832.542 519.377 831.594C519.377 830.813 519.59 830.126 520.014 829.536C520.439 828.938 521.024 828.471 521.769 828.132C522.513 827.794 523.363 827.624 524.317 827.624C525.616 827.624 526.653 827.92 527.428 828.511C528.21 829.095 528.773 829.902 529.118 830.93ZM536.881 842.323C536.025 842.323 535.243 842.157 534.536 841.825C533.828 841.486 533.264 841 532.846 840.366C532.427 839.726 532.218 838.95 532.218 838.039C532.218 837.337 532.35 836.746 532.615 836.266C532.88 835.786 533.255 835.392 533.741 835.085C534.228 834.777 534.803 834.534 535.468 834.355C536.133 834.177 536.865 834.038 537.665 833.94C538.46 833.841 539.13 833.755 539.678 833.681C540.232 833.607 540.654 833.49 540.943 833.33C541.232 833.17 541.377 832.912 541.377 832.555V832.222C541.377 831.256 541.088 830.496 540.509 829.942C539.937 829.382 539.112 829.102 538.035 829.102C537.013 829.102 536.179 829.326 535.533 829.776C534.893 830.225 534.443 830.754 534.185 831.364L532.624 830.8C532.944 830.025 533.388 829.406 533.954 828.945C534.52 828.477 535.154 828.141 535.856 827.938C536.558 827.729 537.268 827.624 537.989 827.624C538.53 827.624 539.094 827.695 539.678 827.837C540.269 827.978 540.817 828.224 541.322 828.575C541.826 828.92 542.236 829.403 542.55 830.025C542.864 830.64 543.021 831.422 543.021 832.37V842H541.377V839.756H541.276C541.079 840.175 540.786 840.581 540.398 840.975C540.011 841.369 539.524 841.692 538.94 841.945C538.355 842.197 537.669 842.323 536.881 842.323ZM537.102 840.818C537.976 840.818 538.733 840.624 539.374 840.237C540.014 839.849 540.506 839.335 540.851 838.695C541.202 838.048 541.377 837.337 541.377 836.562V834.512C541.254 834.629 541.048 834.734 540.759 834.826C540.475 834.918 540.146 835.001 539.771 835.075C539.401 835.143 539.032 835.201 538.663 835.251C538.293 835.3 537.961 835.343 537.665 835.38C536.865 835.478 536.182 835.632 535.616 835.842C535.049 836.051 534.616 836.34 534.314 836.71C534.012 837.073 533.862 837.54 533.862 838.113C533.862 838.975 534.169 839.643 534.785 840.116C535.4 840.584 536.173 840.818 537.102 840.818ZM552.803 847.614C551.837 847.614 550.99 847.487 550.264 847.235C549.538 846.989 548.925 846.65 548.426 846.219C547.928 845.789 547.54 845.305 547.263 844.77L548.611 843.884C548.814 844.241 549.085 844.591 549.424 844.936C549.768 845.281 550.215 845.567 550.762 845.795C551.316 846.022 551.997 846.136 552.803 846.136C554.059 846.136 555.071 845.822 555.841 845.195C556.616 844.567 557.004 843.591 557.004 842.268V839.073H556.856C556.665 839.504 556.391 839.935 556.034 840.366C555.677 840.79 555.21 841.144 554.631 841.428C554.059 841.711 553.348 841.852 552.498 841.852C551.366 841.852 550.359 841.572 549.479 841.012C548.605 840.452 547.916 839.652 547.411 838.612C546.912 837.565 546.663 836.319 546.663 834.872C546.663 833.438 546.906 832.176 547.392 831.087C547.885 829.997 548.571 829.148 549.451 828.538C550.332 827.929 551.356 827.624 552.526 827.624C553.394 827.624 554.114 827.778 554.686 828.086C555.259 828.388 555.717 828.763 556.062 829.212C556.413 829.662 556.687 830.099 556.884 830.523H557.05V827.818H558.657V842.369C558.657 843.57 558.401 844.558 557.89 845.333C557.379 846.109 556.684 846.681 555.804 847.05C554.923 847.426 553.923 847.614 552.803 847.614ZM552.692 840.347C553.603 840.347 554.382 840.129 555.028 839.692C555.674 839.249 556.17 838.615 556.515 837.79C556.859 836.965 557.032 835.983 557.032 834.844C557.032 833.737 556.862 832.755 556.524 831.899C556.185 831.037 555.693 830.36 555.047 829.868C554.406 829.369 553.622 829.12 552.692 829.12C551.744 829.12 550.944 829.375 550.292 829.886C549.639 830.397 549.147 831.087 548.814 831.955C548.482 832.816 548.316 833.78 548.316 834.844C548.316 835.928 548.485 836.885 548.824 837.716C549.162 838.541 549.658 839.187 550.31 839.655C550.962 840.116 551.757 840.347 552.692 840.347ZM568.741 842.295C567.418 842.295 566.273 841.988 565.307 841.372C564.34 840.75 563.592 839.892 563.063 838.796C562.54 837.694 562.278 836.426 562.278 834.992C562.278 833.564 562.54 832.296 563.063 831.188C563.592 830.074 564.322 829.203 565.251 828.575C566.187 827.941 567.267 827.624 568.492 827.624C569.261 827.624 570.003 827.766 570.717 828.049C571.431 828.326 572.071 828.754 572.638 829.332C573.21 829.905 573.662 830.628 573.995 831.502C574.327 832.37 574.493 833.398 574.493 834.586V835.398H563.414V833.949H572.813C572.813 833.038 572.628 832.219 572.259 831.493C571.896 830.76 571.388 830.182 570.736 829.757C570.089 829.332 569.341 829.12 568.492 829.12C567.593 829.12 566.802 829.36 566.119 829.84C565.436 830.32 564.9 830.954 564.513 831.742C564.131 832.53 563.937 833.392 563.931 834.327V835.195C563.931 836.322 564.125 837.307 564.513 838.15C564.907 838.987 565.464 839.636 566.184 840.098C566.904 840.56 567.756 840.79 568.741 840.79C569.412 840.79 570 840.686 570.505 840.477C571.016 840.267 571.443 839.987 571.788 839.636C572.139 839.279 572.404 838.888 572.582 838.464L574.143 838.972C573.927 839.569 573.573 840.12 573.081 840.624C572.595 841.129 571.985 841.535 571.253 841.843C570.526 842.145 569.689 842.295 568.741 842.295Z" fill="#231F20" fill-opacity="0.34"/>
<rect x="354" y="284" width="490" height="55" rx="12" fill="#FED0AB"/>
<rect x="354" y="284" width="490" height="55" rx="12" fill="#FED0AB"/>
<path d="M391.114 321V303.545H393.227V311.318H402.534V303.545H404.648V321H402.534V313.193H393.227V321H391.114ZM408.607 321V307.909H410.618V321H408.607ZM409.629 305.727C409.237 305.727 408.899 305.594 408.615 305.327C408.337 305.06 408.197 304.739 408.197 304.364C408.197 303.989 408.337 303.668 408.615 303.401C408.899 303.134 409.237 303 409.629 303C410.021 303 410.357 303.134 410.635 303.401C410.919 303.668 411.061 303.989 411.061 304.364C411.061 304.739 410.919 305.06 410.635 305.327C410.357 305.594 410.021 305.727 409.629 305.727ZM417.302 318.614L417.165 319.534C417.069 320.182 416.921 320.875 416.722 321.614C416.529 322.352 416.327 323.048 416.117 323.702C415.907 324.355 415.734 324.875 415.597 325.261H414.063C414.137 324.898 414.234 324.418 414.353 323.821C414.472 323.224 414.592 322.557 414.711 321.818C414.836 321.085 414.938 320.335 415.018 319.568L415.12 318.614H417.302ZM428.051 321V303.545H430.165V311.318H439.472V303.545H441.585V321H439.472V313.193H430.165V321H428.051ZM450.862 321.273C449.68 321.273 448.643 320.991 447.751 320.429C446.865 319.866 446.172 319.08 445.672 318.068C445.178 317.057 444.93 315.875 444.93 314.523C444.93 313.159 445.178 311.969 445.672 310.952C446.172 309.935 446.865 309.145 447.751 308.582C448.643 308.02 449.68 307.739 450.862 307.739C452.044 307.739 453.078 308.02 453.964 308.582C454.857 309.145 455.55 309.935 456.044 310.952C456.544 311.969 456.794 313.159 456.794 314.523C456.794 315.875 456.544 317.057 456.044 318.068C455.55 319.08 454.857 319.866 453.964 320.429C453.078 320.991 452.044 321.273 450.862 321.273ZM450.862 319.466C451.76 319.466 452.499 319.236 453.078 318.776C453.658 318.315 454.087 317.71 454.365 316.96C454.643 316.21 454.783 315.398 454.783 314.523C454.783 313.648 454.643 312.832 454.365 312.077C454.087 311.321 453.658 310.71 453.078 310.244C452.499 309.778 451.76 309.545 450.862 309.545C449.964 309.545 449.226 309.778 448.646 310.244C448.067 310.71 447.638 311.321 447.359 312.077C447.081 312.832 446.942 313.648 446.942 314.523C446.942 315.398 447.081 316.21 447.359 316.96C447.638 317.71 448.067 318.315 448.646 318.776C449.226 319.236 449.964 319.466 450.862 319.466ZM462.385 321L458.396 307.909H460.51L463.339 317.932H463.476L466.271 307.909H468.419L471.18 317.898H471.317L474.146 307.909H476.26L472.271 321H470.294L467.43 310.943H467.226L464.362 321H462.385ZM485.669 321V307.909H487.612V309.955H487.783C488.055 309.256 488.496 308.713 489.104 308.327C489.712 307.935 490.442 307.739 491.294 307.739C492.158 307.739 492.876 307.935 493.45 308.327C494.03 308.713 494.482 309.256 494.805 309.955H494.942C495.277 309.278 495.78 308.741 496.45 308.344C497.121 307.94 497.925 307.739 498.862 307.739C500.033 307.739 500.99 308.105 501.734 308.838C502.479 309.565 502.851 310.699 502.851 312.239V321H500.839V312.239C500.839 311.273 500.575 310.582 500.047 310.168C499.518 309.753 498.896 309.545 498.18 309.545C497.26 309.545 496.547 309.824 496.041 310.381C495.536 310.932 495.283 311.631 495.283 312.477V321H493.237V312.034C493.237 311.29 492.996 310.69 492.513 310.236C492.03 309.776 491.408 309.545 490.646 309.545C490.124 309.545 489.635 309.685 489.18 309.963C488.732 310.241 488.368 310.628 488.089 311.122C487.817 311.611 487.68 312.176 487.68 312.818V321H485.669ZM510.381 321.307C509.551 321.307 508.798 321.151 508.122 320.838C507.446 320.52 506.909 320.062 506.511 319.466C506.114 318.864 505.915 318.136 505.915 317.284C505.915 316.534 506.063 315.926 506.358 315.46C506.653 314.989 507.048 314.619 507.543 314.352C508.037 314.085 508.582 313.886 509.179 313.756C509.781 313.619 510.386 313.511 510.994 313.432C511.79 313.33 512.435 313.253 512.929 313.202C513.429 313.145 513.793 313.051 514.02 312.92C514.253 312.79 514.369 312.562 514.369 312.239V312.17C514.369 311.33 514.139 310.676 513.679 310.21C513.224 309.744 512.534 309.511 511.608 309.511C510.648 309.511 509.895 309.722 509.349 310.142C508.804 310.562 508.42 311.011 508.199 311.489L506.29 310.807C506.631 310.011 507.085 309.392 507.653 308.949C508.227 308.5 508.852 308.187 509.528 308.011C510.21 307.83 510.881 307.739 511.54 307.739C511.96 307.739 512.443 307.79 512.989 307.892C513.54 307.989 514.071 308.19 514.582 308.497C515.099 308.804 515.528 309.267 515.869 309.886C516.21 310.506 516.381 311.335 516.381 312.375V321H514.369V319.227H514.267C514.131 319.511 513.903 319.815 513.585 320.139C513.267 320.463 512.844 320.739 512.315 320.966C511.787 321.193 511.142 321.307 510.381 321.307ZM510.688 319.5C511.483 319.5 512.153 319.344 512.699 319.031C513.25 318.719 513.665 318.315 513.943 317.821C514.227 317.327 514.369 316.807 514.369 316.261V314.42C514.284 314.523 514.097 314.616 513.807 314.702C513.523 314.781 513.193 314.852 512.818 314.915C512.449 314.972 512.088 315.023 511.736 315.068C511.389 315.108 511.108 315.142 510.892 315.17C510.369 315.239 509.881 315.349 509.426 315.503C508.977 315.651 508.614 315.875 508.335 316.176C508.063 316.472 507.926 316.875 507.926 317.386C507.926 318.085 508.185 318.614 508.702 318.972C509.224 319.324 509.886 319.5 510.688 319.5ZM520.879 325.909C520.538 325.909 520.234 325.881 519.967 325.824C519.7 325.773 519.515 325.722 519.413 325.67L519.924 323.898C520.413 324.023 520.844 324.068 521.219 324.034C521.594 324 521.927 323.832 522.217 323.531C522.512 323.236 522.782 322.756 523.026 322.091L523.401 321.068L518.56 307.909H520.742L524.356 318.341H524.492L528.106 307.909H530.288L524.731 322.909C524.481 323.585 524.171 324.145 523.802 324.588C523.433 325.037 523.004 325.369 522.515 325.585C522.032 325.801 521.487 325.909 520.879 325.909ZM539.692 321V307.909H541.704V321H539.692ZM540.715 305.727C540.323 305.727 539.985 305.594 539.701 305.327C539.423 305.06 539.283 304.739 539.283 304.364C539.283 303.989 539.423 303.668 539.701 303.401C539.985 303.134 540.323 303 540.715 303C541.107 303 541.442 303.134 541.721 303.401C542.005 303.668 542.147 303.989 542.147 304.364C542.147 304.739 542.005 305.06 541.721 305.327C541.442 305.594 541.107 305.727 540.715 305.727ZM554.149 313.125V321H552.138V303.545H554.149V309.955H554.32C554.626 309.278 555.087 308.741 555.7 308.344C556.32 307.94 557.143 307.739 558.172 307.739C559.064 307.739 559.845 307.918 560.516 308.276C561.186 308.628 561.706 309.17 562.075 309.903C562.45 310.631 562.638 311.557 562.638 312.682V321H560.626V312.818C560.626 311.778 560.357 310.974 559.817 310.406C559.283 309.832 558.541 309.545 557.592 309.545C556.933 309.545 556.342 309.685 555.82 309.963C555.303 310.241 554.893 310.648 554.592 311.182C554.297 311.716 554.149 312.364 554.149 313.125ZM571.806 321.273C570.545 321.273 569.457 320.994 568.542 320.438C567.633 319.875 566.931 319.091 566.437 318.085C565.948 317.074 565.704 315.898 565.704 314.557C565.704 313.216 565.948 312.034 566.437 311.011C566.931 309.983 567.619 309.182 568.499 308.608C569.386 308.028 570.42 307.739 571.602 307.739C572.283 307.739 572.957 307.852 573.621 308.08C574.286 308.307 574.891 308.676 575.437 309.188C575.982 309.693 576.417 310.364 576.741 311.199C577.065 312.034 577.227 313.062 577.227 314.284V315.136H567.136V313.398H575.181C575.181 312.659 575.033 312 574.738 311.42C574.448 310.841 574.033 310.384 573.494 310.048C572.96 309.713 572.329 309.545 571.602 309.545C570.8 309.545 570.107 309.744 569.522 310.142C568.942 310.534 568.496 311.045 568.184 311.676C567.871 312.307 567.715 312.983 567.715 313.705V314.864C567.715 315.852 567.886 316.69 568.227 317.378C568.573 318.06 569.053 318.58 569.667 318.938C570.281 319.29 570.994 319.466 571.806 319.466C572.335 319.466 572.812 319.392 573.238 319.244C573.67 319.091 574.042 318.864 574.354 318.562C574.667 318.256 574.908 317.875 575.079 317.42L577.022 317.966C576.817 318.625 576.474 319.205 575.991 319.705C575.508 320.199 574.911 320.585 574.201 320.864C573.491 321.136 572.692 321.273 571.806 321.273ZM582.298 303.545V321H580.286V303.545H582.298ZM585.982 325.909V307.909H587.925V309.989H588.163C588.311 309.761 588.516 309.472 588.777 309.119C589.044 308.761 589.425 308.443 589.919 308.165C590.419 307.881 591.095 307.739 591.947 307.739C593.05 307.739 594.021 308.014 594.862 308.565C595.703 309.116 596.359 309.898 596.831 310.909C597.303 311.92 597.538 313.114 597.538 314.489C597.538 315.875 597.303 317.077 596.831 318.094C596.359 319.105 595.706 319.889 594.871 320.446C594.036 320.997 593.072 321.273 591.982 321.273C591.141 321.273 590.467 321.134 589.962 320.855C589.456 320.571 589.067 320.25 588.794 319.892C588.521 319.528 588.311 319.227 588.163 318.989H587.993V325.909H585.982ZM587.959 314.455C587.959 315.443 588.104 316.315 588.393 317.071C588.683 317.821 589.107 318.409 589.663 318.835C590.22 319.256 590.902 319.466 591.709 319.466C592.55 319.466 593.251 319.244 593.814 318.801C594.382 318.352 594.808 317.75 595.092 316.994C595.382 316.233 595.527 315.386 595.527 314.455C595.527 313.534 595.385 312.705 595.101 311.966C594.822 311.222 594.399 310.634 593.831 310.202C593.268 309.764 592.561 309.545 591.709 309.545C590.891 309.545 590.203 309.753 589.646 310.168C589.089 310.577 588.669 311.151 588.385 311.889C588.101 312.622 587.959 313.477 587.959 314.455ZM608.652 325.909C608.311 325.909 608.007 325.881 607.74 325.824C607.473 325.773 607.288 325.722 607.186 325.67L607.697 323.898C608.186 324.023 608.618 324.068 608.993 324.034C609.368 324 609.7 323.832 609.99 323.531C610.286 323.236 610.555 322.756 610.8 322.091L611.175 321.068L606.334 307.909H608.516L612.129 318.341H612.266L615.879 307.909H618.061L612.504 322.909C612.254 323.585 611.945 324.145 611.575 324.588C611.206 325.037 610.777 325.369 610.288 325.585C609.805 325.801 609.26 325.909 608.652 325.909ZM625.565 321.273C624.384 321.273 623.347 320.991 622.455 320.429C621.568 319.866 620.875 319.08 620.375 318.068C619.881 317.057 619.634 315.875 619.634 314.523C619.634 313.159 619.881 311.969 620.375 310.952C620.875 309.935 621.568 309.145 622.455 308.582C623.347 308.02 624.384 307.739 625.565 307.739C626.747 307.739 627.781 308.02 628.668 308.582C629.56 309.145 630.253 309.935 630.747 310.952C631.247 311.969 631.497 313.159 631.497 314.523C631.497 315.875 631.247 317.057 630.747 318.068C630.253 319.08 629.56 319.866 628.668 320.429C627.781 320.991 626.747 321.273 625.565 321.273ZM625.565 319.466C626.463 319.466 627.202 319.236 627.781 318.776C628.361 318.315 628.79 317.71 629.068 316.96C629.347 316.21 629.486 315.398 629.486 314.523C629.486 313.648 629.347 312.832 629.068 312.077C628.79 311.321 628.361 310.71 627.781 310.244C627.202 309.778 626.463 309.545 625.565 309.545C624.668 309.545 623.929 309.778 623.349 310.244C622.77 310.71 622.341 311.321 622.062 312.077C621.784 312.832 621.645 313.648 621.645 314.523C621.645 315.398 621.784 316.21 622.062 316.96C622.341 317.71 622.77 318.315 623.349 318.776C623.929 319.236 624.668 319.466 625.565 319.466ZM642.817 315.648V307.909H644.829V321H642.817V318.784H642.681C642.374 319.449 641.897 320.014 641.249 320.48C640.602 320.94 639.783 321.17 638.795 321.17C637.977 321.17 637.249 320.991 636.613 320.634C635.977 320.27 635.477 319.724 635.113 318.997C634.749 318.264 634.567 317.341 634.567 316.227V307.909H636.579V316.091C636.579 317.045 636.846 317.807 637.38 318.375C637.92 318.943 638.607 319.227 639.442 319.227C639.942 319.227 640.451 319.099 640.968 318.844C641.491 318.588 641.928 318.196 642.281 317.668C642.638 317.139 642.817 316.466 642.817 315.648ZM660.956 307.909V309.614H654.172V307.909H660.956ZM656.149 304.773H658.161V317.25C658.161 317.818 658.243 318.244 658.408 318.528C658.578 318.807 658.794 318.994 659.055 319.091C659.322 319.182 659.604 319.227 659.899 319.227C660.121 319.227 660.303 319.216 660.445 319.193C660.587 319.165 660.7 319.142 660.786 319.125L661.195 320.932C661.058 320.983 660.868 321.034 660.624 321.085C660.379 321.142 660.07 321.17 659.695 321.17C659.126 321.17 658.57 321.048 658.024 320.804C657.484 320.56 657.036 320.188 656.678 319.688C656.325 319.188 656.149 318.557 656.149 317.795V304.773ZM669.159 321.273C667.977 321.273 666.94 320.991 666.048 320.429C665.162 319.866 664.469 319.08 663.969 318.068C663.474 317.057 663.227 315.875 663.227 314.523C663.227 313.159 663.474 311.969 663.969 310.952C664.469 309.935 665.162 309.145 666.048 308.582C666.94 308.02 667.977 307.739 669.159 307.739C670.341 307.739 671.375 308.02 672.261 308.582C673.153 309.145 673.847 309.935 674.341 310.952C674.841 311.969 675.091 313.159 675.091 314.523C675.091 315.875 674.841 317.057 674.341 318.068C673.847 319.08 673.153 319.866 672.261 320.429C671.375 320.991 670.341 321.273 669.159 321.273ZM669.159 319.466C670.057 319.466 670.795 319.236 671.375 318.776C671.955 318.315 672.384 317.71 672.662 316.96C672.94 316.21 673.08 315.398 673.08 314.523C673.08 313.648 672.94 312.832 672.662 312.077C672.384 311.321 671.955 310.71 671.375 310.244C670.795 309.778 670.057 309.545 669.159 309.545C668.261 309.545 667.523 309.778 666.943 310.244C666.364 310.71 665.935 311.321 665.656 312.077C665.378 312.832 665.239 313.648 665.239 314.523C665.239 315.398 665.378 316.21 665.656 316.96C665.935 317.71 666.364 318.315 666.943 318.776C667.523 319.236 668.261 319.466 669.159 319.466ZM683.104 321.273C682.013 321.273 681.05 320.997 680.215 320.446C679.38 319.889 678.727 319.105 678.255 318.094C677.783 317.077 677.548 315.875 677.548 314.489C677.548 313.114 677.783 311.92 678.255 310.909C678.727 309.898 679.383 309.116 680.224 308.565C681.065 308.014 682.036 307.739 683.138 307.739C683.991 307.739 684.664 307.881 685.158 308.165C685.658 308.443 686.039 308.761 686.3 309.119C686.567 309.472 686.775 309.761 686.923 309.989H687.093V303.545H689.104V321H687.161V318.989H686.923C686.775 319.227 686.565 319.528 686.292 319.892C686.019 320.25 685.63 320.571 685.124 320.855C684.619 321.134 683.945 321.273 683.104 321.273ZM683.377 319.466C684.184 319.466 684.866 319.256 685.423 318.835C685.979 318.409 686.403 317.821 686.692 317.071C686.982 316.315 687.127 315.443 687.127 314.455C687.127 313.477 686.985 312.622 686.701 311.889C686.417 311.151 685.996 310.577 685.44 310.168C684.883 309.753 684.195 309.545 683.377 309.545C682.525 309.545 681.815 309.764 681.246 310.202C680.684 310.634 680.261 311.222 679.977 311.966C679.698 312.705 679.559 313.534 679.559 314.455C679.559 315.386 679.701 316.233 679.985 316.994C680.275 317.75 680.701 318.352 681.263 318.801C681.832 319.244 682.536 319.466 683.377 319.466ZM696.92 321.307C696.09 321.307 695.337 321.151 694.661 320.838C693.985 320.52 693.448 320.062 693.05 319.466C692.653 318.864 692.454 318.136 692.454 317.284C692.454 316.534 692.602 315.926 692.897 315.46C693.192 314.989 693.587 314.619 694.082 314.352C694.576 314.085 695.121 313.886 695.718 313.756C696.32 313.619 696.925 313.511 697.533 313.432C698.329 313.33 698.974 313.253 699.468 313.202C699.968 313.145 700.332 313.051 700.559 312.92C700.792 312.79 700.908 312.562 700.908 312.239V312.17C700.908 311.33 700.678 310.676 700.218 310.21C699.763 309.744 699.073 309.511 698.147 309.511C697.187 309.511 696.434 309.722 695.888 310.142C695.343 310.562 694.96 311.011 694.738 311.489L692.829 310.807C693.17 310.011 693.624 309.392 694.192 308.949C694.766 308.5 695.391 308.187 696.067 308.011C696.749 307.83 697.42 307.739 698.079 307.739C698.499 307.739 698.982 307.79 699.528 307.892C700.079 307.989 700.61 308.19 701.121 308.497C701.638 308.804 702.067 309.267 702.408 309.886C702.749 310.506 702.92 311.335 702.92 312.375V321H700.908V319.227H700.806C700.67 319.511 700.442 319.815 700.124 320.139C699.806 320.463 699.383 320.739 698.854 320.966C698.326 321.193 697.681 321.307 696.92 321.307ZM697.227 319.5C698.022 319.5 698.692 319.344 699.238 319.031C699.789 318.719 700.204 318.315 700.482 317.821C700.766 317.327 700.908 316.807 700.908 316.261V314.42C700.823 314.523 700.636 314.616 700.346 314.702C700.062 314.781 699.732 314.852 699.357 314.915C698.988 314.972 698.627 315.023 698.275 315.068C697.928 315.108 697.647 315.142 697.431 315.17C696.908 315.239 696.42 315.349 695.965 315.503C695.516 315.651 695.153 315.875 694.874 316.176C694.602 316.472 694.465 316.875 694.465 317.386C694.465 318.085 694.724 318.614 695.241 318.972C695.763 319.324 696.425 319.5 697.227 319.5ZM707.418 325.909C707.077 325.909 706.773 325.881 706.506 325.824C706.239 325.773 706.054 325.722 705.952 325.67L706.463 323.898C706.952 324.023 707.384 324.068 707.759 324.034C708.134 324 708.466 323.832 708.756 323.531C709.051 323.236 709.321 322.756 709.565 322.091L709.94 321.068L705.099 307.909H707.281L710.895 318.341H711.031L714.645 307.909H716.827L711.27 322.909C711.02 323.585 710.71 324.145 710.341 324.588C709.972 325.037 709.543 325.369 709.054 325.585C708.571 325.801 708.026 325.909 707.418 325.909ZM722.107 316.091V315.989C722.118 314.903 722.232 314.04 722.447 313.398C722.663 312.756 722.97 312.236 723.368 311.838C723.766 311.44 724.243 311.074 724.8 310.739C725.135 310.534 725.436 310.293 725.703 310.014C725.97 309.73 726.18 309.403 726.334 309.034C726.493 308.665 726.572 308.256 726.572 307.807C726.572 307.25 726.442 306.767 726.18 306.358C725.919 305.949 725.57 305.634 725.132 305.412C724.695 305.19 724.209 305.08 723.675 305.08C723.209 305.08 722.76 305.176 722.328 305.369C721.896 305.562 721.536 305.866 721.246 306.281C720.956 306.696 720.788 307.239 720.743 307.909H718.595C718.641 306.943 718.891 306.116 719.345 305.429C719.805 304.741 720.411 304.216 721.161 303.852C721.916 303.489 722.754 303.307 723.675 303.307C724.675 303.307 725.544 303.506 726.283 303.903C727.027 304.301 727.601 304.847 728.004 305.54C728.413 306.233 728.618 307.023 728.618 307.909C728.618 308.534 728.521 309.099 728.328 309.605C728.141 310.111 727.868 310.562 727.51 310.96C727.158 311.358 726.732 311.71 726.232 312.017C725.732 312.33 725.331 312.659 725.03 313.006C724.729 313.347 724.51 313.753 724.374 314.224C724.237 314.696 724.163 315.284 724.152 315.989V316.091H722.107ZM723.197 321.136C722.777 321.136 722.416 320.986 722.115 320.685C721.814 320.384 721.663 320.023 721.663 319.602C721.663 319.182 721.814 318.821 722.115 318.52C722.416 318.219 722.777 318.068 723.197 318.068C723.618 318.068 723.979 318.219 724.28 318.52C724.581 318.821 724.732 319.182 724.732 319.602C724.732 319.881 724.661 320.136 724.518 320.369C724.382 320.602 724.197 320.79 723.964 320.932C723.737 321.068 723.482 321.136 723.197 321.136Z" fill="#2D2D2D"/>
<rect x="676" y="390" width="490" height="55" rx="12" fill="#FED0AB"/>
<rect x="676" y="390" width="490" height="55" rx="12" fill="#BFBDF4"/>
<path d="M713.114 427V409.545H715.227V417.318H724.534V409.545H726.648V427H724.534V419.193H715.227V427H713.114ZM730.607 427V413.909H732.618V427H730.607ZM731.629 411.727C731.237 411.727 730.899 411.594 730.615 411.327C730.337 411.06 730.197 410.739 730.197 410.364C730.197 409.989 730.337 409.668 730.615 409.401C730.899 409.134 731.237 409 731.629 409C732.021 409 732.357 409.134 732.635 409.401C732.919 409.668 733.061 409.989 733.061 410.364C733.061 410.739 732.919 411.06 732.635 411.327C732.357 411.594 732.021 411.727 731.629 411.727ZM739.302 424.614L739.165 425.534C739.069 426.182 738.921 426.875 738.722 427.614C738.529 428.352 738.327 429.048 738.117 429.702C737.907 430.355 737.734 430.875 737.597 431.261H736.063C736.137 430.898 736.234 430.418 736.353 429.821C736.472 429.224 736.592 428.557 736.711 427.818C736.836 427.085 736.938 426.335 737.018 425.568L737.12 424.614H739.302ZM750.051 427V409.545H752.165V417.318H761.472V409.545H763.585V427H761.472V419.193H752.165V427H750.051ZM772.862 427.273C771.68 427.273 770.643 426.991 769.751 426.429C768.865 425.866 768.172 425.08 767.672 424.068C767.178 423.057 766.93 421.875 766.93 420.523C766.93 419.159 767.178 417.969 767.672 416.952C768.172 415.935 768.865 415.145 769.751 414.582C770.643 414.02 771.68 413.739 772.862 413.739C774.044 413.739 775.078 414.02 775.964 414.582C776.857 415.145 777.55 415.935 778.044 416.952C778.544 417.969 778.794 419.159 778.794 420.523C778.794 421.875 778.544 423.057 778.044 424.068C777.55 425.08 776.857 425.866 775.964 426.429C775.078 426.991 774.044 427.273 772.862 427.273ZM772.862 425.466C773.76 425.466 774.499 425.236 775.078 424.776C775.658 424.315 776.087 423.71 776.365 422.96C776.643 422.21 776.783 421.398 776.783 420.523C776.783 419.648 776.643 418.832 776.365 418.077C776.087 417.321 775.658 416.71 775.078 416.244C774.499 415.778 773.76 415.545 772.862 415.545C771.964 415.545 771.226 415.778 770.646 416.244C770.067 416.71 769.638 417.321 769.359 418.077C769.081 418.832 768.942 419.648 768.942 420.523C768.942 421.398 769.081 422.21 769.359 422.96C769.638 423.71 770.067 424.315 770.646 424.776C771.226 425.236 771.964 425.466 772.862 425.466ZM784.385 427L780.396 413.909H782.51L785.339 423.932H785.476L788.271 413.909H790.419L793.18 423.898H793.317L796.146 413.909H798.26L794.271 427H792.294L789.43 416.943H789.226L786.362 427H784.385ZM807.669 427V413.909H809.612V415.955H809.783C810.055 415.256 810.496 414.713 811.104 414.327C811.712 413.935 812.442 413.739 813.294 413.739C814.158 413.739 814.876 413.935 815.45 414.327C816.03 414.713 816.482 415.256 816.805 415.955H816.942C817.277 415.278 817.78 414.741 818.45 414.344C819.121 413.94 819.925 413.739 820.862 413.739C822.033 413.739 822.99 414.105 823.734 414.838C824.479 415.565 824.851 416.699 824.851 418.239V427H822.839V418.239C822.839 417.273 822.575 416.582 822.047 416.168C821.518 415.753 820.896 415.545 820.18 415.545C819.26 415.545 818.547 415.824 818.041 416.381C817.536 416.932 817.283 417.631 817.283 418.477V427H815.237V418.034C815.237 417.29 814.996 416.69 814.513 416.236C814.03 415.776 813.408 415.545 812.646 415.545C812.124 415.545 811.635 415.685 811.18 415.963C810.732 416.241 810.368 416.628 810.089 417.122C809.817 417.611 809.68 418.176 809.68 418.818V427H807.669ZM832.381 427.307C831.551 427.307 830.798 427.151 830.122 426.838C829.446 426.52 828.909 426.062 828.511 425.466C828.114 424.864 827.915 424.136 827.915 423.284C827.915 422.534 828.063 421.926 828.358 421.46C828.653 420.989 829.048 420.619 829.543 420.352C830.037 420.085 830.582 419.886 831.179 419.756C831.781 419.619 832.386 419.511 832.994 419.432C833.79 419.33 834.435 419.253 834.929 419.202C835.429 419.145 835.793 419.051 836.02 418.92C836.253 418.79 836.369 418.562 836.369 418.239V418.17C836.369 417.33 836.139 416.676 835.679 416.21C835.224 415.744 834.534 415.511 833.608 415.511C832.648 415.511 831.895 415.722 831.349 416.142C830.804 416.562 830.42 417.011 830.199 417.489L828.29 416.807C828.631 416.011 829.085 415.392 829.653 414.949C830.227 414.5 830.852 414.187 831.528 414.011C832.21 413.83 832.881 413.739 833.54 413.739C833.96 413.739 834.443 413.79 834.989 413.892C835.54 413.989 836.071 414.19 836.582 414.497C837.099 414.804 837.528 415.267 837.869 415.886C838.21 416.506 838.381 417.335 838.381 418.375V427H836.369V425.227H836.267C836.131 425.511 835.903 425.815 835.585 426.139C835.267 426.463 834.844 426.739 834.315 426.966C833.787 427.193 833.142 427.307 832.381 427.307ZM832.688 425.5C833.483 425.5 834.153 425.344 834.699 425.031C835.25 424.719 835.665 424.315 835.943 423.821C836.227 423.327 836.369 422.807 836.369 422.261V420.42C836.284 420.523 836.097 420.616 835.807 420.702C835.523 420.781 835.193 420.852 834.818 420.915C834.449 420.972 834.088 421.023 833.736 421.068C833.389 421.108 833.108 421.142 832.892 421.17C832.369 421.239 831.881 421.349 831.426 421.503C830.977 421.651 830.614 421.875 830.335 422.176C830.063 422.472 829.926 422.875 829.926 423.386C829.926 424.085 830.185 424.614 830.702 424.972C831.224 425.324 831.886 425.5 832.688 425.5ZM842.879 431.909C842.538 431.909 842.234 431.881 841.967 431.824C841.7 431.773 841.515 431.722 841.413 431.67L841.924 429.898C842.413 430.023 842.844 430.068 843.219 430.034C843.594 430 843.927 429.832 844.217 429.531C844.512 429.236 844.782 428.756 845.026 428.091L845.401 427.068L840.56 413.909H842.742L846.356 424.341H846.492L850.106 413.909H852.288L846.731 428.909C846.481 429.585 846.171 430.145 845.802 430.588C845.433 431.037 845.004 431.369 844.515 431.585C844.032 431.801 843.487 431.909 842.879 431.909ZM861.692 427V413.909H863.704V427H861.692ZM862.715 411.727C862.323 411.727 861.985 411.594 861.701 411.327C861.423 411.06 861.283 410.739 861.283 410.364C861.283 409.989 861.423 409.668 861.701 409.401C861.985 409.134 862.323 409 862.715 409C863.107 409 863.442 409.134 863.721 409.401C864.005 409.668 864.147 409.989 864.147 410.364C864.147 410.739 864.005 411.06 863.721 411.327C863.442 411.594 863.107 411.727 862.715 411.727ZM876.149 419.125V427H874.138V409.545H876.149V415.955H876.32C876.626 415.278 877.087 414.741 877.7 414.344C878.32 413.94 879.143 413.739 880.172 413.739C881.064 413.739 881.845 413.918 882.516 414.276C883.186 414.628 883.706 415.17 884.075 415.903C884.45 416.631 884.638 417.557 884.638 418.682V427H882.626V418.818C882.626 417.778 882.357 416.974 881.817 416.406C881.283 415.832 880.541 415.545 879.592 415.545C878.933 415.545 878.342 415.685 877.82 415.963C877.303 416.241 876.893 416.648 876.592 417.182C876.297 417.716 876.149 418.364 876.149 419.125ZM893.806 427.273C892.545 427.273 891.457 426.994 890.542 426.438C889.633 425.875 888.931 425.091 888.437 424.085C887.948 423.074 887.704 421.898 887.704 420.557C887.704 419.216 887.948 418.034 888.437 417.011C888.931 415.983 889.619 415.182 890.499 414.608C891.386 414.028 892.42 413.739 893.602 413.739C894.283 413.739 894.957 413.852 895.621 414.08C896.286 414.307 896.891 414.676 897.437 415.188C897.982 415.693 898.417 416.364 898.741 417.199C899.065 418.034 899.227 419.062 899.227 420.284V421.136H889.136V419.398H897.181C897.181 418.659 897.033 418 896.738 417.42C896.448 416.841 896.033 416.384 895.494 416.048C894.96 415.713 894.329 415.545 893.602 415.545C892.8 415.545 892.107 415.744 891.522 416.142C890.942 416.534 890.496 417.045 890.184 417.676C889.871 418.307 889.715 418.983 889.715 419.705V420.864C889.715 421.852 889.886 422.69 890.227 423.378C890.573 424.06 891.053 424.58 891.667 424.938C892.281 425.29 892.994 425.466 893.806 425.466C894.335 425.466 894.812 425.392 895.238 425.244C895.67 425.091 896.042 424.864 896.354 424.562C896.667 424.256 896.908 423.875 897.079 423.42L899.022 423.966C898.817 424.625 898.474 425.205 897.991 425.705C897.508 426.199 896.911 426.585 896.201 426.864C895.491 427.136 894.692 427.273 893.806 427.273ZM904.298 409.545V427H902.286V409.545H904.298ZM907.982 431.909V413.909H909.925V415.989H910.163C910.311 415.761 910.516 415.472 910.777 415.119C911.044 414.761 911.425 414.443 911.919 414.165C912.419 413.881 913.095 413.739 913.947 413.739C915.05 413.739 916.021 414.014 916.862 414.565C917.703 415.116 918.359 415.898 918.831 416.909C919.303 417.92 919.538 419.114 919.538 420.489C919.538 421.875 919.303 423.077 918.831 424.094C918.359 425.105 917.706 425.889 916.871 426.446C916.036 426.997 915.072 427.273 913.982 427.273C913.141 427.273 912.467 427.134 911.962 426.855C911.456 426.571 911.067 426.25 910.794 425.892C910.521 425.528 910.311 425.227 910.163 424.989H909.993V431.909H907.982ZM909.959 420.455C909.959 421.443 910.104 422.315 910.393 423.071C910.683 423.821 911.107 424.409 911.663 424.835C912.22 425.256 912.902 425.466 913.709 425.466C914.55 425.466 915.251 425.244 915.814 424.801C916.382 424.352 916.808 423.75 917.092 422.994C917.382 422.233 917.527 421.386 917.527 420.455C917.527 419.534 917.385 418.705 917.101 417.966C916.822 417.222 916.399 416.634 915.831 416.202C915.268 415.764 914.561 415.545 913.709 415.545C912.891 415.545 912.203 415.753 911.646 416.168C911.089 416.577 910.669 417.151 910.385 417.889C910.101 418.622 909.959 419.477 909.959 420.455ZM930.652 431.909C930.311 431.909 930.007 431.881 929.74 431.824C929.473 431.773 929.288 431.722 929.186 431.67L929.697 429.898C930.186 430.023 930.618 430.068 930.993 430.034C931.368 430 931.7 429.832 931.99 429.531C932.286 429.236 932.555 428.756 932.8 428.091L933.175 427.068L928.334 413.909H930.516L934.129 424.341H934.266L937.879 413.909H940.061L934.504 428.909C934.254 429.585 933.945 430.145 933.575 430.588C933.206 431.037 932.777 431.369 932.288 431.585C931.805 431.801 931.26 431.909 930.652 431.909ZM947.565 427.273C946.384 427.273 945.347 426.991 944.455 426.429C943.568 425.866 942.875 425.08 942.375 424.068C941.881 423.057 941.634 421.875 941.634 420.523C941.634 419.159 941.881 417.969 942.375 416.952C942.875 415.935 943.568 415.145 944.455 414.582C945.347 414.02 946.384 413.739 947.565 413.739C948.747 413.739 949.781 414.02 950.668 414.582C951.56 415.145 952.253 415.935 952.747 416.952C953.247 417.969 953.497 419.159 953.497 420.523C953.497 421.875 953.247 423.057 952.747 424.068C952.253 425.08 951.56 425.866 950.668 426.429C949.781 426.991 948.747 427.273 947.565 427.273ZM947.565 425.466C948.463 425.466 949.202 425.236 949.781 424.776C950.361 424.315 950.79 423.71 951.068 422.96C951.347 422.21 951.486 421.398 951.486 420.523C951.486 419.648 951.347 418.832 951.068 418.077C950.79 417.321 950.361 416.71 949.781 416.244C949.202 415.778 948.463 415.545 947.565 415.545C946.668 415.545 945.929 415.778 945.349 416.244C944.77 416.71 944.341 417.321 944.062 418.077C943.784 418.832 943.645 419.648 943.645 420.523C943.645 421.398 943.784 422.21 944.062 422.96C944.341 423.71 944.77 424.315 945.349 424.776C945.929 425.236 946.668 425.466 947.565 425.466ZM964.817 421.648V413.909H966.829V427H964.817V424.784H964.681C964.374 425.449 963.897 426.014 963.249 426.48C962.602 426.94 961.783 427.17 960.795 427.17C959.977 427.17 959.249 426.991 958.613 426.634C957.977 426.27 957.477 425.724 957.113 424.997C956.749 424.264 956.567 423.341 956.567 422.227V413.909H958.579V422.091C958.579 423.045 958.846 423.807 959.38 424.375C959.92 424.943 960.607 425.227 961.442 425.227C961.942 425.227 962.451 425.099 962.968 424.844C963.491 424.588 963.928 424.196 964.281 423.668C964.638 423.139 964.817 422.466 964.817 421.648ZM982.956 413.909V415.614H976.172V413.909H982.956ZM978.149 410.773H980.161V423.25C980.161 423.818 980.243 424.244 980.408 424.528C980.578 424.807 980.794 424.994 981.055 425.091C981.322 425.182 981.604 425.227 981.899 425.227C982.121 425.227 982.303 425.216 982.445 425.193C982.587 425.165 982.7 425.142 982.786 425.125L983.195 426.932C983.058 426.983 982.868 427.034 982.624 427.085C982.379 427.142 982.07 427.17 981.695 427.17C981.126 427.17 980.57 427.048 980.024 426.804C979.484 426.56 979.036 426.188 978.678 425.688C978.325 425.188 978.149 424.557 978.149 423.795V410.773ZM991.159 427.273C989.977 427.273 988.94 426.991 988.048 426.429C987.162 425.866 986.469 425.08 985.969 424.068C985.474 423.057 985.227 421.875 985.227 420.523C985.227 419.159 985.474 417.969 985.969 416.952C986.469 415.935 987.162 415.145 988.048 414.582C988.94 414.02 989.977 413.739 991.159 413.739C992.341 413.739 993.375 414.02 994.261 414.582C995.153 415.145 995.847 415.935 996.341 416.952C996.841 417.969 997.091 419.159 997.091 420.523C997.091 421.875 996.841 423.057 996.341 424.068C995.847 425.08 995.153 425.866 994.261 426.429C993.375 426.991 992.341 427.273 991.159 427.273ZM991.159 425.466C992.057 425.466 992.795 425.236 993.375 424.776C993.955 424.315 994.384 423.71 994.662 422.96C994.94 422.21 995.08 421.398 995.08 420.523C995.08 419.648 994.94 418.832 994.662 418.077C994.384 417.321 993.955 416.71 993.375 416.244C992.795 415.778 992.057 415.545 991.159 415.545C990.261 415.545 989.523 415.778 988.943 416.244C988.364 416.71 987.935 417.321 987.656 418.077C987.378 418.832 987.239 419.648 987.239 420.523C987.239 421.398 987.378 422.21 987.656 422.96C987.935 423.71 988.364 424.315 988.943 424.776C989.523 425.236 990.261 425.466 991.159 425.466ZM1005.1 427.273C1004.01 427.273 1003.05 426.997 1002.22 426.446C1001.38 425.889 1000.73 425.105 1000.25 424.094C999.783 423.077 999.548 421.875 999.548 420.489C999.548 419.114 999.783 417.92 1000.25 416.909C1000.73 415.898 1001.38 415.116 1002.22 414.565C1003.06 414.014 1004.04 413.739 1005.14 413.739C1005.99 413.739 1006.66 413.881 1007.16 414.165C1007.66 414.443 1008.04 414.761 1008.3 415.119C1008.57 415.472 1008.77 415.761 1008.92 415.989H1009.09V409.545H1011.1V427H1009.16V424.989H1008.92C1008.77 425.227 1008.56 425.528 1008.29 425.892C1008.02 426.25 1007.63 426.571 1007.12 426.855C1006.62 427.134 1005.95 427.273 1005.1 427.273ZM1005.38 425.466C1006.18 425.466 1006.87 425.256 1007.42 424.835C1007.98 424.409 1008.4 423.821 1008.69 423.071C1008.98 422.315 1009.13 421.443 1009.13 420.455C1009.13 419.477 1008.99 418.622 1008.7 417.889C1008.42 417.151 1008 416.577 1007.44 416.168C1006.88 415.753 1006.2 415.545 1005.38 415.545C1004.52 415.545 1003.81 415.764 1003.25 416.202C1002.68 416.634 1002.26 417.222 1001.98 417.966C1001.7 418.705 1001.56 419.534 1001.56 420.455C1001.56 421.386 1001.7 422.233 1001.99 422.994C1002.27 423.75 1002.7 424.352 1003.26 424.801C1003.83 425.244 1004.54 425.466 1005.38 425.466ZM1018.92 427.307C1018.09 427.307 1017.34 427.151 1016.66 426.838C1015.99 426.52 1015.45 426.062 1015.05 425.466C1014.65 424.864 1014.45 424.136 1014.45 423.284C1014.45 422.534 1014.6 421.926 1014.9 421.46C1015.19 420.989 1015.59 420.619 1016.08 420.352C1016.58 420.085 1017.12 419.886 1017.72 419.756C1018.32 419.619 1018.93 419.511 1019.53 419.432C1020.33 419.33 1020.97 419.253 1021.47 419.202C1021.97 419.145 1022.33 419.051 1022.56 418.92C1022.79 418.79 1022.91 418.562 1022.91 418.239V418.17C1022.91 417.33 1022.68 416.676 1022.22 416.21C1021.76 415.744 1021.07 415.511 1020.15 415.511C1019.19 415.511 1018.43 415.722 1017.89 416.142C1017.34 416.562 1016.96 417.011 1016.74 417.489L1014.83 416.807C1015.17 416.011 1015.62 415.392 1016.19 414.949C1016.77 414.5 1017.39 414.187 1018.07 414.011C1018.75 413.83 1019.42 413.739 1020.08 413.739C1020.5 413.739 1020.98 413.79 1021.53 413.892C1022.08 413.989 1022.61 414.19 1023.12 414.497C1023.64 414.804 1024.07 415.267 1024.41 415.886C1024.75 416.506 1024.92 417.335 1024.92 418.375V427H1022.91V425.227H1022.81C1022.67 425.511 1022.44 425.815 1022.12 426.139C1021.81 426.463 1021.38 426.739 1020.85 426.966C1020.33 427.193 1019.68 427.307 1018.92 427.307ZM1019.23 425.5C1020.02 425.5 1020.69 425.344 1021.24 425.031C1021.79 424.719 1022.2 424.315 1022.48 423.821C1022.77 423.327 1022.91 422.807 1022.91 422.261V420.42C1022.82 420.523 1022.64 420.616 1022.35 420.702C1022.06 420.781 1021.73 420.852 1021.36 420.915C1020.99 420.972 1020.63 421.023 1020.27 421.068C1019.93 421.108 1019.65 421.142 1019.43 421.17C1018.91 421.239 1018.42 421.349 1017.97 421.503C1017.52 421.651 1017.15 421.875 1016.87 422.176C1016.6 422.472 1016.47 422.875 1016.47 423.386C1016.47 424.085 1016.72 424.614 1017.24 424.972C1017.76 425.324 1018.43 425.5 1019.23 425.5ZM1029.42 431.909C1029.08 431.909 1028.77 431.881 1028.51 431.824C1028.24 431.773 1028.05 431.722 1027.95 431.67L1028.46 429.898C1028.95 430.023 1029.38 430.068 1029.76 430.034C1030.13 430 1030.47 429.832 1030.76 429.531C1031.05 429.236 1031.32 428.756 1031.57 428.091L1031.94 427.068L1027.1 413.909H1029.28L1032.89 424.341H1033.03L1036.64 413.909H1038.83L1033.27 428.909C1033.02 429.585 1032.71 430.145 1032.34 430.588C1031.97 431.037 1031.54 431.369 1031.05 431.585C1030.57 431.801 1030.03 431.909 1029.42 431.909ZM1044.11 422.091V421.989C1044.12 420.903 1044.23 420.04 1044.45 419.398C1044.66 418.756 1044.97 418.236 1045.37 417.838C1045.77 417.44 1046.24 417.074 1046.8 416.739C1047.13 416.534 1047.44 416.293 1047.7 416.014C1047.97 415.73 1048.18 415.403 1048.33 415.034C1048.49 414.665 1048.57 414.256 1048.57 413.807C1048.57 413.25 1048.44 412.767 1048.18 412.358C1047.92 411.949 1047.57 411.634 1047.13 411.412C1046.69 411.19 1046.21 411.08 1045.67 411.08C1045.21 411.08 1044.76 411.176 1044.33 411.369C1043.9 411.562 1043.54 411.866 1043.25 412.281C1042.96 412.696 1042.79 413.239 1042.74 413.909H1040.6C1040.64 412.943 1040.89 412.116 1041.35 411.429C1041.81 410.741 1042.41 410.216 1043.16 409.852C1043.92 409.489 1044.75 409.307 1045.67 409.307C1046.67 409.307 1047.54 409.506 1048.28 409.903C1049.03 410.301 1049.6 410.847 1050 411.54C1050.41 412.233 1050.62 413.023 1050.62 413.909C1050.62 414.534 1050.52 415.099 1050.33 415.605C1050.14 416.111 1049.87 416.562 1049.51 416.96C1049.16 417.358 1048.73 417.71 1048.23 418.017C1047.73 418.33 1047.33 418.659 1047.03 419.006C1046.73 419.347 1046.51 419.753 1046.37 420.224C1046.24 420.696 1046.16 421.284 1046.15 421.989V422.091H1044.11ZM1045.2 427.136C1044.78 427.136 1044.42 426.986 1044.12 426.685C1043.81 426.384 1043.66 426.023 1043.66 425.602C1043.66 425.182 1043.81 424.821 1044.12 424.52C1044.42 424.219 1044.78 424.068 1045.2 424.068C1045.62 424.068 1045.98 424.219 1046.28 424.52C1046.58 424.821 1046.73 425.182 1046.73 425.602C1046.73 425.881 1046.66 426.136 1046.52 426.369C1046.38 426.602 1046.2 426.79 1045.96 426.932C1045.74 427.068 1045.48 427.136 1045.2 427.136Z" fill="#2D2D2D"/>
<path d="M1089.2 471V469.977L1093.05 465.773C1093.5 465.28 1093.87 464.852 1094.16 464.489C1094.45 464.121 1094.67 463.777 1094.81 463.455C1094.95 463.129 1095.02 462.788 1095.02 462.432C1095.02 462.023 1094.92 461.669 1094.73 461.369C1094.53 461.07 1094.27 460.839 1093.93 460.676C1093.59 460.513 1093.22 460.432 1092.8 460.432C1092.35 460.432 1091.96 460.525 1091.62 460.71C1091.3 460.892 1091.04 461.148 1090.86 461.477C1090.68 461.807 1090.59 462.193 1090.59 462.636H1089.25C1089.25 461.955 1089.41 461.356 1089.72 460.841C1090.04 460.326 1090.46 459.924 1091.01 459.636C1091.55 459.348 1092.16 459.205 1092.84 459.205C1093.52 459.205 1094.13 459.348 1094.65 459.636C1095.18 459.924 1095.59 460.312 1095.89 460.801C1096.19 461.29 1096.34 461.833 1096.34 462.432C1096.34 462.86 1096.26 463.278 1096.11 463.688C1095.96 464.093 1095.69 464.545 1095.31 465.045C1094.94 465.542 1094.42 466.148 1093.75 466.864L1091.14 469.659V469.75H1096.55V471H1089.2ZM1099.89 469.511C1099.61 469.511 1099.37 469.411 1099.17 469.21C1098.97 469.009 1098.87 468.769 1098.87 468.489C1098.87 468.208 1098.97 467.968 1099.17 467.767C1099.37 467.566 1099.61 467.466 1099.89 467.466C1100.17 467.466 1100.41 467.566 1100.61 467.767C1100.81 467.968 1100.91 468.208 1100.91 468.489C1100.91 468.674 1100.87 468.845 1100.77 469C1100.68 469.155 1100.56 469.28 1100.4 469.375C1100.25 469.466 1100.08 469.511 1099.89 469.511ZM1099.89 463.625C1099.61 463.625 1099.37 463.525 1099.17 463.324C1098.97 463.123 1098.87 462.883 1098.87 462.602C1098.87 462.322 1098.97 462.081 1099.17 461.881C1099.37 461.68 1099.61 461.58 1099.89 461.58C1100.17 461.58 1100.41 461.68 1100.61 461.881C1100.81 462.081 1100.91 462.322 1100.91 462.602C1100.91 462.788 1100.87 462.958 1100.77 463.114C1100.68 463.269 1100.56 463.394 1100.4 463.489C1100.25 463.58 1100.08 463.625 1099.89 463.625ZM1107.23 471.159C1106.48 471.159 1105.81 471.03 1105.22 470.773C1104.64 470.515 1104.18 470.157 1103.83 469.699C1103.49 469.237 1103.31 468.701 1103.28 468.091H1104.71C1104.74 468.466 1104.87 468.79 1105.09 469.062C1105.32 469.331 1105.62 469.54 1105.99 469.688C1106.35 469.835 1106.76 469.909 1107.21 469.909C1107.71 469.909 1108.15 469.822 1108.54 469.648C1108.92 469.473 1109.23 469.231 1109.45 468.92C1109.67 468.61 1109.78 468.25 1109.78 467.841C1109.78 467.413 1109.67 467.036 1109.46 466.71C1109.25 466.381 1108.93 466.123 1108.53 465.938C1108.12 465.752 1107.62 465.659 1107.03 465.659H1106.09V464.409H1107.03C1107.49 464.409 1107.89 464.326 1108.24 464.159C1108.59 463.992 1108.87 463.758 1109.07 463.455C1109.27 463.152 1109.37 462.795 1109.37 462.386C1109.37 461.992 1109.28 461.65 1109.11 461.358C1108.93 461.066 1108.68 460.839 1108.37 460.676C1108.05 460.513 1107.68 460.432 1107.25 460.432C1106.85 460.432 1106.47 460.506 1106.12 460.653C1105.76 460.797 1105.48 461.008 1105.25 461.284C1105.03 461.557 1104.91 461.886 1104.89 462.273H1103.53C1103.55 461.663 1103.73 461.129 1104.08 460.67C1104.42 460.208 1104.87 459.848 1105.43 459.591C1105.99 459.333 1106.61 459.205 1107.28 459.205C1108 459.205 1108.61 459.35 1109.13 459.642C1109.64 459.93 1110.04 460.311 1110.32 460.784C1110.59 461.258 1110.73 461.769 1110.73 462.318C1110.73 462.973 1110.56 463.532 1110.21 463.994C1109.87 464.456 1109.41 464.777 1108.82 464.955V465.045C1109.56 465.167 1110.13 465.479 1110.54 465.983C1110.96 466.483 1111.16 467.102 1111.16 467.841C1111.16 468.473 1110.99 469.042 1110.64 469.545C1110.3 470.045 1109.84 470.439 1109.25 470.727C1108.66 471.015 1107.98 471.159 1107.23 471.159ZM1117.28 471.159C1116.43 471.159 1115.7 470.926 1115.09 470.46C1114.49 469.991 1114.03 469.311 1113.71 468.42C1113.39 467.527 1113.24 466.447 1113.24 465.182C1113.24 463.924 1113.39 462.85 1113.71 461.96C1114.04 461.066 1114.5 460.384 1115.1 459.915C1115.71 459.441 1116.43 459.205 1117.28 459.205C1118.13 459.205 1118.86 459.441 1119.46 459.915C1120.06 460.384 1120.53 461.066 1120.84 461.96C1121.17 462.85 1121.33 463.924 1121.33 465.182C1121.33 466.447 1121.17 467.527 1120.85 468.42C1120.53 469.311 1120.07 469.991 1119.47 470.46C1118.87 470.926 1118.14 471.159 1117.28 471.159ZM1117.28 469.909C1118.13 469.909 1118.79 469.5 1119.26 468.682C1119.73 467.864 1119.96 466.697 1119.96 465.182C1119.96 464.174 1119.86 463.316 1119.64 462.608C1119.43 461.9 1119.12 461.36 1118.72 460.989C1118.32 460.617 1117.84 460.432 1117.28 460.432C1116.44 460.432 1115.78 460.847 1115.31 461.676C1114.84 462.502 1114.6 463.67 1114.6 465.182C1114.6 466.189 1114.71 467.045 1114.92 467.75C1115.13 468.455 1115.43 468.991 1115.83 469.358C1116.23 469.725 1116.72 469.909 1117.28 469.909ZM1123.51 474.273V462.273H1124.8V463.659H1124.96C1125.06 463.508 1125.2 463.314 1125.37 463.08C1125.55 462.841 1125.8 462.629 1126.13 462.443C1126.47 462.254 1126.92 462.159 1127.49 462.159C1128.22 462.159 1128.87 462.343 1129.43 462.71C1129.99 463.078 1130.43 463.598 1130.74 464.273C1131.06 464.947 1131.21 465.742 1131.21 466.659C1131.21 467.583 1131.06 468.384 1130.74 469.062C1130.43 469.737 1129.99 470.259 1129.43 470.631C1128.88 470.998 1128.24 471.182 1127.51 471.182C1126.95 471.182 1126.5 471.089 1126.16 470.903C1125.82 470.714 1125.57 470.5 1125.38 470.261C1125.2 470.019 1125.06 469.818 1124.96 469.659H1124.85V474.273H1123.51ZM1124.83 466.636C1124.83 467.295 1124.92 467.877 1125.12 468.381C1125.31 468.881 1125.59 469.273 1125.96 469.557C1126.33 469.837 1126.79 469.977 1127.33 469.977C1127.89 469.977 1128.36 469.83 1128.73 469.534C1129.11 469.235 1129.39 468.833 1129.58 468.33C1129.78 467.822 1129.87 467.258 1129.87 466.636C1129.87 466.023 1129.78 465.47 1129.59 464.977C1129.4 464.481 1129.12 464.089 1128.74 463.801C1128.37 463.509 1127.89 463.364 1127.33 463.364C1126.78 463.364 1126.32 463.502 1125.95 463.778C1125.58 464.051 1125.3 464.434 1125.11 464.926C1124.92 465.415 1124.83 465.985 1124.83 466.636ZM1133.26 471V462.273H1134.55V463.636H1134.67C1134.85 463.17 1135.14 462.809 1135.55 462.551C1135.95 462.29 1136.44 462.159 1137.01 462.159C1137.58 462.159 1138.06 462.29 1138.45 462.551C1138.83 462.809 1139.13 463.17 1139.35 463.636H1139.44C1139.66 463.186 1140 462.828 1140.45 462.562C1140.89 462.294 1141.43 462.159 1142.05 462.159C1142.83 462.159 1143.47 462.403 1143.97 462.892C1144.46 463.377 1144.71 464.133 1144.71 465.159V471H1143.37V465.159C1143.37 464.515 1143.2 464.055 1142.84 463.778C1142.49 463.502 1142.08 463.364 1141.6 463.364C1140.99 463.364 1140.51 463.549 1140.17 463.92C1139.84 464.288 1139.67 464.754 1139.67 465.318V471H1138.3V465.023C1138.3 464.527 1138.14 464.127 1137.82 463.824C1137.5 463.517 1137.08 463.364 1136.58 463.364C1136.23 463.364 1135.9 463.456 1135.6 463.642C1135.3 463.828 1135.06 464.085 1134.87 464.415C1134.69 464.741 1134.6 465.117 1134.6 465.545V471H1133.26Z" fill="#2D2D2D" fill-opacity="0.81"/>
<path d="M50 539V549.833H60.8333" stroke="white" stroke-width="4" stroke-linecap="round" stroke-linejoin="round"/>
<path d="M50.1083 560.667C50.5883 565.013 52.5149 569.071 55.5787 572.191C58.6425 575.31 62.6658 577.309 67.0025 577.867C71.3391 578.425 75.7374 577.509 79.491 575.267C83.2445 573.024 86.1356 569.586 87.6999 565.503C89.2641 561.42 89.4108 556.929 88.1163 552.753C86.8218 548.577 84.1613 544.957 80.562 542.474C76.9628 539.992 72.6336 538.791 68.2698 539.065C63.906 539.338 59.7609 541.071 56.5 543.983L50 549.833" stroke="white" stroke-width="4" stroke-linecap="round" stroke-linejoin="round"/>
<path d="M69.5 547.667V558.5L78.1667 562.833" stroke="white" stroke-width="4" stroke-linecap="round" stroke-linejoin="round"/>
</g>
<defs>
<filter id="filter0_d_44_389" x="-2" y="-6" width="153" height="1036" filterUnits="userSpaceOnUse" color-interpolation-filters="sRGB">
<feFlood flood-opacity="0" result="BackgroundImageFix"/>
<feColorMatrix in="SourceAlpha" type="matrix" values="0 0 0 0 0 0 0 0 0 0 0 0 0 0 0 0 0 0 127 0" result="hardAlpha"/>
<feOffset dx="4"/>
<feGaussianBlur stdDeviation="3"/>
<feComposite in2="hardAlpha" operator="out"/>
<feColorMatrix type="matrix" values="0 0 0 0 0 0 0 0 0 0 0 0 0 0 0 0 0 0 0.13 0"/>
<feBlend mode="normal" in2="BackgroundImageFix" result="effect1_dropShadow_44_389"/>
<feBlend mode="normal" in="SourceGraphic" in2="effect1_dropShadow_44_389" result="shape"/>
</filter>
<filter id="filter1_d_44_389" x="278" y="778" width="883" height="118" filterUnits="userSpaceOnUse" color-interpolation-filters="sRGB">
<feFlood flood-opacity="0" result="BackgroundImageFix"/>
<feColorMatrix in="SourceAlpha" type="matrix" values="0 0 0 0 0 0 0 0 0 0 0 0 0 0 0 0 0 0 127 0" result="hardAlpha"/>
<feOffset dy="4"/>
<feGaussianBlur stdDeviation="7.5"/>
<feComposite in2="hardAlpha" operator="out"/>
<feColorMatrix type="matrix" values="0 0 0 0 0 0 0 0 0 0 0 0 0 0 0 0 0 0 0.12 0"/>
<feBlend mode="normal" in2="BackgroundImageFix" result="effect1_dropShadow_44_389"/>
<feBlend mode="normal" in="SourceGraphic" in2="effect1_dropShadow_44_389" result="shape"/>
</filter>
<clipPath id="clip0_44_389">
<rect width="1440" height="1024" fill="white"/>
</clipPath>
</defs>
</svg>
