<svg width="42" height="35" viewBox="0 0 42 35" fill="none" xmlns="http://www.w3.org/2000/svg">
<path fill-rule="evenodd" clip-rule="evenodd" d="M19.5267 0.917016C20.3403 0.24987 21.6594 0.24987 22.473 0.917016L41.223 16.292C42.0366 16.9592 42.0366 18.0408 41.223 18.708C40.4094 19.3751 39.0903 19.3751 38.2767 18.708L37.6665 18.2076V31.1667C37.6665 32.0728 37.2275 32.9418 36.4461 33.5826C35.6647 34.2234 34.6049 34.5833 33.4998 34.5833H8.49984C7.39477 34.5833 6.33496 34.2234 5.55356 33.5826C4.77216 32.9419 4.33317 32.0728 4.33317 31.1667V18.2076L3.72298 18.708C2.90938 19.3751 1.59029 19.3751 0.776698 18.708C-0.0368942 18.0408 -0.0368942 16.9592 0.776698 16.292L19.5267 0.917016ZM8.49984 14.7909V31.1667H14.7498V24.3333C14.7498 23.4272 15.1888 22.5581 15.9702 21.9174C16.7516 21.2766 17.8114 20.9167 18.9165 20.9167H23.0832C24.1882 20.9167 25.248 21.2766 26.0294 21.9174C26.8108 22.5581 27.2498 23.4272 27.2498 24.3333V31.1667H33.4998V14.7909L20.9998 4.54094L8.49984 14.7909ZM23.0832 31.1667V24.3333H18.9165V31.1667H23.0832Z" fill="white"/>
</svg>
