<svg width="120" height="129" viewBox="0 0 120 129" fill="none" xmlns="http://www.w3.org/2000/svg">
<path d="M50.2156 0.358215C21.5487 0.358215 5.93018 20.2979 5.93018 46.6626V128.858H94.501V46.6626C94.501 7.44787 70.579 8.11253 70.579 8.11253C70.579 8.11253 68.7996 0.358215 50.2156 0.358215Z" fill="#231F20"/>
<path d="M114.273 32.9263H99.6434C99.6434 32.9263 115.46 104.709 69.988 104.709V88.979H30.6451V104.709C5.73456 105.374 0.791992 110.026 0.791992 133.289H99.6434C124.159 100.057 121.588 71.2548 114.273 32.9263Z" fill="#C28FEF"/>
<path d="M85.0144 21.1841C86.0029 18.9686 89.3639 18.9686 92.7248 22.9565C94.7018 25.3936 95.4927 26.2798 97.0743 26.5013L96.4812 6.34012C96.4812 4.78925 97.6674 3.23839 99.0513 3.23839C100.435 3.23839 101.621 4.5677 101.819 6.34012V4.1246C101.819 2.13063 103.203 0.358215 104.785 0.358215C106.564 0.358215 107.948 1.90908 107.948 3.90305V5.45391C107.948 3.68149 109.134 2.13063 110.518 2.13063C112.1 2.13063 113.286 3.45994 113.286 5.23236V8.77719C113.286 7.22633 114.274 5.67546 115.658 5.67546C117.042 5.67546 118.228 7.00477 118.228 8.55564L118.624 24.0643V24.5074C118.624 24.5074 119.81 32.7048 118.031 37.8005C115.263 45.5548 99.8421 48.2134 94.5041 35.1419C93.5156 32.4832 91.3409 30.7108 89.5616 28.2738C87.7822 25.8367 84.0259 23.6212 85.0144 21.1841ZM17.2024 69.0393C17.2024 69.0393 10.4805 67.0453 10.4805 56.1893C10.4805 47.5488 15.423 45.9979 15.423 45.9979C33.414 45.9979 66.6281 20.0763 66.6281 20.0763C66.6281 20.0763 73.5476 42.8962 84.2236 45.9979C84.2236 45.9979 89.3639 47.1057 89.3639 56.1893C89.3639 67.0453 82.4443 69.0393 82.4443 69.0393C82.4443 85.4342 62.0809 105.374 49.8233 105.374C37.9612 105.374 17.2024 85.4342 17.2024 69.0393Z" fill="#B47D56"/>
<path d="M50.2178 79.6738C43.8913 79.6738 40.7281 74.5781 43.8913 74.5781H56.5443C59.7076 74.5781 56.5443 79.6738 50.2178 79.6738Z" fill="#935E3E"/>
<path d="M59.7073 64.6083C57.5326 64.6083 57.7303 61.5066 57.7303 61.5066C61.0912 42.01 80.4661 52.423 80.4661 52.423C82.0477 55.7462 76.9074 64.1652 75.5235 64.6083C69.197 66.3807 59.7073 64.6083 59.7073 64.6083Z" fill="#F5F5F5"/>
<path d="M68.4064 64.3867C72.228 64.3867 75.326 60.915 75.326 56.6324C75.326 52.3498 72.228 48.8781 68.4064 48.8781C64.5848 48.8781 61.4868 52.3498 61.4868 56.6324C61.4868 60.915 64.5848 64.3867 68.4064 64.3867Z" fill="#664E27"/>
<path d="M68.4071 59.2909C69.7174 59.2909 70.7795 58.1006 70.7795 56.6323C70.7795 55.1639 69.7174 53.9736 68.4071 53.9736C67.0968 53.9736 66.0347 55.1639 66.0347 56.6323C66.0347 58.1006 67.0968 59.2909 68.4071 59.2909Z" fill="#2B2925"/>
<path d="M57.7305 61.5066C61.0914 38.2436 78.2916 53.7522 85.0134 50.429C78.2916 57.7402 64.6501 42.01 57.7305 61.5066Z" fill="#3B3226"/>
<path d="M40.7283 64.6083C42.903 64.6083 42.7053 61.5066 42.7053 61.5066C39.3444 42.01 19.9695 52.423 19.9695 52.423C18.3879 55.7462 23.5281 64.1652 24.9121 64.6083C31.0408 66.3807 40.7283 64.6083 40.7283 64.6083Z" fill="#F5F5F5"/>
<path d="M31.8317 64.3867C35.6533 64.3867 38.7513 60.915 38.7513 56.6324C38.7513 52.3498 35.6533 48.8781 31.8317 48.8781C28.0101 48.8781 24.9121 52.3498 24.9121 56.6324C24.9121 60.915 28.0101 64.3867 31.8317 64.3867Z" fill="#664E27"/>
<path d="M42.5076 61.5066C39.1466 38.2436 21.9465 53.7522 15.2246 50.429C21.9465 57.7402 35.7857 42.01 42.5076 61.5066Z" fill="#3B3226"/>
<path d="M50.2177 88.3144L34.9946 85.6558C44.089 100.278 56.3465 100.278 65.4409 85.6558L50.2177 88.3144Z" fill="#935E3E"/>
<path d="M56.1488 84.9912C51.6017 82.9972 50.2177 86.0989 50.2177 86.0989C50.2177 86.0989 48.6361 82.9972 44.2867 84.9912C40.728 86.542 34.9946 85.6558 34.9946 85.6558C41.1234 87.2067 41.9142 89.8653 50.2177 89.8653C58.5213 89.8653 59.3121 86.9851 65.4409 85.6558C65.4409 85.6558 59.7075 86.542 56.1488 84.9912Z" fill="#734C31"/>
<path d="M31.829 59.2909C33.1392 59.2909 34.2014 58.1006 34.2014 56.6323C34.2014 55.1639 33.1392 53.9736 31.829 53.9736C30.5187 53.9736 29.4565 55.1639 29.4565 56.6323C29.4565 58.1006 30.5187 59.2909 31.829 59.2909Z" fill="#2B2925"/>
</svg>
