<svg width="169" height="169" viewBox="0 0 169 169" fill="none" xmlns="http://www.w3.org/2000/svg">
<circle cx="84.5" cy="84.5" r="84.5" fill="#FED0AB"/>
<mask id="mask0_44_1030" style="mask-type:alpha" maskUnits="userSpaceOnUse" x="0" y="0" width="169" height="169">
<circle cx="84.5" cy="84.5" r="84.5" fill="#BFBDF4"/>
</mask>
<g mask="url(#mask0_44_1030)">
<path d="M82.2156 40.3582C53.5487 40.3582 37.9302 60.2979 37.9302 86.6626V168.858H126.501V86.6626C126.501 47.4479 102.579 48.1125 102.579 48.1125C102.579 48.1125 100.8 40.3582 82.2156 40.3582Z" fill="#231F20"/>
<path d="M146.273 72.9263H131.643C131.643 72.9263 147.46 144.709 101.988 144.709V128.979H62.6451V144.709C37.7346 145.374 32.792 150.026 32.792 173.289H131.643C156.159 140.057 153.588 111.255 146.273 72.9263Z" fill="#C28FEF"/>
<path d="M117.014 61.1841C118.003 58.9686 121.364 58.9686 124.725 62.9565C126.702 65.3936 127.493 66.2798 129.074 66.5013L128.481 46.3401C128.481 44.7893 129.667 43.2384 131.051 43.2384C132.435 43.2384 133.621 44.5677 133.819 46.3401V44.1246C133.819 42.1306 135.203 40.3582 136.785 40.3582C138.564 40.3582 139.948 41.9091 139.948 43.903V45.4539C139.948 43.6815 141.134 42.1306 142.518 42.1306C144.1 42.1306 145.286 43.4599 145.286 45.2324V48.7772C145.286 47.2263 146.274 45.6755 147.658 45.6755C149.042 45.6755 150.228 47.0048 150.228 48.5556L150.624 64.0643V64.5074C150.624 64.5074 151.81 72.7048 150.031 77.8005C147.263 85.5548 131.842 88.2134 126.504 75.1419C125.516 72.4832 123.341 70.7108 121.562 68.2738C119.782 65.8367 116.026 63.6212 117.014 61.1841ZM49.2024 109.039C49.2024 109.039 42.4805 107.045 42.4805 96.1893C42.4805 87.5488 47.423 85.9979 47.423 85.9979C65.414 85.9979 98.6281 60.0763 98.6281 60.0763C98.6281 60.0763 105.548 82.8962 116.224 85.9979C116.224 85.9979 121.364 87.1057 121.364 96.1893C121.364 107.045 114.444 109.039 114.444 109.039C114.444 125.434 94.0809 145.374 81.8233 145.374C69.9612 145.374 49.2024 125.434 49.2024 109.039Z" fill="#B47D56"/>
<path d="M82.2178 119.674C75.8913 119.674 72.7281 114.578 75.8913 114.578H88.5443C91.7076 114.578 88.5443 119.674 82.2178 119.674Z" fill="#935E3E"/>
<path d="M91.7073 104.608C89.5326 104.608 89.7303 101.507 89.7303 101.507C93.0912 82.01 112.466 92.423 112.466 92.423C114.048 95.7462 108.907 104.165 107.524 104.608C101.197 106.381 91.7073 104.608 91.7073 104.608Z" fill="#F5F5F5"/>
<path d="M100.406 104.387C104.228 104.387 107.326 100.915 107.326 96.6324C107.326 92.3498 104.228 88.8781 100.406 88.8781C96.5848 88.8781 93.4868 92.3498 93.4868 96.6324C93.4868 100.915 96.5848 104.387 100.406 104.387Z" fill="#664E27"/>
<path d="M100.407 99.2909C101.717 99.2909 102.78 98.1006 102.78 96.6323C102.78 95.1639 101.717 93.9736 100.407 93.9736C99.0968 93.9736 98.0347 95.1639 98.0347 96.6323C98.0347 98.1006 99.0968 99.2909 100.407 99.2909Z" fill="#2B2925"/>
<path d="M89.7305 101.507C93.0914 78.2436 110.292 93.7522 117.013 90.429C110.292 97.7402 96.6501 82.01 89.7305 101.507Z" fill="#3B3226"/>
<path d="M72.7283 104.608C74.903 104.608 74.7053 101.507 74.7053 101.507C71.3444 82.01 51.9695 92.423 51.9695 92.423C50.3879 95.7462 55.5281 104.165 56.9121 104.608C63.0408 106.381 72.7283 104.608 72.7283 104.608Z" fill="#F5F5F5"/>
<path d="M63.8317 104.387C67.6533 104.387 70.7513 100.915 70.7513 96.6324C70.7513 92.3498 67.6533 88.8781 63.8317 88.8781C60.0101 88.8781 56.9121 92.3498 56.9121 96.6324C56.9121 100.915 60.0101 104.387 63.8317 104.387Z" fill="#664E27"/>
<path d="M74.5076 101.507C71.1466 78.2436 53.9465 93.7522 47.2246 90.429C53.9465 97.7402 67.7857 82.01 74.5076 101.507Z" fill="#3B3226"/>
<path d="M82.2177 128.314L66.9946 125.656C76.089 140.278 88.3465 140.278 97.4409 125.656L82.2177 128.314Z" fill="#935E3E"/>
<path d="M88.1488 124.991C83.6017 122.997 82.2177 126.099 82.2177 126.099C82.2177 126.099 80.6361 122.997 76.2867 124.991C72.728 126.542 66.9946 125.656 66.9946 125.656C73.1234 127.207 73.9142 129.865 82.2177 129.865C90.5213 129.865 91.3121 126.985 97.4409 125.656C97.4409 125.656 91.7075 126.542 88.1488 124.991Z" fill="#734C31"/>
<path d="M63.829 99.2909C65.1392 99.2909 66.2014 98.1006 66.2014 96.6323C66.2014 95.1639 65.1392 93.9736 63.829 93.9736C62.5187 93.9736 61.4565 95.1639 61.4565 96.6323C61.4565 98.1006 62.5187 99.2909 63.829 99.2909Z" fill="#2B2925"/>
</g>
</svg>
