<svg width="47" height="47" viewBox="0 0 47 47" fill="none" xmlns="http://www.w3.org/2000/svg">
<path d="M44.9999 22.3056C45.0082 25.4586 44.2715 28.569 42.8499 31.3834C41.1644 34.7559 38.5732 37.5925 35.3666 39.5755C32.16 41.5585 28.4646 42.6097 24.6944 42.6111C21.5414 42.6193 18.431 41.8827 15.6166 40.4611L2 45L6.53888 31.3834C5.11733 28.569 4.38066 25.4586 4.38889 22.3056C4.39034 18.5354 5.44146 14.84 7.42449 11.6334C9.40752 8.42676 12.2441 5.83558 15.6166 4.15006C18.431 2.72851 21.5414 1.99185 24.6944 2.00007H25.8889C30.8681 2.27477 35.5711 4.37644 39.0973 7.90267C42.6236 11.4289 44.7252 16.1319 44.9999 21.1111V22.3056Z" stroke="white" stroke-width="4" stroke-linecap="round" stroke-linejoin="round"/>
</svg>
