<svg width="41" height="37" viewBox="0 0 41 37" fill="none" xmlns="http://www.w3.org/2000/svg">
<path d="M36.0647 4.91047C35.1373 3.98795 34.0354 3.25598 32.822 2.75654C31.6087 2.25709 30.3078 2 28.994 2C27.6803 2 26.3794 2.25709 25.166 2.75654C23.9527 3.25598 22.8508 3.98795 21.9234 4.91047L20.5 6.33982L19.0766 4.91047C18.1493 3.98795 17.0473 3.25598 15.834 2.75654C14.6206 2.25709 13.3197 2 12.006 2C10.6922 2 9.39131 2.25709 8.17796 2.75654C6.96462 3.25598 5.86267 3.98795 4.93529 4.91047C1.01639 8.79536 0.776079 15.3557 5.71168 20.3401L20.5 35L35.2883 20.3401C40.2239 15.3557 39.9836 8.79536 36.0647 4.91047Z" stroke="white" stroke-width="4" stroke-linecap="round" stroke-linejoin="round"/>
</svg>
